;PTH Drill file created by EasyEDA 
M48
;Holesize 1 = 0.047 INCH
T01C0.047
;Holesize 2 = 0.028 INCH
T02C0.028
;Holesize 3 = 0.035 INCH
T03C0.035
;Holesize 4 = 0.051 INCH
T04C0.051
;Holesize 5 = 0.038 INCH
T05C0.038
;Holesize 6 = 0.035 INCH
T06C0.035
;Holesize 7 = 0.028 INCH
T07C0.028
;Holesize 8 = 0.040 INCH
T08C0.040
INCH,00.0000
%
G05
G90
T01
X019111Y030040G85X019072Y030040
X017139Y030040G85X017100Y030040
T02
X021000Y028900
X024000Y028900
X029900Y034800
X029900Y031800
X034610Y030230
X033609Y030230
X037469Y033009
T03
X018800Y034400
X019800Y034400
X020800Y034400
X037400Y053700
X036400Y053700
T04
X035600Y032200
X033600Y032200
X034600Y032200
T05
X020700Y043669
X020700Y041630
X020700Y042650
X022800Y045730
X022800Y047769
X022800Y046750
X032900Y047769
X032900Y045730
X032900Y046750
X034900Y039069
X034900Y037030
X034900Y038050
X016500Y043669
X016500Y041630
X016500Y042650
X018700Y045730
X018700Y047769
X018700Y046750
X012500Y043669
X012500Y041630
X012500Y042650
X014600Y045730
X014600Y047769
X014600Y046750
X007500Y042769
X007500Y040730
X007500Y041750
X009200Y044830
X009200Y046869
X009200Y045850
X004300Y042769
X004300Y040730
X004300Y041750
X005900Y044830
X005900Y046869
X005900Y045850
X001500Y042769
X001500Y040730
X001500Y041750
X003100Y044830
X003100Y046869
X003100Y045850
X028900Y043669
X028900Y041630
X028900Y042650
X031100Y045730
X031100Y047769
X031100Y046750
X024700Y043669
X024700Y041630
X024700Y042650
X026900Y045730
X026900Y047769
X026900Y046750
X028200Y034269
X028200Y032230
X028200Y033250
T06
X022500Y039900
X022500Y042900
X020700Y044900
X020700Y047900
X019800Y048900
X022800Y048900
X036300Y040200
X033300Y040200
X030600Y038000
X033600Y038000
X018500Y039900
X018500Y042900
X016500Y044900
X016500Y047900
X015700Y048900
X018700Y048900
X014500Y039900
X014500Y042900
X012500Y044900
X012500Y047900
X011600Y048900
X014600Y048900
X009300Y038800
X009300Y041800
X007500Y043900
X007500Y046900
X006300Y048400
X009300Y048400
X005800Y038800
X005800Y041800
X004300Y043900
X004300Y046900
X002100Y048400
X005100Y048400
X002900Y038800
X002900Y041800
X001500Y043900
X001500Y046900
X000900Y051400
X000900Y048400
X030500Y039900
X030500Y042900
X028900Y044900
X028900Y047900
X028100Y048900
X031100Y048900
X026500Y039900
X026500Y042900
X024700Y044900
X024700Y047900
X023900Y048900
X026900Y048900
X023600Y032800
X026600Y032800
X023600Y031100
X026600Y031100
X031700Y031000
X031700Y034000
T07
X000900Y053800
X001900Y053800
X002900Y053800
X003900Y053800
X004900Y053800
X005900Y053800
X006900Y053800
X007900Y053800
X008900Y053800
X009900Y053800
X037469Y034009
T08
X003300Y030800
X004300Y030800
X005300Y030800
X006300Y030800
X007300Y030800
X008300Y030800
X009300Y030800
X010300Y030800
X011300Y030800
X012300Y030800
X013300Y030800
X014300Y030800
X014300Y036800
X013300Y036800
X012300Y036800
X011300Y036800
X010300Y036800
X009300Y036800
X008300Y036800
X007300Y036800
X006300Y036800
X005300Y036800
X004300Y036800
X003300Y036800
X011900Y031900
X010800Y031900
X006700Y031900
X007800Y031900
X002300Y031300
X002300Y032300
X002300Y033300
X002300Y034300
X002300Y035300
X002300Y036300
M30
