G04 This is an RS-274x file exported by *
G04 gerbv version 2.6A *
G04 More information is available about gerbv at *
G04 http://gerbv.geda-project.org/ *
G04 --End of header info--*
%MOIN*%
%FSLAX34Y34*%
%IPPOS*%
G04 --Define apertures--*
%ADD10C,0.0200*%
%ADD11C,0.0394*%
%ADD12C,0.0315*%
%ADD13C,0.0080*%
%ADD14R,0.1575X0.1575*%
%ADD15C,0.0750*%
%ADD16R,0.0787X0.0787*%
%ADD17R,0.0787X0.0984*%
%ADD18C,0.0740*%
%ADD19R,0.0654X0.0654*%
%ADD20R,0.0620X0.0620*%
%ADD21C,0.0740*%
%ADD22C,0.0787*%
%ADD23C,0.0600*%
G04 --Start main section--*
G36*
G01X0038243Y0027700D02*
G01X0038772Y0028228D01*
G01X0038839Y0028307D01*
G01X0038896Y0028396D01*
G01X0038900Y0028405D01*
G01X0038900Y0027700D01*
G01X0038243Y0027700D01*
G37*
G36*
G01X0021832Y0028767D02*
G01X0021846Y0028900D01*
G01X0021828Y0029069D01*
G01X0021778Y0029234D01*
G01X0021694Y0029384D01*
G01X0021582Y0029513D01*
G01X0021448Y0029617D01*
G01X0021294Y0029694D01*
G01X0021128Y0029736D01*
G01X0020957Y0029744D01*
G01X0020788Y0029717D01*
G01X0020628Y0029659D01*
G01X0020498Y0029578D01*
G01X0020371Y0029703D01*
G01X0020371Y0030800D01*
G01X0020348Y0030946D01*
G01X0020282Y0031078D01*
G01X0020267Y0031092D01*
G01X0020259Y0031107D01*
G01X0020155Y0031211D01*
G01X0020023Y0031278D01*
G01X0019878Y0031302D01*
G01X0018303Y0031302D01*
G01X0018157Y0031278D01*
G01X0018071Y0031234D01*
G01X0018046Y0031248D01*
G01X0017900Y0031271D01*
G01X0017080Y0031271D01*
G01X0017236Y0031428D01*
G01X0024128Y0031428D01*
G01X0024128Y0030500D01*
G01X0024136Y0030409D01*
G01X0024155Y0030323D01*
G01X0024190Y0030240D01*
G01X0024238Y0030163D01*
G01X0024296Y0030096D01*
G01X0025296Y0029096D01*
G01X0025363Y0029038D01*
G01X0025440Y0028990D01*
G01X0025523Y0028955D01*
G01X0025609Y0028936D01*
G01X0025700Y0028928D01*
G01X0033604Y0028928D01*
G01X0033780Y0028955D01*
G01X0033938Y0029036D01*
G01X0034065Y0029161D01*
G01X0034146Y0029319D01*
G01X0034176Y0029496D01*
G01X0034177Y0029815D01*
G01X0034246Y0029923D01*
G01X0034297Y0030071D01*
G01X0034315Y0030230D01*
G01X0034297Y0030388D01*
G01X0034268Y0030473D01*
G01X0034268Y0031555D01*
G01X0034272Y0031559D01*
G01X0034292Y0031586D01*
G01X0034307Y0031613D01*
G01X0034376Y0031732D01*
G01X0034392Y0031761D01*
G01X0034406Y0031790D01*
G01X0034415Y0031821D01*
G01X0034426Y0031852D01*
G01X0034431Y0031884D01*
G01X0034456Y0032017D01*
G01X0034460Y0032036D01*
G01X0034461Y0032052D01*
G01X0034461Y0032067D01*
G01X0034464Y0032086D01*
G01X0034464Y0032315D01*
G01X0034461Y0032334D01*
G01X0034461Y0032350D01*
G01X0034460Y0032365D01*
G01X0034456Y0032384D01*
G01X0034431Y0032517D01*
G01X0034426Y0032550D01*
G01X0034415Y0032580D01*
G01X0034406Y0032611D01*
G01X0034392Y0032640D01*
G01X0034376Y0032669D01*
G01X0034307Y0032788D01*
G01X0034292Y0032815D01*
G01X0034272Y0032842D01*
G01X0034252Y0032865D01*
G01X0034230Y0032890D01*
G01X0034073Y0033021D01*
G01X0034046Y0033040D01*
G01X0034018Y0033055D01*
G01X0033985Y0033071D01*
G01X0033956Y0033084D01*
G01X0033827Y0033130D01*
G01X0033796Y0033140D01*
G01X0033765Y0033148D01*
G01X0033731Y0033154D01*
G01X0033667Y0033157D01*
G01X0033532Y0033157D01*
G01X0033467Y0033154D01*
G01X0033434Y0033148D01*
G01X0033404Y0033140D01*
G01X0033371Y0033130D01*
G01X0033244Y0033084D01*
G01X0033213Y0033071D01*
G01X0033182Y0033055D01*
G01X0033154Y0033040D01*
G01X0033126Y0033021D01*
G01X0032969Y0032890D01*
G01X0032948Y0032865D01*
G01X0032928Y0032842D01*
G01X0032907Y0032815D01*
G01X0032892Y0032788D01*
G01X0032823Y0032669D01*
G01X0032807Y0032640D01*
G01X0032794Y0032611D01*
G01X0032784Y0032580D01*
G01X0032773Y0032550D01*
G01X0032767Y0032517D01*
G01X0032744Y0032384D01*
G01X0032740Y0032365D01*
G01X0032738Y0032350D01*
G01X0032738Y0032334D01*
G01X0032736Y0032315D01*
G01X0032736Y0032086D01*
G01X0032738Y0032067D01*
G01X0032738Y0032052D01*
G01X0032740Y0032036D01*
G01X0032744Y0032017D01*
G01X0032767Y0031884D01*
G01X0032773Y0031852D01*
G01X0032784Y0031821D01*
G01X0032794Y0031790D01*
G01X0032807Y0031761D01*
G01X0032823Y0031732D01*
G01X0032892Y0031613D01*
G01X0032907Y0031586D01*
G01X0032928Y0031559D01*
G01X0032932Y0031555D01*
G01X0032932Y0030415D01*
G01X0032921Y0030388D01*
G01X0032904Y0030230D01*
G01X0032921Y0030071D01*
G01X0025936Y0030071D01*
G01X0025271Y0030736D01*
G01X0025271Y0033600D01*
G01X0025244Y0033776D01*
G01X0025161Y0033936D01*
G01X0025036Y0034061D01*
G01X0024876Y0034144D01*
G01X0024700Y0034171D01*
G01X0022300Y0034171D01*
G01X0022271Y0034169D01*
G01X0022271Y0034628D01*
G01X0027417Y0034628D01*
G01X0027409Y0034615D01*
G01X0027394Y0034582D01*
G01X0027378Y0034546D01*
G01X0027357Y0034473D01*
G01X0027336Y0034359D01*
G01X0027328Y0034288D01*
G01X0027328Y0034252D01*
G01X0027336Y0034180D01*
G01X0027357Y0034065D01*
G01X0027378Y0033994D01*
G01X0027394Y0033957D01*
G01X0027409Y0033923D01*
G01X0027430Y0033892D01*
G01X0027478Y0033821D01*
G01X0027050Y0033821D01*
G01X0026959Y0033813D01*
G01X0026873Y0033794D01*
G01X0026790Y0033759D01*
G01X0026713Y0033711D01*
G01X0026646Y0033654D01*
G01X0026628Y0033636D01*
G01X0026557Y0033640D01*
G01X0026388Y0033615D01*
G01X0026230Y0033555D01*
G01X0026084Y0033465D01*
G01X0025961Y0033348D01*
G01X0025863Y0033207D01*
G01X0025796Y0033052D01*
G01X0025761Y0032886D01*
G01X0025761Y0032713D01*
G01X0025796Y0032548D01*
G01X0025863Y0032392D01*
G01X0025961Y0032252D01*
G01X0026028Y0032188D01*
G01X0026028Y0031711D01*
G01X0025961Y0031648D01*
G01X0025863Y0031507D01*
G01X0025796Y0031352D01*
G01X0025761Y0031186D01*
G01X0025761Y0031013D01*
G01X0025796Y0030848D01*
G01X0025863Y0030692D01*
G01X0025961Y0030552D01*
G01X0026084Y0030434D01*
G01X0026230Y0030344D01*
G01X0026388Y0030284D01*
G01X0026557Y0030259D01*
G01X0026728Y0030267D01*
G01X0026892Y0030309D01*
G01X0027046Y0030386D01*
G01X0027180Y0030490D01*
G01X0027292Y0030617D01*
G01X0027373Y0030767D01*
G01X0027423Y0030930D01*
G01X0027442Y0031100D01*
G01X0027423Y0031269D01*
G01X0027373Y0031432D01*
G01X0027292Y0031582D01*
G01X0027180Y0031709D01*
G01X0027171Y0031715D01*
G01X0027171Y0032184D01*
G01X0027180Y0032190D01*
G01X0027292Y0032317D01*
G01X0027373Y0032467D01*
G01X0027423Y0032630D01*
G01X0027430Y0032678D01*
G01X0027584Y0032678D01*
G01X0027594Y0032667D01*
G01X0027623Y0032646D01*
G01X0027721Y0032580D01*
G01X0027753Y0032559D01*
G01X0027788Y0032544D01*
G01X0027823Y0032528D01*
G01X0027896Y0032507D01*
G01X0028009Y0032486D01*
G01X0028082Y0032478D01*
G01X0028317Y0032478D01*
G01X0028390Y0032486D01*
G01X0028503Y0032507D01*
G01X0028576Y0032528D01*
G01X0028611Y0032544D01*
G01X0028646Y0032559D01*
G01X0028678Y0032580D01*
G01X0028776Y0032646D01*
G01X0028805Y0032667D01*
G01X0028832Y0032692D01*
G01X0028857Y0032717D01*
G01X0028882Y0032744D01*
G01X0028903Y0032773D01*
G01X0028969Y0032871D01*
G01X0028990Y0032904D01*
G01X0029005Y0032938D01*
G01X0029021Y0032973D01*
G01X0029042Y0033046D01*
G01X0029063Y0033159D01*
G01X0029071Y0033232D01*
G01X0029071Y0033267D01*
G01X0029063Y0033340D01*
G01X0029042Y0033454D01*
G01X0029021Y0033526D01*
G01X0029005Y0033561D01*
G01X0028990Y0033596D01*
G01X0028969Y0033628D01*
G01X0028921Y0033698D01*
G01X0029369Y0033698D01*
G01X0029459Y0033705D01*
G01X0029546Y0033726D01*
G01X0029630Y0033759D01*
G01X0029705Y0033807D01*
G01X0029773Y0033865D01*
G01X0029863Y0033955D01*
G01X0030028Y0033963D01*
G01X0030194Y0034005D01*
G01X0030228Y0034021D01*
G01X0030228Y0032578D01*
G01X0030194Y0032594D01*
G01X0030028Y0032636D01*
G01X0029857Y0032644D01*
G01X0029688Y0032617D01*
G01X0029528Y0032559D01*
G01X0029382Y0032467D01*
G01X0029257Y0032352D01*
G01X0029159Y0032209D01*
G01X0029092Y0032053D01*
G01X0029057Y0031886D01*
G01X0029057Y0031713D01*
G01X0029092Y0031546D01*
G01X0029159Y0031390D01*
G01X0029257Y0031248D01*
G01X0029382Y0031132D01*
G01X0029528Y0031040D01*
G01X0029688Y0030982D01*
G01X0029857Y0030955D01*
G01X0030028Y0030963D01*
G01X0030194Y0031005D01*
G01X0030348Y0031082D01*
G01X0030482Y0031186D01*
G01X0030517Y0031228D01*
G01X0030892Y0031228D01*
G01X0030861Y0031086D01*
G01X0030861Y0030913D01*
G01X0030896Y0030748D01*
G01X0030963Y0030592D01*
G01X0031061Y0030452D01*
G01X0031184Y0030334D01*
G01X0031330Y0030244D01*
G01X0031488Y0030184D01*
G01X0031657Y0030159D01*
G01X0031828Y0030167D01*
G01X0031992Y0030209D01*
G01X0032146Y0030286D01*
G01X0032280Y0030390D01*
G01X0032392Y0030517D01*
G01X0032473Y0030667D01*
G01X0032523Y0030830D01*
G01X0032542Y0031000D01*
G01X0032523Y0031169D01*
G01X0032473Y0031332D01*
G01X0032392Y0031482D01*
G01X0032280Y0031609D01*
G01X0032271Y0031615D01*
G01X0032271Y0031800D01*
G01X0032244Y0031976D01*
G01X0032161Y0032136D01*
G01X0032036Y0032261D01*
G01X0031876Y0032344D01*
G01X0031700Y0032371D01*
G01X0031371Y0032371D01*
G01X0031371Y0033228D01*
G01X0031488Y0033184D01*
G01X0031657Y0033159D01*
G01X0031828Y0033167D01*
G01X0031992Y0033209D01*
G01X0032146Y0033286D01*
G01X0032205Y0033332D01*
G01X0034623Y0033332D01*
G01X0034904Y0033052D01*
G01X0034823Y0032971D01*
G01X0034757Y0032840D01*
G01X0034734Y0032694D01*
G01X0034734Y0031707D01*
G01X0034757Y0031561D01*
G01X0034823Y0031430D01*
G01X0034927Y0031326D01*
G01X0035060Y0031259D01*
G01X0035206Y0031236D01*
G01X0035992Y0031236D01*
G01X0036138Y0031259D01*
G01X0036269Y0031326D01*
G01X0036373Y0031430D01*
G01X0036439Y0031561D01*
G01X0036464Y0031707D01*
G01X0036464Y0032694D01*
G01X0036439Y0032840D01*
G01X0036373Y0032971D01*
G01X0036296Y0033050D01*
G01X0036577Y0033334D01*
G01X0037260Y0033340D01*
G01X0037311Y0033321D01*
G01X0037469Y0033304D01*
G01X0037627Y0033321D01*
G01X0037631Y0033323D01*
G01X0037631Y0028976D01*
G01X0037423Y0028767D01*
G01X0025002Y0028767D01*
G01X0024840Y0028952D01*
G01X0024828Y0029069D01*
G01X0024778Y0029234D01*
G01X0024694Y0029384D01*
G01X0024582Y0029513D01*
G01X0024448Y0029617D01*
G01X0024294Y0029694D01*
G01X0024128Y0029736D01*
G01X0023957Y0029744D01*
G01X0023788Y0029717D01*
G01X0023628Y0029659D01*
G01X0023482Y0029567D01*
G01X0023357Y0029452D01*
G01X0023259Y0029309D01*
G01X0023192Y0029153D01*
G01X0023157Y0028986D01*
G01X0023157Y0028813D01*
G01X0023167Y0028767D01*
G01X0021832Y0028767D01*
G37*
G36*
G01X0018080Y0028767D02*
G01X0018100Y0028778D01*
G01X0018119Y0028767D01*
G01X0018080Y0028767D01*
G37*
G36*
G01X0016119Y0028769D02*
G01X0001167Y0028771D01*
G01X0001167Y0041015D01*
G01X0001196Y0041007D01*
G01X0001309Y0040986D01*
G01X0001382Y0040978D01*
G01X0001617Y0040978D01*
G01X0001690Y0040986D01*
G01X0001803Y0041007D01*
G01X0001876Y0041028D01*
G01X0001911Y0041044D01*
G01X0001946Y0041059D01*
G01X0001978Y0041080D01*
G01X0002076Y0041146D01*
G01X0002105Y0041167D01*
G01X0002132Y0041192D01*
G01X0002140Y0041200D01*
G01X0002309Y0041205D01*
G01X0002384Y0041134D01*
G01X0002530Y0041044D01*
G01X0002688Y0040984D01*
G01X0002857Y0040959D01*
G01X0003028Y0040967D01*
G01X0003192Y0041009D01*
G01X0003346Y0041086D01*
G01X0003480Y0041190D01*
G01X0003578Y0041302D01*
G01X0003596Y0041273D01*
G01X0003617Y0041244D01*
G01X0003642Y0041217D01*
G01X0003667Y0041192D01*
G01X0003694Y0041167D01*
G01X0003723Y0041146D01*
G01X0003821Y0041080D01*
G01X0003853Y0041059D01*
G01X0003888Y0041044D01*
G01X0003923Y0041028D01*
G01X0003996Y0041007D01*
G01X0004109Y0040986D01*
G01X0004182Y0040978D01*
G01X0004417Y0040978D01*
G01X0004490Y0040986D01*
G01X0004603Y0041007D01*
G01X0004676Y0041028D01*
G01X0004711Y0041044D01*
G01X0004746Y0041059D01*
G01X0004778Y0041080D01*
G01X0004876Y0041146D01*
G01X0004905Y0041167D01*
G01X0004915Y0041178D01*
G01X0005238Y0041178D01*
G01X0005284Y0041134D01*
G01X0005430Y0041044D01*
G01X0005588Y0040984D01*
G01X0005757Y0040959D01*
G01X0005928Y0040967D01*
G01X0006092Y0041009D01*
G01X0006246Y0041086D01*
G01X0006380Y0041190D01*
G01X0006492Y0041317D01*
G01X0006573Y0041467D01*
G01X0006623Y0041630D01*
G01X0006632Y0041700D01*
G01X0006636Y0041659D01*
G01X0006657Y0041546D01*
G01X0006678Y0041473D01*
G01X0006694Y0041438D01*
G01X0006709Y0041404D01*
G01X0006730Y0041371D01*
G01X0006796Y0041273D01*
G01X0006817Y0041244D01*
G01X0006842Y0041217D01*
G01X0006867Y0041192D01*
G01X0006894Y0041167D01*
G01X0006923Y0041146D01*
G01X0007021Y0041080D01*
G01X0007053Y0041059D01*
G01X0007088Y0041044D01*
G01X0007123Y0041028D01*
G01X0007196Y0041007D01*
G01X0007309Y0040986D01*
G01X0007382Y0040978D01*
G01X0007617Y0040978D01*
G01X0007690Y0040986D01*
G01X0007803Y0041007D01*
G01X0007876Y0041028D01*
G01X0007911Y0041044D01*
G01X0007946Y0041059D01*
G01X0007978Y0041080D01*
G01X0008076Y0041146D01*
G01X0008105Y0041167D01*
G01X0008115Y0041178D01*
G01X0008738Y0041178D01*
G01X0008784Y0041134D01*
G01X0008930Y0041044D01*
G01X0009088Y0040984D01*
G01X0009257Y0040959D01*
G01X0009428Y0040967D01*
G01X0009592Y0041009D01*
G01X0009746Y0041086D01*
G01X0009880Y0041190D01*
G01X0009992Y0041317D01*
G01X0010073Y0041467D01*
G01X0010123Y0041630D01*
G01X0010142Y0041800D01*
G01X0010123Y0041969D01*
G01X0010073Y0042132D01*
G01X0009992Y0042282D01*
G01X0009880Y0042409D01*
G01X0009746Y0042513D01*
G01X0009592Y0042590D01*
G01X0009428Y0042632D01*
G01X0009257Y0042640D01*
G01X0009088Y0042615D01*
G01X0008930Y0042555D01*
G01X0008784Y0042465D01*
G01X0008661Y0042348D01*
G01X0008644Y0042321D01*
G01X0008221Y0042321D01*
G01X0008269Y0042392D01*
G01X0008290Y0042423D01*
G01X0008305Y0042457D01*
G01X0008321Y0042494D01*
G01X0008342Y0042565D01*
G01X0008363Y0042680D01*
G01X0008371Y0042752D01*
G01X0008371Y0042788D01*
G01X0008363Y0042859D01*
G01X0008342Y0042973D01*
G01X0008321Y0043046D01*
G01X0008305Y0043082D01*
G01X0008290Y0043115D01*
G01X0008269Y0043148D01*
G01X0008203Y0043246D01*
G01X0008182Y0043276D01*
G01X0008157Y0043302D01*
G01X0008121Y0043338D01*
G01X0008192Y0043417D01*
G01X0008273Y0043567D01*
G01X0008323Y0043730D01*
G01X0008342Y0043900D01*
G01X0008323Y0044069D01*
G01X0008273Y0044232D01*
G01X0008259Y0044257D01*
G01X0008584Y0044257D01*
G01X0008594Y0044248D01*
G01X0008623Y0044226D01*
G01X0008721Y0044159D01*
G01X0008753Y0044140D01*
G01X0008788Y0044123D01*
G01X0008823Y0044107D01*
G01X0008896Y0044088D01*
G01X0009009Y0044065D01*
G01X0009082Y0044057D01*
G01X0009317Y0044057D01*
G01X0009390Y0044065D01*
G01X0009503Y0044088D01*
G01X0009576Y0044107D01*
G01X0009611Y0044123D01*
G01X0009646Y0044140D01*
G01X0009678Y0044159D01*
G01X0009776Y0044226D01*
G01X0009805Y0044248D01*
G01X0009832Y0044271D01*
G01X0009857Y0044298D01*
G01X0009882Y0044323D01*
G01X0009903Y0044354D01*
G01X0009969Y0044452D01*
G01X0009990Y0044484D01*
G01X0010005Y0044517D01*
G01X0010021Y0044554D01*
G01X0010034Y0044600D01*
G01X0011130Y0045130D01*
G01X0011692Y0045134D01*
G01X0011661Y0044986D01*
G01X0011661Y0044813D01*
G01X0011696Y0044648D01*
G01X0011763Y0044492D01*
G01X0011861Y0044352D01*
G01X0011928Y0044288D01*
G01X0011928Y0044276D01*
G01X0011923Y0044273D01*
G01X0011894Y0044252D01*
G01X0011867Y0044228D01*
G01X0011842Y0044202D01*
G01X0011817Y0044176D01*
G01X0011796Y0044146D01*
G01X0011730Y0044048D01*
G01X0011709Y0044015D01*
G01X0011694Y0043982D01*
G01X0011678Y0043946D01*
G01X0011657Y0043873D01*
G01X0011636Y0043759D01*
G01X0011628Y0043688D01*
G01X0011628Y0043652D01*
G01X0011636Y0043580D01*
G01X0011657Y0043465D01*
G01X0011678Y0043394D01*
G01X0011694Y0043357D01*
G01X0011709Y0043323D01*
G01X0011730Y0043292D01*
G01X0011796Y0043194D01*
G01X0011817Y0043163D01*
G01X0011821Y0043159D01*
G01X0011817Y0043155D01*
G01X0011796Y0043126D01*
G01X0011730Y0043028D01*
G01X0011709Y0042996D01*
G01X0011694Y0042961D01*
G01X0011678Y0042926D01*
G01X0011657Y0042854D01*
G01X0011636Y0042740D01*
G01X0011628Y0042667D01*
G01X0011628Y0042632D01*
G01X0011636Y0042559D01*
G01X0011657Y0042446D01*
G01X0011678Y0042373D01*
G01X0011694Y0042338D01*
G01X0011709Y0042304D01*
G01X0011730Y0042271D01*
G01X0011796Y0042173D01*
G01X0011817Y0042144D01*
G01X0011842Y0042117D01*
G01X0011867Y0042092D01*
G01X0011894Y0042067D01*
G01X0011923Y0042046D01*
G01X0012021Y0041980D01*
G01X0012053Y0041959D01*
G01X0012088Y0041944D01*
G01X0012123Y0041928D01*
G01X0012196Y0041907D01*
G01X0012309Y0041886D01*
G01X0012382Y0041878D01*
G01X0012617Y0041878D01*
G01X0012690Y0041886D01*
G01X0012803Y0041907D01*
G01X0012876Y0041928D01*
G01X0012911Y0041944D01*
G01X0012946Y0041959D01*
G01X0012978Y0041980D01*
G01X0013076Y0042046D01*
G01X0013105Y0042067D01*
G01X0013115Y0042078D01*
G01X0014150Y0042078D01*
G01X0014219Y0042082D01*
G01X0014267Y0042092D01*
G01X0014288Y0042084D01*
G01X0014457Y0042059D01*
G01X0014628Y0042067D01*
G01X0014792Y0042109D01*
G01X0014946Y0042186D01*
G01X0015080Y0042290D01*
G01X0015192Y0042417D01*
G01X0015273Y0042567D01*
G01X0015323Y0042730D01*
G01X0015342Y0042900D01*
G01X0015323Y0043069D01*
G01X0015273Y0043232D01*
G01X0015192Y0043382D01*
G01X0015080Y0043509D01*
G01X0014946Y0043613D01*
G01X0014792Y0043690D01*
G01X0014628Y0043732D01*
G01X0014457Y0043740D01*
G01X0014288Y0043715D01*
G01X0014130Y0043655D01*
G01X0013984Y0043565D01*
G01X0013861Y0043448D01*
G01X0013763Y0043307D01*
G01X0013726Y0043221D01*
G01X0013221Y0043221D01*
G01X0013269Y0043292D01*
G01X0013290Y0043323D01*
G01X0013305Y0043357D01*
G01X0013321Y0043394D01*
G01X0013342Y0043465D01*
G01X0013363Y0043580D01*
G01X0013371Y0043652D01*
G01X0013371Y0043688D01*
G01X0013363Y0043759D01*
G01X0013342Y0043873D01*
G01X0013321Y0043946D01*
G01X0013305Y0043982D01*
G01X0013290Y0044015D01*
G01X0013269Y0044048D01*
G01X0013203Y0044146D01*
G01X0013182Y0044176D01*
G01X0013157Y0044202D01*
G01X0013132Y0044228D01*
G01X0013105Y0044252D01*
G01X0013076Y0044273D01*
G01X0013071Y0044276D01*
G01X0013071Y0044284D01*
G01X0013080Y0044290D01*
G01X0013192Y0044417D01*
G01X0013273Y0044567D01*
G01X0013323Y0044730D01*
G01X0013342Y0044900D01*
G01X0013323Y0045069D01*
G01X0013300Y0045148D01*
G01X0013988Y0045154D01*
G01X0013994Y0045148D01*
G01X0014023Y0045126D01*
G01X0014121Y0045059D01*
G01X0014153Y0045040D01*
G01X0014188Y0045023D01*
G01X0014223Y0045007D01*
G01X0014296Y0044988D01*
G01X0014409Y0044965D01*
G01X0014482Y0044957D01*
G01X0014717Y0044957D01*
G01X0014790Y0044965D01*
G01X0014903Y0044988D01*
G01X0014976Y0045007D01*
G01X0015011Y0045023D01*
G01X0015046Y0045040D01*
G01X0015078Y0045059D01*
G01X0015176Y0045126D01*
G01X0015205Y0045148D01*
G01X0015215Y0045157D01*
G01X0015698Y0045157D01*
G01X0015696Y0045152D01*
G01X0015661Y0044986D01*
G01X0015661Y0044813D01*
G01X0015696Y0044648D01*
G01X0015763Y0044492D01*
G01X0015861Y0044352D01*
G01X0015928Y0044288D01*
G01X0015928Y0044276D01*
G01X0015923Y0044273D01*
G01X0015894Y0044252D01*
G01X0015867Y0044228D01*
G01X0015842Y0044202D01*
G01X0015817Y0044176D01*
G01X0015796Y0044146D01*
G01X0015730Y0044048D01*
G01X0015709Y0044015D01*
G01X0015694Y0043982D01*
G01X0015678Y0043946D01*
G01X0015657Y0043873D01*
G01X0015636Y0043759D01*
G01X0015628Y0043688D01*
G01X0015628Y0043652D01*
G01X0015636Y0043580D01*
G01X0015657Y0043465D01*
G01X0015678Y0043394D01*
G01X0015694Y0043357D01*
G01X0015709Y0043323D01*
G01X0015730Y0043292D01*
G01X0015796Y0043194D01*
G01X0015817Y0043163D01*
G01X0015821Y0043159D01*
G01X0015817Y0043155D01*
G01X0015796Y0043126D01*
G01X0015730Y0043028D01*
G01X0015709Y0042996D01*
G01X0015694Y0042961D01*
G01X0015678Y0042926D01*
G01X0015657Y0042854D01*
G01X0015636Y0042740D01*
G01X0015628Y0042667D01*
G01X0015628Y0042632D01*
G01X0015636Y0042559D01*
G01X0015657Y0042446D01*
G01X0015678Y0042373D01*
G01X0015694Y0042338D01*
G01X0015709Y0042304D01*
G01X0015730Y0042271D01*
G01X0015796Y0042173D01*
G01X0015817Y0042144D01*
G01X0015842Y0042117D01*
G01X0015867Y0042092D01*
G01X0015894Y0042067D01*
G01X0015923Y0042046D01*
G01X0016021Y0041980D01*
G01X0016053Y0041959D01*
G01X0016088Y0041944D01*
G01X0016123Y0041928D01*
G01X0016196Y0041907D01*
G01X0016309Y0041886D01*
G01X0016382Y0041878D01*
G01X0016617Y0041878D01*
G01X0016690Y0041886D01*
G01X0016803Y0041907D01*
G01X0016876Y0041928D01*
G01X0016911Y0041944D01*
G01X0016946Y0041959D01*
G01X0016978Y0041980D01*
G01X0017076Y0042046D01*
G01X0017105Y0042067D01*
G01X0017115Y0042078D01*
G01X0017476Y0042078D01*
G01X0017503Y0042080D01*
G01X0017555Y0042088D01*
G01X0017582Y0042094D01*
G01X0018036Y0042202D01*
G01X0018130Y0042144D01*
G01X0018288Y0042084D01*
G01X0018457Y0042059D01*
G01X0018628Y0042067D01*
G01X0018792Y0042109D01*
G01X0018946Y0042186D01*
G01X0019080Y0042290D01*
G01X0019192Y0042417D01*
G01X0019273Y0042567D01*
G01X0019323Y0042730D01*
G01X0019342Y0042900D01*
G01X0019323Y0043069D01*
G01X0019273Y0043232D01*
G01X0019192Y0043382D01*
G01X0019080Y0043509D01*
G01X0018946Y0043613D01*
G01X0018792Y0043690D01*
G01X0018628Y0043732D01*
G01X0018457Y0043740D01*
G01X0018288Y0043715D01*
G01X0018130Y0043655D01*
G01X0017984Y0043565D01*
G01X0017861Y0043448D01*
G01X0017767Y0043311D01*
G01X0017386Y0043221D01*
G01X0017221Y0043221D01*
G01X0017269Y0043292D01*
G01X0017290Y0043323D01*
G01X0017305Y0043357D01*
G01X0017321Y0043394D01*
G01X0017342Y0043465D01*
G01X0017363Y0043580D01*
G01X0017371Y0043652D01*
G01X0017371Y0043688D01*
G01X0017363Y0043759D01*
G01X0017342Y0043873D01*
G01X0017321Y0043946D01*
G01X0017305Y0043982D01*
G01X0017290Y0044015D01*
G01X0017269Y0044048D01*
G01X0017203Y0044146D01*
G01X0017182Y0044176D01*
G01X0017157Y0044202D01*
G01X0017132Y0044228D01*
G01X0017105Y0044252D01*
G01X0017076Y0044273D01*
G01X0017071Y0044276D01*
G01X0017071Y0044284D01*
G01X0017080Y0044290D01*
G01X0017192Y0044417D01*
G01X0017273Y0044567D01*
G01X0017323Y0044730D01*
G01X0017342Y0044900D01*
G01X0017323Y0045069D01*
G01X0017296Y0045157D01*
G01X0018084Y0045157D01*
G01X0018094Y0045148D01*
G01X0018123Y0045126D01*
G01X0018221Y0045059D01*
G01X0018253Y0045040D01*
G01X0018288Y0045023D01*
G01X0018323Y0045007D01*
G01X0018396Y0044988D01*
G01X0018509Y0044965D01*
G01X0018582Y0044957D01*
G01X0018817Y0044957D01*
G01X0018890Y0044965D01*
G01X0019003Y0044988D01*
G01X0019076Y0045007D01*
G01X0019111Y0045023D01*
G01X0019146Y0045040D01*
G01X0019178Y0045059D01*
G01X0019276Y0045126D01*
G01X0019305Y0045148D01*
G01X0019315Y0045157D01*
G01X0019898Y0045157D01*
G01X0019896Y0045152D01*
G01X0019861Y0044986D01*
G01X0019861Y0044813D01*
G01X0019896Y0044648D01*
G01X0019963Y0044492D01*
G01X0020061Y0044352D01*
G01X0020128Y0044288D01*
G01X0020128Y0044276D01*
G01X0020123Y0044273D01*
G01X0020094Y0044252D01*
G01X0020067Y0044228D01*
G01X0020042Y0044202D01*
G01X0020017Y0044176D01*
G01X0019996Y0044146D01*
G01X0019930Y0044048D01*
G01X0019909Y0044015D01*
G01X0019894Y0043982D01*
G01X0019878Y0043946D01*
G01X0019857Y0043873D01*
G01X0019836Y0043759D01*
G01X0019828Y0043688D01*
G01X0019828Y0043652D01*
G01X0019836Y0043580D01*
G01X0019857Y0043465D01*
G01X0019878Y0043394D01*
G01X0019894Y0043357D01*
G01X0019909Y0043323D01*
G01X0019930Y0043292D01*
G01X0019996Y0043194D01*
G01X0020017Y0043163D01*
G01X0020021Y0043159D01*
G01X0020017Y0043155D01*
G01X0019996Y0043126D01*
G01X0019930Y0043028D01*
G01X0019909Y0042996D01*
G01X0019894Y0042961D01*
G01X0019878Y0042926D01*
G01X0019857Y0042854D01*
G01X0019836Y0042740D01*
G01X0019828Y0042667D01*
G01X0019828Y0042632D01*
G01X0019836Y0042559D01*
G01X0019857Y0042446D01*
G01X0019878Y0042373D01*
G01X0019894Y0042338D01*
G01X0019909Y0042304D01*
G01X0019930Y0042271D01*
G01X0019996Y0042173D01*
G01X0020017Y0042144D01*
G01X0020042Y0042117D01*
G01X0020067Y0042092D01*
G01X0020094Y0042067D01*
G01X0020123Y0042046D01*
G01X0020221Y0041980D01*
G01X0020253Y0041959D01*
G01X0020288Y0041944D01*
G01X0020323Y0041928D01*
G01X0020396Y0041907D01*
G01X0020509Y0041886D01*
G01X0020582Y0041878D01*
G01X0020817Y0041878D01*
G01X0020890Y0041886D01*
G01X0021003Y0041907D01*
G01X0021076Y0041928D01*
G01X0021111Y0041944D01*
G01X0021146Y0041959D01*
G01X0021178Y0041980D01*
G01X0021276Y0042046D01*
G01X0021305Y0042067D01*
G01X0021321Y0042082D01*
G01X0021361Y0042090D01*
G01X0022007Y0042219D01*
G01X0022130Y0042144D01*
G01X0022288Y0042084D01*
G01X0022457Y0042059D01*
G01X0022628Y0042067D01*
G01X0022792Y0042109D01*
G01X0022946Y0042186D01*
G01X0023080Y0042290D01*
G01X0023192Y0042417D01*
G01X0023273Y0042567D01*
G01X0023323Y0042730D01*
G01X0023342Y0042900D01*
G01X0023323Y0043069D01*
G01X0023273Y0043232D01*
G01X0023192Y0043382D01*
G01X0023080Y0043509D01*
G01X0022946Y0043613D01*
G01X0022792Y0043690D01*
G01X0022628Y0043732D01*
G01X0022457Y0043740D01*
G01X0022288Y0043715D01*
G01X0022130Y0043655D01*
G01X0021984Y0043565D01*
G01X0021861Y0043448D01*
G01X0021786Y0043340D01*
G01X0021457Y0043273D01*
G01X0021469Y0043292D01*
G01X0021490Y0043323D01*
G01X0021505Y0043357D01*
G01X0021521Y0043394D01*
G01X0021542Y0043465D01*
G01X0021563Y0043580D01*
G01X0021571Y0043652D01*
G01X0021571Y0043688D01*
G01X0021563Y0043759D01*
G01X0021542Y0043873D01*
G01X0021521Y0043946D01*
G01X0021505Y0043982D01*
G01X0021490Y0044015D01*
G01X0021469Y0044048D01*
G01X0021403Y0044146D01*
G01X0021382Y0044176D01*
G01X0021357Y0044202D01*
G01X0021332Y0044228D01*
G01X0021305Y0044252D01*
G01X0021276Y0044273D01*
G01X0021271Y0044276D01*
G01X0021271Y0044284D01*
G01X0021280Y0044290D01*
G01X0021392Y0044417D01*
G01X0021473Y0044567D01*
G01X0021523Y0044730D01*
G01X0021542Y0044900D01*
G01X0021523Y0045069D01*
G01X0021496Y0045157D01*
G01X0022184Y0045157D01*
G01X0022194Y0045148D01*
G01X0022223Y0045126D01*
G01X0022321Y0045059D01*
G01X0022353Y0045040D01*
G01X0022388Y0045023D01*
G01X0022423Y0045007D01*
G01X0022496Y0044988D01*
G01X0022609Y0044965D01*
G01X0022682Y0044957D01*
G01X0022917Y0044957D01*
G01X0022990Y0044965D01*
G01X0023103Y0044988D01*
G01X0023176Y0045007D01*
G01X0023211Y0045023D01*
G01X0023246Y0045040D01*
G01X0023278Y0045059D01*
G01X0023376Y0045126D01*
G01X0023405Y0045148D01*
G01X0023415Y0045157D01*
G01X0023898Y0045157D01*
G01X0023896Y0045152D01*
G01X0023861Y0044986D01*
G01X0023861Y0044813D01*
G01X0023896Y0044648D01*
G01X0023963Y0044492D01*
G01X0024061Y0044352D01*
G01X0024128Y0044288D01*
G01X0024128Y0044276D01*
G01X0024123Y0044273D01*
G01X0024094Y0044252D01*
G01X0024067Y0044228D01*
G01X0024042Y0044202D01*
G01X0024017Y0044176D01*
G01X0023996Y0044146D01*
G01X0023930Y0044048D01*
G01X0023909Y0044015D01*
G01X0023894Y0043982D01*
G01X0023878Y0043946D01*
G01X0023857Y0043873D01*
G01X0023836Y0043759D01*
G01X0023828Y0043688D01*
G01X0023828Y0043652D01*
G01X0023836Y0043580D01*
G01X0023857Y0043465D01*
G01X0023878Y0043394D01*
G01X0023894Y0043357D01*
G01X0023909Y0043323D01*
G01X0023930Y0043292D01*
G01X0023996Y0043194D01*
G01X0024017Y0043163D01*
G01X0024021Y0043159D01*
G01X0024017Y0043155D01*
G01X0023996Y0043126D01*
G01X0023930Y0043028D01*
G01X0023909Y0042996D01*
G01X0023894Y0042961D01*
G01X0023878Y0042926D01*
G01X0023857Y0042854D01*
G01X0023836Y0042740D01*
G01X0023828Y0042667D01*
G01X0023828Y0042632D01*
G01X0023836Y0042559D01*
G01X0023857Y0042446D01*
G01X0023878Y0042373D01*
G01X0023894Y0042338D01*
G01X0023909Y0042304D01*
G01X0023930Y0042271D01*
G01X0023996Y0042173D01*
G01X0024017Y0042144D01*
G01X0024042Y0042117D01*
G01X0024067Y0042092D01*
G01X0024094Y0042067D01*
G01X0024123Y0042046D01*
G01X0024221Y0041980D01*
G01X0024253Y0041959D01*
G01X0024288Y0041944D01*
G01X0024323Y0041928D01*
G01X0024396Y0041907D01*
G01X0024509Y0041886D01*
G01X0024582Y0041878D01*
G01X0024817Y0041878D01*
G01X0024890Y0041886D01*
G01X0025003Y0041907D01*
G01X0025076Y0041928D01*
G01X0025111Y0041944D01*
G01X0025146Y0041959D01*
G01X0025178Y0041980D01*
G01X0025276Y0042046D01*
G01X0025305Y0042067D01*
G01X0025321Y0042082D01*
G01X0025361Y0042090D01*
G01X0026007Y0042219D01*
G01X0026130Y0042144D01*
G01X0026288Y0042084D01*
G01X0026457Y0042059D01*
G01X0026628Y0042067D01*
G01X0026792Y0042109D01*
G01X0026946Y0042186D01*
G01X0027080Y0042290D01*
G01X0027192Y0042417D01*
G01X0027273Y0042567D01*
G01X0027323Y0042730D01*
G01X0027342Y0042900D01*
G01X0027323Y0043069D01*
G01X0027273Y0043232D01*
G01X0027192Y0043382D01*
G01X0027080Y0043509D01*
G01X0026946Y0043613D01*
G01X0026792Y0043690D01*
G01X0026628Y0043732D01*
G01X0026457Y0043740D01*
G01X0026288Y0043715D01*
G01X0026130Y0043655D01*
G01X0025984Y0043565D01*
G01X0025861Y0043448D01*
G01X0025786Y0043340D01*
G01X0025457Y0043273D01*
G01X0025469Y0043292D01*
G01X0025490Y0043323D01*
G01X0025505Y0043357D01*
G01X0025521Y0043394D01*
G01X0025542Y0043465D01*
G01X0025563Y0043580D01*
G01X0025571Y0043652D01*
G01X0025571Y0043688D01*
G01X0025563Y0043759D01*
G01X0025542Y0043873D01*
G01X0025521Y0043946D01*
G01X0025505Y0043982D01*
G01X0025490Y0044015D01*
G01X0025469Y0044048D01*
G01X0025403Y0044146D01*
G01X0025382Y0044176D01*
G01X0025357Y0044202D01*
G01X0025332Y0044228D01*
G01X0025305Y0044252D01*
G01X0025276Y0044273D01*
G01X0025271Y0044276D01*
G01X0025271Y0044284D01*
G01X0025280Y0044290D01*
G01X0025392Y0044417D01*
G01X0025473Y0044567D01*
G01X0025523Y0044730D01*
G01X0025542Y0044900D01*
G01X0025523Y0045069D01*
G01X0025496Y0045157D01*
G01X0026284Y0045157D01*
G01X0026294Y0045148D01*
G01X0026323Y0045126D01*
G01X0026421Y0045059D01*
G01X0026453Y0045040D01*
G01X0026488Y0045023D01*
G01X0026523Y0045007D01*
G01X0026596Y0044988D01*
G01X0026709Y0044965D01*
G01X0026782Y0044957D01*
G01X0027017Y0044957D01*
G01X0027090Y0044965D01*
G01X0027203Y0044988D01*
G01X0027276Y0045007D01*
G01X0027311Y0045023D01*
G01X0027346Y0045040D01*
G01X0027378Y0045059D01*
G01X0027476Y0045126D01*
G01X0027505Y0045148D01*
G01X0027515Y0045157D01*
G01X0028098Y0045157D01*
G01X0028096Y0045152D01*
G01X0028061Y0044986D01*
G01X0028061Y0044813D01*
G01X0028096Y0044648D01*
G01X0028163Y0044492D01*
G01X0028261Y0044352D01*
G01X0028328Y0044288D01*
G01X0028328Y0044276D01*
G01X0028323Y0044273D01*
G01X0028294Y0044252D01*
G01X0028267Y0044228D01*
G01X0028242Y0044202D01*
G01X0028217Y0044176D01*
G01X0028196Y0044146D01*
G01X0028130Y0044048D01*
G01X0028109Y0044015D01*
G01X0028094Y0043982D01*
G01X0028078Y0043946D01*
G01X0028057Y0043873D01*
G01X0028036Y0043759D01*
G01X0028028Y0043688D01*
G01X0028028Y0043652D01*
G01X0028036Y0043580D01*
G01X0028057Y0043465D01*
G01X0028078Y0043394D01*
G01X0028094Y0043357D01*
G01X0028109Y0043323D01*
G01X0028130Y0043292D01*
G01X0028196Y0043194D01*
G01X0028217Y0043163D01*
G01X0028221Y0043159D01*
G01X0028217Y0043155D01*
G01X0028196Y0043126D01*
G01X0028130Y0043028D01*
G01X0028109Y0042996D01*
G01X0028094Y0042961D01*
G01X0028078Y0042926D01*
G01X0028057Y0042854D01*
G01X0028036Y0042740D01*
G01X0028028Y0042667D01*
G01X0028028Y0042632D01*
G01X0028036Y0042559D01*
G01X0028057Y0042446D01*
G01X0028078Y0042373D01*
G01X0028094Y0042338D01*
G01X0028109Y0042304D01*
G01X0028130Y0042271D01*
G01X0028196Y0042173D01*
G01X0028217Y0042144D01*
G01X0028242Y0042117D01*
G01X0028267Y0042092D01*
G01X0028294Y0042067D01*
G01X0028323Y0042046D01*
G01X0028421Y0041980D01*
G01X0028453Y0041959D01*
G01X0028488Y0041944D01*
G01X0028523Y0041928D01*
G01X0028596Y0041907D01*
G01X0028709Y0041886D01*
G01X0028782Y0041878D01*
G01X0029017Y0041878D01*
G01X0029090Y0041886D01*
G01X0029203Y0041907D01*
G01X0029276Y0041928D01*
G01X0029311Y0041944D01*
G01X0029346Y0041959D01*
G01X0029378Y0041980D01*
G01X0029476Y0042046D01*
G01X0029505Y0042067D01*
G01X0029523Y0042084D01*
G01X0029540Y0042086D01*
G01X0029626Y0042105D01*
G01X0029709Y0042140D01*
G01X0029786Y0042188D01*
G01X0029853Y0042246D01*
G01X0029911Y0042304D01*
G01X0029984Y0042234D01*
G01X0030130Y0042144D01*
G01X0030288Y0042084D01*
G01X0030457Y0042059D01*
G01X0030628Y0042067D01*
G01X0030792Y0042109D01*
G01X0030946Y0042186D01*
G01X0031080Y0042290D01*
G01X0031192Y0042417D01*
G01X0031273Y0042567D01*
G01X0031323Y0042730D01*
G01X0031342Y0042900D01*
G01X0031323Y0043069D01*
G01X0031273Y0043232D01*
G01X0031192Y0043382D01*
G01X0031080Y0043509D01*
G01X0030946Y0043613D01*
G01X0030792Y0043690D01*
G01X0030628Y0043732D01*
G01X0030457Y0043740D01*
G01X0030288Y0043715D01*
G01X0030130Y0043655D01*
G01X0029984Y0043565D01*
G01X0029886Y0043471D01*
G01X0029744Y0043471D01*
G01X0029763Y0043580D01*
G01X0029771Y0043652D01*
G01X0029771Y0043688D01*
G01X0029763Y0043759D01*
G01X0029742Y0043873D01*
G01X0029721Y0043946D01*
G01X0029705Y0043982D01*
G01X0029690Y0044015D01*
G01X0029669Y0044048D01*
G01X0029603Y0044146D01*
G01X0029582Y0044176D01*
G01X0029557Y0044202D01*
G01X0029532Y0044228D01*
G01X0029505Y0044252D01*
G01X0029476Y0044273D01*
G01X0029471Y0044276D01*
G01X0029471Y0044284D01*
G01X0029480Y0044290D01*
G01X0029592Y0044417D01*
G01X0029673Y0044567D01*
G01X0029723Y0044730D01*
G01X0029742Y0044900D01*
G01X0029723Y0045069D01*
G01X0029696Y0045157D01*
G01X0030484Y0045157D01*
G01X0030494Y0045148D01*
G01X0030523Y0045126D01*
G01X0030621Y0045059D01*
G01X0030653Y0045040D01*
G01X0030688Y0045023D01*
G01X0030723Y0045007D01*
G01X0030796Y0044988D01*
G01X0030909Y0044965D01*
G01X0030982Y0044957D01*
G01X0031217Y0044957D01*
G01X0031290Y0044965D01*
G01X0031403Y0044988D01*
G01X0031476Y0045007D01*
G01X0031511Y0045023D01*
G01X0031546Y0045040D01*
G01X0031578Y0045059D01*
G01X0031676Y0045126D01*
G01X0031705Y0045148D01*
G01X0031732Y0045171D01*
G01X0031757Y0045198D01*
G01X0031782Y0045223D01*
G01X0031803Y0045254D01*
G01X0031869Y0045352D01*
G01X0031890Y0045384D01*
G01X0031905Y0045417D01*
G01X0031921Y0045454D01*
G01X0031942Y0045526D01*
G01X0031963Y0045640D01*
G01X0031971Y0045711D01*
G01X0031971Y0045748D01*
G01X0031963Y0045819D01*
G01X0031942Y0045934D01*
G01X0031921Y0046005D01*
G01X0031905Y0046042D01*
G01X0031890Y0046076D01*
G01X0031869Y0046107D01*
G01X0031803Y0046205D01*
G01X0031782Y0046236D01*
G01X0031778Y0046240D01*
G01X0031782Y0046244D01*
G01X0031803Y0046273D01*
G01X0031869Y0046371D01*
G01X0031890Y0046404D01*
G01X0031905Y0046438D01*
G01X0031921Y0046473D01*
G01X0031942Y0046546D01*
G01X0031963Y0046659D01*
G01X0031971Y0046732D01*
G01X0031971Y0046767D01*
G01X0031963Y0046840D01*
G01X0031942Y0046954D01*
G01X0031921Y0047026D01*
G01X0031905Y0047061D01*
G01X0031890Y0047096D01*
G01X0031869Y0047128D01*
G01X0031803Y0047226D01*
G01X0031782Y0047255D01*
G01X0031778Y0047259D01*
G01X0031782Y0047263D01*
G01X0031803Y0047294D01*
G01X0031869Y0047392D01*
G01X0031890Y0047423D01*
G01X0031905Y0047457D01*
G01X0031921Y0047494D01*
G01X0031942Y0047565D01*
G01X0031963Y0047680D01*
G01X0031971Y0047752D01*
G01X0031971Y0047788D01*
G01X0031963Y0047859D01*
G01X0031942Y0047973D01*
G01X0031921Y0048046D01*
G01X0031905Y0048082D01*
G01X0031890Y0048115D01*
G01X0031869Y0048148D01*
G01X0031803Y0048246D01*
G01X0031782Y0048276D01*
G01X0031757Y0048302D01*
G01X0031721Y0048338D01*
G01X0031792Y0048417D01*
G01X0031873Y0048567D01*
G01X0031923Y0048730D01*
G01X0031942Y0048900D01*
G01X0031923Y0049069D01*
G01X0031873Y0049232D01*
G01X0031792Y0049382D01*
G01X0031680Y0049509D01*
G01X0031546Y0049613D01*
G01X0031392Y0049690D01*
G01X0031228Y0049732D01*
G01X0031057Y0049740D01*
G01X0030888Y0049715D01*
G01X0030730Y0049655D01*
G01X0030584Y0049565D01*
G01X0030461Y0049448D01*
G01X0030363Y0049307D01*
G01X0030296Y0049152D01*
G01X0030261Y0048986D01*
G01X0030261Y0048813D01*
G01X0030296Y0048648D01*
G01X0030363Y0048492D01*
G01X0030461Y0048352D01*
G01X0030478Y0048336D01*
G01X0030467Y0048328D01*
G01X0030442Y0048302D01*
G01X0030417Y0048276D01*
G01X0030396Y0048246D01*
G01X0030330Y0048148D01*
G01X0030309Y0048115D01*
G01X0030294Y0048082D01*
G01X0030278Y0048046D01*
G01X0030257Y0047973D01*
G01X0030236Y0047859D01*
G01X0030228Y0047788D01*
G01X0030228Y0047752D01*
G01X0030236Y0047680D01*
G01X0030257Y0047565D01*
G01X0030278Y0047494D01*
G01X0030294Y0047457D01*
G01X0030309Y0047423D01*
G01X0030330Y0047392D01*
G01X0030378Y0047321D01*
G01X0030286Y0047321D01*
G01X0029738Y0047869D01*
G01X0029742Y0047900D01*
G01X0029723Y0048069D01*
G01X0029673Y0048232D01*
G01X0029592Y0048382D01*
G01X0029480Y0048509D01*
G01X0029346Y0048613D01*
G01X0029192Y0048690D01*
G01X0029028Y0048732D01*
G01X0028923Y0048736D01*
G01X0028942Y0048900D01*
G01X0028923Y0049069D01*
G01X0028873Y0049232D01*
G01X0028792Y0049382D01*
G01X0028680Y0049509D01*
G01X0028671Y0049515D01*
G01X0028671Y0050400D01*
G01X0028663Y0050490D01*
G01X0028644Y0050576D01*
G01X0028609Y0050659D01*
G01X0028561Y0050736D01*
G01X0028503Y0050804D01*
G01X0026880Y0052428D01*
G01X0030563Y0052428D01*
G01X0032328Y0050663D01*
G01X0032328Y0048376D01*
G01X0032323Y0048373D01*
G01X0032294Y0048352D01*
G01X0032267Y0048328D01*
G01X0032242Y0048302D01*
G01X0032217Y0048276D01*
G01X0032196Y0048246D01*
G01X0032130Y0048148D01*
G01X0032109Y0048115D01*
G01X0032094Y0048082D01*
G01X0032078Y0048046D01*
G01X0032057Y0047973D01*
G01X0032036Y0047859D01*
G01X0032028Y0047788D01*
G01X0032028Y0047752D01*
G01X0032036Y0047680D01*
G01X0032057Y0047565D01*
G01X0032078Y0047494D01*
G01X0032094Y0047457D01*
G01X0032109Y0047423D01*
G01X0032130Y0047392D01*
G01X0032196Y0047294D01*
G01X0032217Y0047263D01*
G01X0032221Y0047259D01*
G01X0032217Y0047255D01*
G01X0032196Y0047226D01*
G01X0032130Y0047128D01*
G01X0032109Y0047096D01*
G01X0032094Y0047061D01*
G01X0032078Y0047026D01*
G01X0032057Y0046954D01*
G01X0032036Y0046840D01*
G01X0032028Y0046767D01*
G01X0032028Y0046732D01*
G01X0032036Y0046659D01*
G01X0032057Y0046546D01*
G01X0032078Y0046473D01*
G01X0032094Y0046438D01*
G01X0032109Y0046404D01*
G01X0032130Y0046371D01*
G01X0032196Y0046273D01*
G01X0032217Y0046244D01*
G01X0032242Y0046217D01*
G01X0032267Y0046192D01*
G01X0032294Y0046167D01*
G01X0032323Y0046146D01*
G01X0032421Y0046080D01*
G01X0032453Y0046059D01*
G01X0032488Y0046044D01*
G01X0032523Y0046028D01*
G01X0032596Y0046007D01*
G01X0032709Y0045986D01*
G01X0032782Y0045978D01*
G01X0033017Y0045978D01*
G01X0033090Y0045986D01*
G01X0033204Y0046007D01*
G01X0033276Y0046028D01*
G01X0033311Y0046044D01*
G01X0033336Y0046055D01*
G01X0033428Y0045963D01*
G01X0033428Y0041136D01*
G01X0033328Y0041036D01*
G01X0033257Y0041040D01*
G01X0033088Y0041015D01*
G01X0032930Y0040955D01*
G01X0032784Y0040865D01*
G01X0032661Y0040748D01*
G01X0032563Y0040607D01*
G01X0032496Y0040452D01*
G01X0032461Y0040286D01*
G01X0032461Y0040113D01*
G01X0032496Y0039948D01*
G01X0032563Y0039792D01*
G01X0032661Y0039652D01*
G01X0032784Y0039534D01*
G01X0032930Y0039444D01*
G01X0033088Y0039384D01*
G01X0033257Y0039359D01*
G01X0033428Y0039367D01*
G01X0033592Y0039409D01*
G01X0033746Y0039486D01*
G01X0033880Y0039590D01*
G01X0033992Y0039717D01*
G01X0034073Y0039867D01*
G01X0034123Y0040030D01*
G01X0034142Y0040200D01*
G01X0034138Y0040230D01*
G01X0034327Y0040419D01*
G01X0034327Y0039676D01*
G01X0034319Y0039669D01*
G01X0034292Y0039650D01*
G01X0034239Y0039602D01*
G01X0034196Y0039546D01*
G01X0034130Y0039448D01*
G01X0034110Y0039415D01*
G01X0034093Y0039382D01*
G01X0034077Y0039346D01*
G01X0034057Y0039273D01*
G01X0034035Y0039159D01*
G01X0034027Y0039088D01*
G01X0034027Y0039052D01*
G01X0034035Y0038980D01*
G01X0034057Y0038865D01*
G01X0034077Y0038794D01*
G01X0034093Y0038757D01*
G01X0034110Y0038723D01*
G01X0034130Y0038692D01*
G01X0034196Y0038594D01*
G01X0034211Y0038573D01*
G01X0034180Y0038609D01*
G01X0034046Y0038713D01*
G01X0033892Y0038790D01*
G01X0033727Y0038832D01*
G01X0033557Y0038840D01*
G01X0033388Y0038815D01*
G01X0033230Y0038755D01*
G01X0033084Y0038665D01*
G01X0032961Y0038548D01*
G01X0032863Y0038407D01*
G01X0032796Y0038252D01*
G01X0032761Y0038086D01*
G01X0032761Y0037913D01*
G01X0032796Y0037748D01*
G01X0032863Y0037592D01*
G01X0032961Y0037452D01*
G01X0033084Y0037334D01*
G01X0033230Y0037244D01*
G01X0033388Y0037184D01*
G01X0033557Y0037159D01*
G01X0033727Y0037167D01*
G01X0033892Y0037209D01*
G01X0034046Y0037286D01*
G01X0034180Y0037390D01*
G01X0034214Y0037428D01*
G01X0034352Y0037428D01*
G01X0034415Y0037384D01*
G01X0034450Y0037361D01*
G01X0034484Y0037344D01*
G01X0034519Y0037330D01*
G01X0034557Y0037317D01*
G01X0034596Y0037307D01*
G01X0034711Y0037286D01*
G01X0034730Y0037284D01*
G01X0034747Y0037280D01*
G01X0034764Y0037280D01*
G01X0034781Y0037278D01*
G01X0035018Y0037278D01*
G01X0035089Y0037286D01*
G01X0035204Y0037307D01*
G01X0035276Y0037328D01*
G01X0035311Y0037344D01*
G01X0035346Y0037359D01*
G01X0035377Y0037380D01*
G01X0035476Y0037446D01*
G01X0035506Y0037467D01*
G01X0035531Y0037492D01*
G01X0035557Y0037517D01*
G01X0035581Y0037544D01*
G01X0035604Y0037573D01*
G01X0035669Y0037671D01*
G01X0035689Y0037704D01*
G01X0035706Y0037738D01*
G01X0035722Y0037773D01*
G01X0035727Y0037796D01*
G01X0035727Y0036871D01*
G01X0029380Y0036871D01*
G01X0029936Y0037428D01*
G01X0029986Y0037428D01*
G01X0030084Y0037334D01*
G01X0030230Y0037244D01*
G01X0030388Y0037184D01*
G01X0030557Y0037159D01*
G01X0030728Y0037167D01*
G01X0030892Y0037209D01*
G01X0031046Y0037286D01*
G01X0031180Y0037390D01*
G01X0031292Y0037517D01*
G01X0031373Y0037667D01*
G01X0031423Y0037830D01*
G01X0031442Y0038000D01*
G01X0031423Y0038169D01*
G01X0031373Y0038332D01*
G01X0031292Y0038482D01*
G01X0031180Y0038609D01*
G01X0031046Y0038713D01*
G01X0030892Y0038790D01*
G01X0030728Y0038832D01*
G01X0030557Y0038840D01*
G01X0030388Y0038815D01*
G01X0030230Y0038755D01*
G01X0030084Y0038665D01*
G01X0029986Y0038571D01*
G01X0029836Y0038571D01*
G01X0030409Y0039065D01*
G01X0030457Y0039059D01*
G01X0030628Y0039067D01*
G01X0030792Y0039109D01*
G01X0030946Y0039186D01*
G01X0031080Y0039290D01*
G01X0031192Y0039417D01*
G01X0031273Y0039567D01*
G01X0031323Y0039730D01*
G01X0031342Y0039900D01*
G01X0031323Y0040069D01*
G01X0031273Y0040232D01*
G01X0031192Y0040382D01*
G01X0031080Y0040509D01*
G01X0030946Y0040613D01*
G01X0030792Y0040690D01*
G01X0030628Y0040732D01*
G01X0030457Y0040740D01*
G01X0030288Y0040715D01*
G01X0030130Y0040655D01*
G01X0029984Y0040565D01*
G01X0029861Y0040448D01*
G01X0029763Y0040307D01*
G01X0029696Y0040152D01*
G01X0029661Y0039986D01*
G01X0029661Y0039934D01*
G01X0026686Y0037371D01*
G01X0023876Y0037371D01*
G01X0026323Y0039078D01*
G01X0026457Y0039059D01*
G01X0026628Y0039067D01*
G01X0026792Y0039109D01*
G01X0026946Y0039186D01*
G01X0027080Y0039290D01*
G01X0027192Y0039417D01*
G01X0027273Y0039567D01*
G01X0027323Y0039730D01*
G01X0027342Y0039900D01*
G01X0027323Y0040069D01*
G01X0027273Y0040232D01*
G01X0027192Y0040382D01*
G01X0027080Y0040509D01*
G01X0026946Y0040613D01*
G01X0026792Y0040690D01*
G01X0026628Y0040732D01*
G01X0026457Y0040740D01*
G01X0026288Y0040715D01*
G01X0026130Y0040655D01*
G01X0025984Y0040565D01*
G01X0025861Y0040448D01*
G01X0025763Y0040307D01*
G01X0025696Y0040152D01*
G01X0025667Y0040019D01*
G01X0023017Y0038171D01*
G01X0020786Y0038171D01*
G01X0022276Y0039088D01*
G01X0022288Y0039084D01*
G01X0022457Y0039059D01*
G01X0022628Y0039067D01*
G01X0022792Y0039109D01*
G01X0022946Y0039186D01*
G01X0023080Y0039290D01*
G01X0023192Y0039417D01*
G01X0023273Y0039567D01*
G01X0023323Y0039730D01*
G01X0023342Y0039900D01*
G01X0023323Y0040069D01*
G01X0023273Y0040232D01*
G01X0023192Y0040382D01*
G01X0023080Y0040509D01*
G01X0022946Y0040613D01*
G01X0022792Y0040690D01*
G01X0022628Y0040732D01*
G01X0022457Y0040740D01*
G01X0022288Y0040715D01*
G01X0022130Y0040655D01*
G01X0021984Y0040565D01*
G01X0021861Y0040448D01*
G01X0021763Y0040307D01*
G01X0021696Y0040152D01*
G01X0021678Y0040067D01*
G01X0019736Y0038871D01*
G01X0017782Y0038871D01*
G01X0018226Y0039107D01*
G01X0018288Y0039084D01*
G01X0018457Y0039059D01*
G01X0018628Y0039067D01*
G01X0018792Y0039109D01*
G01X0018946Y0039186D01*
G01X0019080Y0039290D01*
G01X0019192Y0039417D01*
G01X0019273Y0039567D01*
G01X0019323Y0039730D01*
G01X0019342Y0039900D01*
G01X0019323Y0040069D01*
G01X0019273Y0040232D01*
G01X0019192Y0040382D01*
G01X0019080Y0040509D01*
G01X0018946Y0040613D01*
G01X0018792Y0040690D01*
G01X0018628Y0040732D01*
G01X0018457Y0040740D01*
G01X0018288Y0040715D01*
G01X0018130Y0040655D01*
G01X0017984Y0040565D01*
G01X0017861Y0040448D01*
G01X0017763Y0040307D01*
G01X0017696Y0040152D01*
G01X0017690Y0040117D01*
G01X0016655Y0039571D01*
G01X0015276Y0039571D01*
G01X0015323Y0039730D01*
G01X0015342Y0039900D01*
G01X0015323Y0040069D01*
G01X0015273Y0040232D01*
G01X0015192Y0040382D01*
G01X0015080Y0040509D01*
G01X0014946Y0040613D01*
G01X0014792Y0040690D01*
G01X0014628Y0040732D01*
G01X0014457Y0040740D01*
G01X0014288Y0040715D01*
G01X0014130Y0040655D01*
G01X0013984Y0040565D01*
G01X0013886Y0040471D01*
G01X0012700Y0040471D01*
G01X0012609Y0040463D01*
G01X0012523Y0040444D01*
G01X0012440Y0040409D01*
G01X0012363Y0040361D01*
G01X0012296Y0040304D01*
G01X0009896Y0037904D01*
G01X0009871Y0037876D01*
G01X0009871Y0038184D01*
G01X0009880Y0038190D01*
G01X0009992Y0038317D01*
G01X0010073Y0038467D01*
G01X0010123Y0038630D01*
G01X0010142Y0038800D01*
G01X0010123Y0038969D01*
G01X0010073Y0039132D01*
G01X0009992Y0039282D01*
G01X0009880Y0039409D01*
G01X0009746Y0039513D01*
G01X0009592Y0039590D01*
G01X0009428Y0039632D01*
G01X0009257Y0039640D01*
G01X0009088Y0039615D01*
G01X0008930Y0039555D01*
G01X0008784Y0039465D01*
G01X0008661Y0039348D01*
G01X0008563Y0039207D01*
G01X0008496Y0039052D01*
G01X0008461Y0038886D01*
G01X0008461Y0038713D01*
G01X0008496Y0038548D01*
G01X0008563Y0038392D01*
G01X0008661Y0038252D01*
G01X0008728Y0038188D01*
G01X0008728Y0038076D01*
G01X0008703Y0038104D01*
G01X0007603Y0039204D01*
G01X0007536Y0039261D01*
G01X0007459Y0039309D01*
G01X0007376Y0039344D01*
G01X0007290Y0039363D01*
G01X0007200Y0039371D01*
G01X0006413Y0039371D01*
G01X0006380Y0039409D01*
G01X0006246Y0039513D01*
G01X0006092Y0039590D01*
G01X0005928Y0039632D01*
G01X0005757Y0039640D01*
G01X0005588Y0039615D01*
G01X0005430Y0039555D01*
G01X0005284Y0039465D01*
G01X0005161Y0039348D01*
G01X0005063Y0039207D01*
G01X0004996Y0039052D01*
G01X0004961Y0038886D01*
G01X0004961Y0038713D01*
G01X0004996Y0038548D01*
G01X0005030Y0038471D01*
G01X0004936Y0038471D01*
G01X0004203Y0039204D01*
G01X0004136Y0039261D01*
G01X0004059Y0039309D01*
G01X0003976Y0039344D01*
G01X0003890Y0039363D01*
G01X0003800Y0039371D01*
G01X0003513Y0039371D01*
G01X0003480Y0039409D01*
G01X0003346Y0039513D01*
G01X0003192Y0039590D01*
G01X0003028Y0039632D01*
G01X0002857Y0039640D01*
G01X0002688Y0039615D01*
G01X0002530Y0039555D01*
G01X0002384Y0039465D01*
G01X0002261Y0039348D01*
G01X0002163Y0039207D01*
G01X0002096Y0039052D01*
G01X0002061Y0038886D01*
G01X0002061Y0038713D01*
G01X0002096Y0038548D01*
G01X0002163Y0038392D01*
G01X0002261Y0038252D01*
G01X0002384Y0038134D01*
G01X0002530Y0038044D01*
G01X0002688Y0037984D01*
G01X0002857Y0037959D01*
G01X0003028Y0037967D01*
G01X0003192Y0038009D01*
G01X0003346Y0038086D01*
G01X0003480Y0038190D01*
G01X0003513Y0038228D01*
G01X0003563Y0038228D01*
G01X0004165Y0037626D01*
G01X0004088Y0037615D01*
G01X0003930Y0037555D01*
G01X0003798Y0037473D01*
G01X0003746Y0037513D01*
G01X0003592Y0037590D01*
G01X0003428Y0037632D01*
G01X0003257Y0037640D01*
G01X0003088Y0037615D01*
G01X0002930Y0037555D01*
G01X0002784Y0037465D01*
G01X0002661Y0037348D01*
G01X0002563Y0037207D01*
G01X0002519Y0037107D01*
G01X0002428Y0037132D01*
G01X0002257Y0037140D01*
G01X0002088Y0037115D01*
G01X0001930Y0037055D01*
G01X0001784Y0036965D01*
G01X0001661Y0036848D01*
G01X0001563Y0036707D01*
G01X0001496Y0036552D01*
G01X0001461Y0036386D01*
G01X0001461Y0036213D01*
G01X0001496Y0036048D01*
G01X0001563Y0035892D01*
G01X0001628Y0035800D01*
G01X0001563Y0035707D01*
G01X0001496Y0035552D01*
G01X0001461Y0035386D01*
G01X0001461Y0035213D01*
G01X0001496Y0035048D01*
G01X0001563Y0034892D01*
G01X0001628Y0034800D01*
G01X0001563Y0034707D01*
G01X0001496Y0034552D01*
G01X0001461Y0034386D01*
G01X0001461Y0034213D01*
G01X0001496Y0034048D01*
G01X0001563Y0033892D01*
G01X0001628Y0033800D01*
G01X0001563Y0033707D01*
G01X0001496Y0033552D01*
G01X0001461Y0033386D01*
G01X0001461Y0033213D01*
G01X0001496Y0033048D01*
G01X0001563Y0032892D01*
G01X0001628Y0032800D01*
G01X0001563Y0032707D01*
G01X0001496Y0032552D01*
G01X0001461Y0032386D01*
G01X0001461Y0032213D01*
G01X0001496Y0032048D01*
G01X0001563Y0031892D01*
G01X0001628Y0031800D01*
G01X0001563Y0031707D01*
G01X0001496Y0031552D01*
G01X0001461Y0031386D01*
G01X0001461Y0031213D01*
G01X0001496Y0031048D01*
G01X0001563Y0030892D01*
G01X0001661Y0030752D01*
G01X0001784Y0030634D01*
G01X0001930Y0030544D01*
G01X0002088Y0030484D01*
G01X0002257Y0030459D01*
G01X0002428Y0030467D01*
G01X0002519Y0030492D01*
G01X0002563Y0030392D01*
G01X0002661Y0030252D01*
G01X0002784Y0030134D01*
G01X0002930Y0030044D01*
G01X0003088Y0029984D01*
G01X0003257Y0029959D01*
G01X0003428Y0029967D01*
G01X0003592Y0030009D01*
G01X0003746Y0030086D01*
G01X0003880Y0030190D01*
G01X0003992Y0030317D01*
G01X0004073Y0030467D01*
G01X0004123Y0030630D01*
G01X0004142Y0030800D01*
G01X0004123Y0030969D01*
G01X0004073Y0031132D01*
G01X0003992Y0031282D01*
G01X0003880Y0031409D01*
G01X0003746Y0031513D01*
G01X0003592Y0031590D01*
G01X0003428Y0031632D01*
G01X0003257Y0031640D01*
G01X0003088Y0031615D01*
G01X0003080Y0031611D01*
G01X0003073Y0031632D01*
G01X0002992Y0031782D01*
G01X0002976Y0031800D01*
G01X0002992Y0031817D01*
G01X0003073Y0031967D01*
G01X0003123Y0032130D01*
G01X0003142Y0032300D01*
G01X0003123Y0032469D01*
G01X0003073Y0032632D01*
G01X0002992Y0032782D01*
G01X0002976Y0032800D01*
G01X0002992Y0032817D01*
G01X0003073Y0032967D01*
G01X0003123Y0033130D01*
G01X0003142Y0033300D01*
G01X0003123Y0033469D01*
G01X0003073Y0033632D01*
G01X0002992Y0033782D01*
G01X0002976Y0033800D01*
G01X0002992Y0033817D01*
G01X0003073Y0033967D01*
G01X0003123Y0034130D01*
G01X0003142Y0034300D01*
G01X0003123Y0034469D01*
G01X0003073Y0034632D01*
G01X0002992Y0034782D01*
G01X0002976Y0034800D01*
G01X0002992Y0034817D01*
G01X0003073Y0034967D01*
G01X0003123Y0035130D01*
G01X0003142Y0035300D01*
G01X0003123Y0035469D01*
G01X0003073Y0035632D01*
G01X0002992Y0035782D01*
G01X0002976Y0035800D01*
G01X0002992Y0035817D01*
G01X0003073Y0035967D01*
G01X0003080Y0035988D01*
G01X0003088Y0035984D01*
G01X0003257Y0035959D01*
G01X0003428Y0035967D01*
G01X0003592Y0036009D01*
G01X0003746Y0036086D01*
G01X0003798Y0036126D01*
G01X0003930Y0036044D01*
G01X0004088Y0035984D01*
G01X0004257Y0035959D01*
G01X0004428Y0035967D01*
G01X0004592Y0036009D01*
G01X0004746Y0036086D01*
G01X0004798Y0036126D01*
G01X0004930Y0036044D01*
G01X0005088Y0035984D01*
G01X0005257Y0035959D01*
G01X0005428Y0035967D01*
G01X0005592Y0036009D01*
G01X0005746Y0036086D01*
G01X0005798Y0036126D01*
G01X0005930Y0036044D01*
G01X0006088Y0035984D01*
G01X0006257Y0035959D01*
G01X0006428Y0035967D01*
G01X0006592Y0036009D01*
G01X0006746Y0036086D01*
G01X0006798Y0036126D01*
G01X0006930Y0036044D01*
G01X0007088Y0035984D01*
G01X0007257Y0035959D01*
G01X0007428Y0035967D01*
G01X0007592Y0036009D01*
G01X0007746Y0036086D01*
G01X0007798Y0036126D01*
G01X0007930Y0036044D01*
G01X0008088Y0035984D01*
G01X0008257Y0035959D01*
G01X0008428Y0035967D01*
G01X0008592Y0036009D01*
G01X0008746Y0036086D01*
G01X0008798Y0036126D01*
G01X0008930Y0036044D01*
G01X0009088Y0035984D01*
G01X0009257Y0035959D01*
G01X0009428Y0035967D01*
G01X0009592Y0036009D01*
G01X0009746Y0036086D01*
G01X0009798Y0036126D01*
G01X0009930Y0036044D01*
G01X0010088Y0035984D01*
G01X0010257Y0035959D01*
G01X0010428Y0035967D01*
G01X0010592Y0036009D01*
G01X0010746Y0036086D01*
G01X0010798Y0036126D01*
G01X0010930Y0036044D01*
G01X0011088Y0035984D01*
G01X0011257Y0035959D01*
G01X0011428Y0035967D01*
G01X0011592Y0036009D01*
G01X0011746Y0036086D01*
G01X0011798Y0036126D01*
G01X0011930Y0036044D01*
G01X0012088Y0035984D01*
G01X0012257Y0035959D01*
G01X0012428Y0035967D01*
G01X0012592Y0036009D01*
G01X0012746Y0036086D01*
G01X0012798Y0036126D01*
G01X0012930Y0036044D01*
G01X0013088Y0035984D01*
G01X0013257Y0035959D01*
G01X0013428Y0035967D01*
G01X0013592Y0036009D01*
G01X0013746Y0036086D01*
G01X0013798Y0036126D01*
G01X0013930Y0036044D01*
G01X0014088Y0035984D01*
G01X0014257Y0035959D01*
G01X0014428Y0035967D01*
G01X0014592Y0036009D01*
G01X0014746Y0036086D01*
G01X0014880Y0036190D01*
G01X0014913Y0036228D01*
G01X0015119Y0036228D01*
G01X0010896Y0032003D01*
G01X0010838Y0031936D01*
G01X0010790Y0031859D01*
G01X0010755Y0031776D01*
G01X0010736Y0031690D01*
G01X0010728Y0031600D01*
G01X0010728Y0031521D01*
G01X0010592Y0031590D01*
G01X0010428Y0031632D01*
G01X0010257Y0031640D01*
G01X0010088Y0031615D01*
G01X0009930Y0031555D01*
G01X0009798Y0031473D01*
G01X0009746Y0031513D01*
G01X0009592Y0031590D01*
G01X0009428Y0031632D01*
G01X0009257Y0031640D01*
G01X0009088Y0031615D01*
G01X0008930Y0031555D01*
G01X0008798Y0031473D01*
G01X0008746Y0031513D01*
G01X0008592Y0031590D01*
G01X0008428Y0031632D01*
G01X0008257Y0031640D01*
G01X0008088Y0031615D01*
G01X0007930Y0031555D01*
G01X0007798Y0031473D01*
G01X0007746Y0031513D01*
G01X0007592Y0031590D01*
G01X0007428Y0031632D01*
G01X0007257Y0031640D01*
G01X0007088Y0031615D01*
G01X0006930Y0031555D01*
G01X0006798Y0031473D01*
G01X0006746Y0031513D01*
G01X0006592Y0031590D01*
G01X0006428Y0031632D01*
G01X0006257Y0031640D01*
G01X0006088Y0031615D01*
G01X0005930Y0031555D01*
G01X0005798Y0031473D01*
G01X0005746Y0031513D01*
G01X0005592Y0031590D01*
G01X0005428Y0031632D01*
G01X0005257Y0031640D01*
G01X0005088Y0031615D01*
G01X0004930Y0031555D01*
G01X0004784Y0031465D01*
G01X0004661Y0031348D01*
G01X0004563Y0031207D01*
G01X0004496Y0031052D01*
G01X0004461Y0030886D01*
G01X0004461Y0030713D01*
G01X0004496Y0030548D01*
G01X0004563Y0030392D01*
G01X0004661Y0030252D01*
G01X0004784Y0030134D01*
G01X0004930Y0030044D01*
G01X0005088Y0029984D01*
G01X0005257Y0029959D01*
G01X0005428Y0029967D01*
G01X0005592Y0030009D01*
G01X0005742Y0030084D01*
G01X0005755Y0030023D01*
G01X0005790Y0029940D01*
G01X0005838Y0029863D01*
G01X0005896Y0029796D01*
G01X0006596Y0029096D01*
G01X0006663Y0029038D01*
G01X0006740Y0028990D01*
G01X0006823Y0028955D01*
G01X0006909Y0028936D01*
G01X0007000Y0028928D01*
G01X0014500Y0028928D01*
G01X0014590Y0028936D01*
G01X0014676Y0028955D01*
G01X0014759Y0028990D01*
G01X0014836Y0029038D01*
G01X0014903Y0029096D01*
G01X0015828Y0030019D01*
G01X0015828Y0029200D01*
G01X0015851Y0029053D01*
G01X0015917Y0028921D01*
G01X0016021Y0028817D01*
G01X0016119Y0028769D01*
G37*
G36*
G01X0007717Y0030071D02*
G01X0007746Y0030086D01*
G01X0007798Y0030126D01*
G01X0007884Y0030071D01*
G01X0007717Y0030071D01*
G37*
G36*
G01X0008717Y0030071D02*
G01X0008746Y0030086D01*
G01X0008798Y0030126D01*
G01X0008884Y0030071D01*
G01X0008717Y0030071D01*
G37*
G36*
G01X0009717Y0030071D02*
G01X0009746Y0030086D01*
G01X0009798Y0030126D01*
G01X0009884Y0030071D01*
G01X0009717Y0030071D01*
G37*
G36*
G01X0010717Y0030071D02*
G01X0010746Y0030086D01*
G01X0010798Y0030126D01*
G01X0010884Y0030071D01*
G01X0010717Y0030071D01*
G37*
G36*
G01X0011717Y0030071D02*
G01X0011746Y0030086D01*
G01X0011798Y0030126D01*
G01X0011884Y0030071D01*
G01X0011717Y0030071D01*
G37*
G36*
G01X0012717Y0030071D02*
G01X0012746Y0030086D01*
G01X0012798Y0030126D01*
G01X0012884Y0030071D01*
G01X0012717Y0030071D01*
G37*
G36*
G01X0013717Y0030071D02*
G01X0013746Y0030086D01*
G01X0013798Y0030126D01*
G01X0013884Y0030071D01*
G01X0013717Y0030071D01*
G37*
G36*
G01X0015780Y0033971D02*
G01X0016436Y0034628D01*
G01X0017928Y0034628D01*
G01X0017928Y0033971D01*
G01X0015780Y0033971D01*
G37*
G36*
G01X0035600Y0034244D02*
G01X0035515Y0034328D01*
G01X0035684Y0034328D01*
G01X0035600Y0034244D01*
G37*
G36*
G01X0038900Y0034282D02*
G01X0038877Y0034334D01*
G01X0038772Y0034471D01*
G01X0038657Y0034559D01*
G01X0038661Y0034563D01*
G01X0038743Y0034723D01*
G01X0038772Y0034900D01*
G01X0038772Y0051800D01*
G01X0038764Y0051890D01*
G01X0038743Y0051976D01*
G01X0038710Y0052059D01*
G01X0038661Y0052136D01*
G01X0038604Y0052204D01*
G01X0038219Y0052588D01*
G01X0038277Y0052617D01*
G01X0038381Y0052721D01*
G01X0038447Y0052854D01*
G01X0038472Y0053000D01*
G01X0038472Y0054400D01*
G01X0038447Y0054546D01*
G01X0038381Y0054678D01*
G01X0038277Y0054782D01*
G01X0038146Y0054848D01*
G01X0038000Y0054871D01*
G01X0037000Y0054871D01*
G01X0036900Y0054855D01*
G01X0036800Y0054871D01*
G01X0035800Y0054871D01*
G01X0035654Y0054848D01*
G01X0035522Y0054782D01*
G01X0035418Y0054678D01*
G01X0035352Y0054546D01*
G01X0035327Y0054400D01*
G01X0035327Y0054169D01*
G01X0035235Y0054261D01*
G01X0035076Y0054344D01*
G01X0034900Y0054371D01*
G01X0010600Y0054371D01*
G01X0010592Y0054388D01*
G01X0010488Y0054492D01*
G01X0010355Y0054557D01*
G01X0010209Y0054582D01*
G01X0009590Y0054582D01*
G01X0009444Y0054557D01*
G01X0009311Y0054492D01*
G01X0009296Y0054476D01*
G01X0009292Y0054478D01*
G01X0009142Y0054544D01*
G01X0008982Y0054578D01*
G01X0008817Y0054578D01*
G01X0008657Y0054544D01*
G01X0008507Y0054478D01*
G01X0008400Y0054400D01*
G01X0008292Y0054478D01*
G01X0008142Y0054544D01*
G01X0007982Y0054578D01*
G01X0007817Y0054578D01*
G01X0007657Y0054544D01*
G01X0007507Y0054478D01*
G01X0007400Y0054400D01*
G01X0007292Y0054478D01*
G01X0007142Y0054544D01*
G01X0006982Y0054578D01*
G01X0006817Y0054578D01*
G01X0006657Y0054544D01*
G01X0006507Y0054478D01*
G01X0006400Y0054400D01*
G01X0006292Y0054478D01*
G01X0006142Y0054544D01*
G01X0005982Y0054578D01*
G01X0005817Y0054578D01*
G01X0005657Y0054544D01*
G01X0005507Y0054478D01*
G01X0005400Y0054400D01*
G01X0005292Y0054478D01*
G01X0005142Y0054544D01*
G01X0004982Y0054578D01*
G01X0004817Y0054578D01*
G01X0004657Y0054544D01*
G01X0004507Y0054478D01*
G01X0004400Y0054400D01*
G01X0004292Y0054478D01*
G01X0004142Y0054544D01*
G01X0003982Y0054578D01*
G01X0003817Y0054578D01*
G01X0003657Y0054544D01*
G01X0003507Y0054478D01*
G01X0003400Y0054400D01*
G01X0003292Y0054478D01*
G01X0003142Y0054544D01*
G01X0002982Y0054578D01*
G01X0002817Y0054578D01*
G01X0002657Y0054544D01*
G01X0002507Y0054478D01*
G01X0002400Y0054400D01*
G01X0002292Y0054478D01*
G01X0002142Y0054544D01*
G01X0001982Y0054578D01*
G01X0001817Y0054578D01*
G01X0001657Y0054544D01*
G01X0001507Y0054478D01*
G01X0001400Y0054400D01*
G01X0001292Y0054478D01*
G01X0001142Y0054544D01*
G01X0000982Y0054578D01*
G01X0000817Y0054578D01*
G01X0000657Y0054544D01*
G01X0000507Y0054478D01*
G01X0000376Y0054382D01*
G01X0000267Y0054259D01*
G01X0000186Y0054117D01*
G01X0000136Y0053961D01*
G01X0000117Y0053800D01*
G01X0000136Y0053638D01*
G01X0000186Y0053482D01*
G01X0000267Y0053340D01*
G01X0000328Y0053271D01*
G01X0000328Y0052011D01*
G01X0000261Y0051948D01*
G01X0000163Y0051807D01*
G01X0000096Y0051652D01*
G01X0000061Y0051486D01*
G01X0000061Y0051313D01*
G01X0000096Y0051148D01*
G01X0000163Y0050992D01*
G01X0000261Y0050852D01*
G01X0000384Y0050734D01*
G01X0000530Y0050644D01*
G01X0000688Y0050584D01*
G01X0000857Y0050559D01*
G01X0001028Y0050567D01*
G01X0001192Y0050609D01*
G01X0001328Y0050678D01*
G01X0001328Y0049121D01*
G01X0001192Y0049190D01*
G01X0001028Y0049232D01*
G01X0000857Y0049240D01*
G01X0000688Y0049215D01*
G01X0000530Y0049155D01*
G01X0000384Y0049065D01*
G01X0000261Y0048948D01*
G01X0000163Y0048807D01*
G01X0000096Y0048652D01*
G01X0000061Y0048486D01*
G01X0000061Y0048313D01*
G01X0000096Y0048148D01*
G01X0000163Y0047992D01*
G01X0000261Y0047852D01*
G01X0000328Y0047788D01*
G01X0000328Y0047600D01*
G01X0000355Y0047423D01*
G01X0000438Y0047263D01*
G01X0000563Y0047138D01*
G01X0000680Y0047078D01*
G01X0000661Y0046986D01*
G01X0000661Y0046813D01*
G01X0000696Y0046648D01*
G01X0000763Y0046492D01*
G01X0000861Y0046352D01*
G01X0000984Y0046234D01*
G01X0001130Y0046144D01*
G01X0001288Y0046084D01*
G01X0001457Y0046059D01*
G01X0001628Y0046067D01*
G01X0001698Y0046086D01*
G01X0002242Y0045730D01*
G01X0002253Y0045667D01*
G01X0000500Y0045667D01*
G01X0000328Y0045646D01*
G01X0000165Y0045578D01*
G01X0000028Y0045471D01*
G01X0000000Y0045436D01*
G01X0000000Y0055400D01*
G01X0038900Y0055400D01*
G01X0038900Y0034282D01*
G37*
G36*
G01X0028815Y0034842D02*
G01X0028805Y0034852D01*
G01X0028776Y0034873D01*
G01X0028678Y0034940D01*
G01X0028659Y0034952D01*
G01X0029332Y0035623D01*
G01X0029328Y0035600D01*
G01X0029328Y0035417D01*
G01X0029257Y0035352D01*
G01X0029159Y0035209D01*
G01X0029092Y0035054D01*
G01X0029057Y0034886D01*
G01X0029057Y0034842D01*
G01X0028815Y0034842D01*
G37*
G36*
G01X0035727Y0038305D02*
G01X0035722Y0038326D01*
G01X0035706Y0038361D01*
G01X0035689Y0038396D01*
G01X0035669Y0038428D01*
G01X0035604Y0038526D01*
G01X0035581Y0038555D01*
G01X0035577Y0038559D01*
G01X0035581Y0038563D01*
G01X0035604Y0038594D01*
G01X0035669Y0038692D01*
G01X0035689Y0038723D01*
G01X0035706Y0038757D01*
G01X0035722Y0038794D01*
G01X0035727Y0038815D01*
G01X0035727Y0038305D01*
G37*
G36*
G01X0035727Y0039323D02*
G01X0035722Y0039346D01*
G01X0035706Y0039382D01*
G01X0035689Y0039415D01*
G01X0035669Y0039448D01*
G01X0035604Y0039546D01*
G01X0035581Y0039576D01*
G01X0035557Y0039602D01*
G01X0035531Y0039628D01*
G01X0035506Y0039652D01*
G01X0035476Y0039673D01*
G01X0035472Y0039676D01*
G01X0035472Y0040069D01*
G01X0035496Y0039948D01*
G01X0035564Y0039792D01*
G01X0035661Y0039652D01*
G01X0035727Y0039588D01*
G01X0035727Y0039323D01*
G37*
G36*
G01X0035472Y0040338D02*
G01X0035472Y0052667D01*
G01X0035522Y0052617D01*
G01X0035654Y0052552D01*
G01X0035800Y0052528D01*
G01X0035827Y0052528D01*
G01X0035827Y0052400D01*
G01X0035835Y0052309D01*
G01X0035856Y0052223D01*
G01X0035889Y0052140D01*
G01X0035938Y0052063D01*
G01X0035996Y0051996D01*
G01X0036727Y0051263D01*
G01X0036727Y0040921D01*
G01X0036592Y0040990D01*
G01X0036427Y0041032D01*
G01X0036257Y0041040D01*
G01X0036088Y0041015D01*
G01X0035930Y0040955D01*
G01X0035784Y0040865D01*
G01X0035661Y0040748D01*
G01X0035564Y0040607D01*
G01X0035496Y0040452D01*
G01X0035472Y0040338D01*
G37*
G36*
G01X0006638Y0041846D02*
G01X0006623Y0041969D01*
G01X0006573Y0042132D01*
G01X0006492Y0042282D01*
G01X0006380Y0042409D01*
G01X0006246Y0042513D01*
G01X0006092Y0042590D01*
G01X0005928Y0042632D01*
G01X0005757Y0042640D01*
G01X0005588Y0042615D01*
G01X0005430Y0042555D01*
G01X0005284Y0042465D01*
G01X0005161Y0042348D01*
G01X0005144Y0042321D01*
G01X0005021Y0042321D01*
G01X0005069Y0042392D01*
G01X0005090Y0042423D01*
G01X0005105Y0042457D01*
G01X0005121Y0042494D01*
G01X0005142Y0042565D01*
G01X0005163Y0042680D01*
G01X0005171Y0042752D01*
G01X0005171Y0042788D01*
G01X0005163Y0042859D01*
G01X0005142Y0042973D01*
G01X0005121Y0043046D01*
G01X0005105Y0043082D01*
G01X0005090Y0043115D01*
G01X0005069Y0043148D01*
G01X0005003Y0043246D01*
G01X0004982Y0043276D01*
G01X0004957Y0043302D01*
G01X0004921Y0043338D01*
G01X0004992Y0043417D01*
G01X0005073Y0043567D01*
G01X0005123Y0043730D01*
G01X0005142Y0043900D01*
G01X0005123Y0044069D01*
G01X0005073Y0044232D01*
G01X0005059Y0044257D01*
G01X0005284Y0044257D01*
G01X0005294Y0044248D01*
G01X0005323Y0044226D01*
G01X0005421Y0044159D01*
G01X0005453Y0044140D01*
G01X0005488Y0044123D01*
G01X0005523Y0044107D01*
G01X0005596Y0044088D01*
G01X0005709Y0044065D01*
G01X0005782Y0044057D01*
G01X0006017Y0044057D01*
G01X0006090Y0044065D01*
G01X0006203Y0044088D01*
G01X0006276Y0044107D01*
G01X0006311Y0044123D01*
G01X0006346Y0044140D01*
G01X0006378Y0044159D01*
G01X0006476Y0044226D01*
G01X0006505Y0044248D01*
G01X0006515Y0044257D01*
G01X0006742Y0044257D01*
G01X0006696Y0044152D01*
G01X0006661Y0043986D01*
G01X0006661Y0043813D01*
G01X0006696Y0043648D01*
G01X0006763Y0043492D01*
G01X0006861Y0043352D01*
G01X0006878Y0043336D01*
G01X0006867Y0043328D01*
G01X0006842Y0043302D01*
G01X0006817Y0043276D01*
G01X0006796Y0043246D01*
G01X0006730Y0043148D01*
G01X0006709Y0043115D01*
G01X0006694Y0043082D01*
G01X0006678Y0043046D01*
G01X0006657Y0042973D01*
G01X0006636Y0042859D01*
G01X0006628Y0042788D01*
G01X0006628Y0042752D01*
G01X0006636Y0042680D01*
G01X0006657Y0042565D01*
G01X0006678Y0042494D01*
G01X0006694Y0042457D01*
G01X0006709Y0042423D01*
G01X0006730Y0042392D01*
G01X0006796Y0042294D01*
G01X0006817Y0042263D01*
G01X0006821Y0042259D01*
G01X0006817Y0042255D01*
G01X0006796Y0042226D01*
G01X0006730Y0042128D01*
G01X0006709Y0042096D01*
G01X0006694Y0042061D01*
G01X0006678Y0042026D01*
G01X0006657Y0041954D01*
G01X0006638Y0041846D01*
G37*
G36*
G01X0003611Y0042246D02*
G01X0003592Y0042282D01*
G01X0003480Y0042409D01*
G01X0003346Y0042513D01*
G01X0003192Y0042590D01*
G01X0003028Y0042632D01*
G01X0002857Y0042640D01*
G01X0002688Y0042615D01*
G01X0002530Y0042555D01*
G01X0002384Y0042465D01*
G01X0002263Y0042350D01*
G01X0002242Y0042350D01*
G01X0002269Y0042392D01*
G01X0002290Y0042423D01*
G01X0002305Y0042457D01*
G01X0002321Y0042494D01*
G01X0002342Y0042565D01*
G01X0002363Y0042680D01*
G01X0002371Y0042752D01*
G01X0002371Y0042788D01*
G01X0002363Y0042859D01*
G01X0002342Y0042973D01*
G01X0002321Y0043046D01*
G01X0002305Y0043082D01*
G01X0002290Y0043115D01*
G01X0002269Y0043148D01*
G01X0002203Y0043246D01*
G01X0002182Y0043276D01*
G01X0002157Y0043302D01*
G01X0002121Y0043338D01*
G01X0002192Y0043417D01*
G01X0002273Y0043567D01*
G01X0002323Y0043730D01*
G01X0002342Y0043900D01*
G01X0002323Y0044069D01*
G01X0002273Y0044232D01*
G01X0002219Y0044332D01*
G01X0002411Y0044332D01*
G01X0002417Y0044323D01*
G01X0002442Y0044298D01*
G01X0002467Y0044271D01*
G01X0002494Y0044248D01*
G01X0002523Y0044226D01*
G01X0002621Y0044159D01*
G01X0002653Y0044140D01*
G01X0002688Y0044123D01*
G01X0002723Y0044107D01*
G01X0002796Y0044088D01*
G01X0002909Y0044065D01*
G01X0002982Y0044057D01*
G01X0003217Y0044057D01*
G01X0003290Y0044065D01*
G01X0003403Y0044088D01*
G01X0003476Y0044107D01*
G01X0003488Y0044113D01*
G01X0003461Y0043986D01*
G01X0003461Y0043813D01*
G01X0003496Y0043648D01*
G01X0003563Y0043492D01*
G01X0003661Y0043352D01*
G01X0003678Y0043336D01*
G01X0003667Y0043328D01*
G01X0003642Y0043302D01*
G01X0003617Y0043276D01*
G01X0003596Y0043246D01*
G01X0003530Y0043148D01*
G01X0003509Y0043115D01*
G01X0003494Y0043082D01*
G01X0003478Y0043046D01*
G01X0003457Y0042973D01*
G01X0003436Y0042859D01*
G01X0003428Y0042788D01*
G01X0003428Y0042752D01*
G01X0003436Y0042680D01*
G01X0003457Y0042565D01*
G01X0003478Y0042494D01*
G01X0003494Y0042457D01*
G01X0003509Y0042423D01*
G01X0003530Y0042392D01*
G01X0003596Y0042294D01*
G01X0003617Y0042263D01*
G01X0003621Y0042259D01*
G01X0003617Y0042255D01*
G01X0003611Y0042246D01*
G37*
G36*
G01X0006621Y0045402D02*
G01X0006669Y0045471D01*
G01X0006690Y0045504D01*
G01X0006705Y0045538D01*
G01X0006721Y0045573D01*
G01X0006742Y0045646D01*
G01X0006763Y0045759D01*
G01X0006771Y0045832D01*
G01X0006771Y0045867D01*
G01X0006763Y0045940D01*
G01X0006742Y0046054D01*
G01X0006721Y0046126D01*
G01X0006705Y0046161D01*
G01X0006690Y0046196D01*
G01X0006669Y0046228D01*
G01X0006603Y0046326D01*
G01X0006582Y0046355D01*
G01X0006578Y0046359D01*
G01X0006582Y0046363D01*
G01X0006603Y0046394D01*
G01X0006669Y0046492D01*
G01X0006690Y0046523D01*
G01X0006705Y0046557D01*
G01X0006719Y0046592D01*
G01X0006763Y0046492D01*
G01X0006861Y0046352D01*
G01X0006984Y0046234D01*
G01X0007130Y0046144D01*
G01X0007288Y0046084D01*
G01X0007457Y0046059D01*
G01X0007628Y0046067D01*
G01X0007721Y0046092D01*
G01X0008346Y0045705D01*
G01X0008357Y0045646D01*
G01X0008378Y0045573D01*
G01X0008394Y0045538D01*
G01X0008409Y0045504D01*
G01X0008430Y0045471D01*
G01X0008478Y0045402D01*
G01X0006621Y0045402D01*
G37*
G36*
G01X0003821Y0045402D02*
G01X0003869Y0045471D01*
G01X0003890Y0045504D01*
G01X0003905Y0045538D01*
G01X0003921Y0045573D01*
G01X0003942Y0045646D01*
G01X0003963Y0045759D01*
G01X0003971Y0045832D01*
G01X0003971Y0045867D01*
G01X0003963Y0045940D01*
G01X0003942Y0046054D01*
G01X0003921Y0046126D01*
G01X0003907Y0046157D01*
G01X0003930Y0046144D01*
G01X0004088Y0046084D01*
G01X0004257Y0046059D01*
G01X0004428Y0046067D01*
G01X0004498Y0046086D01*
G01X0005042Y0045730D01*
G01X0005057Y0045646D01*
G01X0005078Y0045573D01*
G01X0005094Y0045538D01*
G01X0005109Y0045504D01*
G01X0005130Y0045471D01*
G01X0005178Y0045402D01*
G01X0003821Y0045402D01*
G37*
G36*
G01X0010069Y0045884D02*
G01X0010063Y0045940D01*
G01X0010042Y0046054D01*
G01X0010021Y0046126D01*
G01X0010005Y0046161D01*
G01X0009990Y0046196D01*
G01X0009969Y0046228D01*
G01X0009903Y0046326D01*
G01X0009882Y0046355D01*
G01X0009878Y0046359D01*
G01X0009882Y0046363D01*
G01X0009903Y0046394D01*
G01X0009969Y0046492D01*
G01X0009990Y0046523D01*
G01X0010005Y0046557D01*
G01X0010021Y0046594D01*
G01X0010042Y0046665D01*
G01X0010063Y0046780D01*
G01X0010071Y0046852D01*
G01X0010071Y0046888D01*
G01X0010063Y0046959D01*
G01X0010042Y0047073D01*
G01X0010021Y0047146D01*
G01X0010005Y0047182D01*
G01X0009990Y0047215D01*
G01X0009969Y0047248D01*
G01X0009903Y0047346D01*
G01X0009882Y0047376D01*
G01X0009871Y0047386D01*
G01X0009871Y0047784D01*
G01X0009880Y0047790D01*
G01X0009992Y0047917D01*
G01X0010073Y0048067D01*
G01X0010123Y0048230D01*
G01X0010142Y0048400D01*
G01X0010123Y0048569D01*
G01X0010073Y0048732D01*
G01X0009992Y0048882D01*
G01X0009951Y0048928D01*
G01X0010761Y0048928D01*
G01X0010761Y0048813D01*
G01X0010796Y0048648D01*
G01X0010863Y0048492D01*
G01X0010961Y0048352D01*
G01X0011084Y0048234D01*
G01X0011230Y0048144D01*
G01X0011388Y0048084D01*
G01X0011557Y0048059D01*
G01X0011678Y0048065D01*
G01X0011661Y0047986D01*
G01X0011661Y0047813D01*
G01X0011696Y0047648D01*
G01X0011763Y0047492D01*
G01X0011861Y0047352D01*
G01X0011984Y0047234D01*
G01X0012130Y0047144D01*
G01X0012288Y0047084D01*
G01X0012457Y0047059D01*
G01X0012528Y0047063D01*
G01X0013246Y0046346D01*
G01X0013309Y0046292D01*
G01X0010996Y0046271D01*
G01X0010944Y0046269D01*
G01X0010894Y0046261D01*
G01X0010846Y0046250D01*
G01X0010798Y0046234D01*
G01X0010751Y0046213D01*
G01X0010069Y0045884D01*
G37*
G36*
G01X0027621Y0046302D02*
G01X0027669Y0046371D01*
G01X0027690Y0046404D01*
G01X0027705Y0046438D01*
G01X0027721Y0046473D01*
G01X0027742Y0046546D01*
G01X0027763Y0046659D01*
G01X0027771Y0046732D01*
G01X0027771Y0046767D01*
G01X0027763Y0046840D01*
G01X0027742Y0046954D01*
G01X0027721Y0047026D01*
G01X0027705Y0047061D01*
G01X0027690Y0047096D01*
G01X0027669Y0047128D01*
G01X0027603Y0047226D01*
G01X0027582Y0047255D01*
G01X0027578Y0047259D01*
G01X0027582Y0047263D01*
G01X0027603Y0047294D01*
G01X0027669Y0047392D01*
G01X0027690Y0047423D01*
G01X0027705Y0047457D01*
G01X0027721Y0047494D01*
G01X0027742Y0047565D01*
G01X0027763Y0047680D01*
G01X0027771Y0047752D01*
G01X0027771Y0047788D01*
G01X0027763Y0047859D01*
G01X0027742Y0047973D01*
G01X0027721Y0048046D01*
G01X0027705Y0048082D01*
G01X0027690Y0048115D01*
G01X0027669Y0048148D01*
G01X0027632Y0048204D01*
G01X0027730Y0048144D01*
G01X0027888Y0048084D01*
G01X0028057Y0048059D01*
G01X0028078Y0048059D01*
G01X0028061Y0047986D01*
G01X0028061Y0047813D01*
G01X0028096Y0047648D01*
G01X0028163Y0047492D01*
G01X0028261Y0047352D01*
G01X0028384Y0047234D01*
G01X0028530Y0047144D01*
G01X0028688Y0047084D01*
G01X0028857Y0047059D01*
G01X0028928Y0047063D01*
G01X0029646Y0046346D01*
G01X0029698Y0046302D01*
G01X0027621Y0046302D01*
G37*
G36*
G01X0023521Y0046302D02*
G01X0023569Y0046371D01*
G01X0023590Y0046404D01*
G01X0023605Y0046438D01*
G01X0023621Y0046473D01*
G01X0023642Y0046546D01*
G01X0023663Y0046659D01*
G01X0023671Y0046732D01*
G01X0023671Y0046767D01*
G01X0023663Y0046840D01*
G01X0023642Y0046954D01*
G01X0023621Y0047026D01*
G01X0023605Y0047061D01*
G01X0023590Y0047096D01*
G01X0023569Y0047128D01*
G01X0023503Y0047226D01*
G01X0023482Y0047255D01*
G01X0023478Y0047259D01*
G01X0023482Y0047263D01*
G01X0023503Y0047294D01*
G01X0023569Y0047392D01*
G01X0023590Y0047423D01*
G01X0023605Y0047457D01*
G01X0023621Y0047494D01*
G01X0023642Y0047565D01*
G01X0023663Y0047680D01*
G01X0023671Y0047752D01*
G01X0023671Y0047788D01*
G01X0023663Y0047859D01*
G01X0023642Y0047973D01*
G01X0023621Y0048046D01*
G01X0023605Y0048082D01*
G01X0023590Y0048115D01*
G01X0023586Y0048121D01*
G01X0023688Y0048084D01*
G01X0023857Y0048059D01*
G01X0023878Y0048059D01*
G01X0023861Y0047986D01*
G01X0023861Y0047813D01*
G01X0023896Y0047648D01*
G01X0023963Y0047492D01*
G01X0024061Y0047352D01*
G01X0024184Y0047234D01*
G01X0024330Y0047144D01*
G01X0024488Y0047084D01*
G01X0024657Y0047059D01*
G01X0024728Y0047063D01*
G01X0025446Y0046346D01*
G01X0025498Y0046302D01*
G01X0023521Y0046302D01*
G37*
G36*
G01X0019421Y0046302D02*
G01X0019469Y0046371D01*
G01X0019490Y0046404D01*
G01X0019505Y0046438D01*
G01X0019521Y0046473D01*
G01X0019542Y0046546D01*
G01X0019563Y0046659D01*
G01X0019571Y0046732D01*
G01X0019571Y0046767D01*
G01X0019563Y0046840D01*
G01X0019542Y0046954D01*
G01X0019521Y0047026D01*
G01X0019505Y0047061D01*
G01X0019490Y0047096D01*
G01X0019469Y0047128D01*
G01X0019403Y0047226D01*
G01X0019382Y0047255D01*
G01X0019378Y0047259D01*
G01X0019382Y0047263D01*
G01X0019403Y0047294D01*
G01X0019469Y0047392D01*
G01X0019490Y0047423D01*
G01X0019505Y0047457D01*
G01X0019521Y0047494D01*
G01X0019542Y0047565D01*
G01X0019563Y0047680D01*
G01X0019571Y0047752D01*
G01X0019571Y0047788D01*
G01X0019563Y0047859D01*
G01X0019542Y0047973D01*
G01X0019521Y0048046D01*
G01X0019505Y0048082D01*
G01X0019490Y0048115D01*
G01X0019486Y0048121D01*
G01X0019588Y0048084D01*
G01X0019757Y0048059D01*
G01X0019878Y0048065D01*
G01X0019861Y0047986D01*
G01X0019861Y0047813D01*
G01X0019896Y0047648D01*
G01X0019963Y0047492D01*
G01X0020061Y0047352D01*
G01X0020184Y0047234D01*
G01X0020330Y0047144D01*
G01X0020488Y0047084D01*
G01X0020657Y0047059D01*
G01X0020728Y0047063D01*
G01X0021446Y0046346D01*
G01X0021498Y0046302D01*
G01X0019421Y0046302D01*
G37*
G36*
G01X0015321Y0046302D02*
G01X0015369Y0046371D01*
G01X0015390Y0046404D01*
G01X0015405Y0046438D01*
G01X0015421Y0046473D01*
G01X0015442Y0046546D01*
G01X0015463Y0046659D01*
G01X0015471Y0046732D01*
G01X0015471Y0046767D01*
G01X0015463Y0046840D01*
G01X0015442Y0046954D01*
G01X0015421Y0047026D01*
G01X0015405Y0047061D01*
G01X0015390Y0047096D01*
G01X0015369Y0047128D01*
G01X0015303Y0047226D01*
G01X0015282Y0047255D01*
G01X0015278Y0047259D01*
G01X0015282Y0047263D01*
G01X0015303Y0047294D01*
G01X0015369Y0047392D01*
G01X0015390Y0047423D01*
G01X0015405Y0047457D01*
G01X0015421Y0047494D01*
G01X0015442Y0047565D01*
G01X0015463Y0047680D01*
G01X0015471Y0047752D01*
G01X0015471Y0047788D01*
G01X0015463Y0047859D01*
G01X0015442Y0047973D01*
G01X0015421Y0048046D01*
G01X0015405Y0048082D01*
G01X0015390Y0048115D01*
G01X0015386Y0048121D01*
G01X0015488Y0048084D01*
G01X0015657Y0048059D01*
G01X0015678Y0048059D01*
G01X0015661Y0047986D01*
G01X0015661Y0047813D01*
G01X0015696Y0047648D01*
G01X0015763Y0047492D01*
G01X0015861Y0047352D01*
G01X0015984Y0047234D01*
G01X0016130Y0047144D01*
G01X0016288Y0047084D01*
G01X0016457Y0047059D01*
G01X0016528Y0047063D01*
G01X0017246Y0046346D01*
G01X0017298Y0046302D01*
G01X0015321Y0046302D01*
G37*
G36*
G01X0034327Y0046680D02*
G01X0033854Y0047154D01*
G01X0033785Y0047211D01*
G01X0033710Y0047259D01*
G01X0033626Y0047294D01*
G01X0033605Y0047298D01*
G01X0033669Y0047392D01*
G01X0033690Y0047423D01*
G01X0033706Y0047457D01*
G01X0033722Y0047494D01*
G01X0033742Y0047565D01*
G01X0033764Y0047680D01*
G01X0033772Y0047752D01*
G01X0033772Y0047788D01*
G01X0033764Y0047859D01*
G01X0033742Y0047973D01*
G01X0033722Y0048046D01*
G01X0033706Y0048082D01*
G01X0033690Y0048115D01*
G01X0033669Y0048148D01*
G01X0033604Y0048246D01*
G01X0033582Y0048276D01*
G01X0033557Y0048302D01*
G01X0033532Y0048328D01*
G01X0033505Y0048352D01*
G01X0033476Y0048373D01*
G01X0033471Y0048376D01*
G01X0033471Y0050900D01*
G01X0033463Y0050990D01*
G01X0033444Y0051076D01*
G01X0033409Y0051159D01*
G01X0033361Y0051236D01*
G01X0033304Y0051304D01*
G01X0031380Y0053228D01*
G01X0034327Y0053228D01*
G01X0034327Y0046680D01*
G37*
G36*
G01X0008351Y0047044D02*
G01X0008323Y0047061D01*
G01X0008323Y0047069D01*
G01X0008273Y0047232D01*
G01X0008192Y0047382D01*
G01X0008080Y0047509D01*
G01X0007946Y0047613D01*
G01X0007792Y0047690D01*
G01X0007628Y0047732D01*
G01X0007457Y0047740D01*
G01X0007288Y0047715D01*
G01X0007130Y0047655D01*
G01X0006984Y0047565D01*
G01X0006861Y0047448D01*
G01X0006763Y0047307D01*
G01X0006707Y0047178D01*
G01X0006705Y0047182D01*
G01X0006690Y0047215D01*
G01X0006669Y0047248D01*
G01X0006603Y0047346D01*
G01X0006582Y0047376D01*
G01X0006557Y0047402D01*
G01X0006532Y0047428D01*
G01X0006505Y0047452D01*
G01X0006476Y0047473D01*
G01X0006378Y0047540D01*
G01X0006346Y0047559D01*
G01X0006338Y0047563D01*
G01X0006428Y0047567D01*
G01X0006592Y0047609D01*
G01X0006746Y0047686D01*
G01X0006880Y0047790D01*
G01X0006992Y0047917D01*
G01X0007073Y0048067D01*
G01X0007123Y0048230D01*
G01X0007142Y0048400D01*
G01X0007123Y0048569D01*
G01X0007073Y0048732D01*
G01X0006992Y0048882D01*
G01X0006880Y0049009D01*
G01X0006871Y0049015D01*
G01X0006871Y0049032D01*
G01X0006940Y0048990D01*
G01X0007023Y0048955D01*
G01X0007109Y0048936D01*
G01X0007200Y0048928D01*
G01X0008648Y0048928D01*
G01X0008563Y0048807D01*
G01X0008496Y0048652D01*
G01X0008461Y0048486D01*
G01X0008461Y0048313D01*
G01X0008496Y0048148D01*
G01X0008563Y0047992D01*
G01X0008661Y0047852D01*
G01X0008728Y0047788D01*
G01X0008728Y0047544D01*
G01X0008721Y0047540D01*
G01X0008623Y0047473D01*
G01X0008594Y0047452D01*
G01X0008567Y0047428D01*
G01X0008542Y0047402D01*
G01X0008517Y0047376D01*
G01X0008496Y0047346D01*
G01X0008430Y0047248D01*
G01X0008409Y0047215D01*
G01X0008394Y0047182D01*
G01X0008378Y0047146D01*
G01X0008357Y0047073D01*
G01X0008351Y0047044D01*
G37*
G36*
G01X0026086Y0047321D02*
G01X0025538Y0047869D01*
G01X0025542Y0047900D01*
G01X0025523Y0048069D01*
G01X0025473Y0048232D01*
G01X0025392Y0048382D01*
G01X0025280Y0048509D01*
G01X0025146Y0048613D01*
G01X0024992Y0048690D01*
G01X0024828Y0048732D01*
G01X0024723Y0048736D01*
G01X0024742Y0048900D01*
G01X0024723Y0049069D01*
G01X0024673Y0049232D01*
G01X0024592Y0049382D01*
G01X0024480Y0049509D01*
G01X0024471Y0049515D01*
G01X0024471Y0049900D01*
G01X0024463Y0049990D01*
G01X0024444Y0050076D01*
G01X0024409Y0050159D01*
G01X0024361Y0050236D01*
G01X0024303Y0050304D01*
G01X0022880Y0051728D01*
G01X0025963Y0051728D01*
G01X0027528Y0050163D01*
G01X0027528Y0049511D01*
G01X0027502Y0049486D01*
G01X0027480Y0049509D01*
G01X0027346Y0049613D01*
G01X0027192Y0049690D01*
G01X0027028Y0049732D01*
G01X0026857Y0049740D01*
G01X0026688Y0049715D01*
G01X0026530Y0049655D01*
G01X0026384Y0049565D01*
G01X0026261Y0049448D01*
G01X0026163Y0049307D01*
G01X0026096Y0049152D01*
G01X0026061Y0048986D01*
G01X0026061Y0048813D01*
G01X0026096Y0048648D01*
G01X0026163Y0048492D01*
G01X0026261Y0048352D01*
G01X0026278Y0048336D01*
G01X0026267Y0048328D01*
G01X0026242Y0048302D01*
G01X0026217Y0048276D01*
G01X0026196Y0048246D01*
G01X0026130Y0048148D01*
G01X0026109Y0048115D01*
G01X0026094Y0048082D01*
G01X0026078Y0048046D01*
G01X0026057Y0047973D01*
G01X0026036Y0047859D01*
G01X0026028Y0047788D01*
G01X0026028Y0047752D01*
G01X0026036Y0047680D01*
G01X0026057Y0047565D01*
G01X0026078Y0047494D01*
G01X0026094Y0047457D01*
G01X0026109Y0047423D01*
G01X0026130Y0047392D01*
G01X0026178Y0047321D01*
G01X0026086Y0047321D01*
G37*
G36*
G01X0017886Y0047321D02*
G01X0017338Y0047869D01*
G01X0017342Y0047900D01*
G01X0017323Y0048069D01*
G01X0017273Y0048232D01*
G01X0017192Y0048382D01*
G01X0017080Y0048509D01*
G01X0016946Y0048613D01*
G01X0016792Y0048690D01*
G01X0016628Y0048732D01*
G01X0016523Y0048736D01*
G01X0016542Y0048900D01*
G01X0016523Y0049069D01*
G01X0016473Y0049232D01*
G01X0016392Y0049382D01*
G01X0016280Y0049509D01*
G01X0016146Y0049613D01*
G01X0016061Y0049655D01*
G01X0015776Y0050228D01*
G01X0019228Y0050228D01*
G01X0019228Y0049550D01*
G01X0019146Y0049613D01*
G01X0018992Y0049690D01*
G01X0018828Y0049732D01*
G01X0018657Y0049740D01*
G01X0018488Y0049715D01*
G01X0018330Y0049655D01*
G01X0018184Y0049565D01*
G01X0018061Y0049448D01*
G01X0017963Y0049307D01*
G01X0017896Y0049152D01*
G01X0017861Y0048986D01*
G01X0017861Y0048813D01*
G01X0017896Y0048648D01*
G01X0017963Y0048492D01*
G01X0018061Y0048352D01*
G01X0018078Y0048336D01*
G01X0018067Y0048328D01*
G01X0018042Y0048302D01*
G01X0018017Y0048276D01*
G01X0017996Y0048246D01*
G01X0017930Y0048148D01*
G01X0017909Y0048115D01*
G01X0017894Y0048082D01*
G01X0017878Y0048046D01*
G01X0017857Y0047973D01*
G01X0017836Y0047859D01*
G01X0017828Y0047788D01*
G01X0017828Y0047752D01*
G01X0017836Y0047680D01*
G01X0017857Y0047565D01*
G01X0017878Y0047494D01*
G01X0017894Y0047457D01*
G01X0017909Y0047423D01*
G01X0017930Y0047392D01*
G01X0017978Y0047321D01*
G01X0017886Y0047321D01*
G37*
G36*
G01X0013855Y0047352D02*
G01X0013338Y0047869D01*
G01X0013342Y0047900D01*
G01X0013323Y0048069D01*
G01X0013273Y0048232D01*
G01X0013192Y0048382D01*
G01X0013080Y0048509D01*
G01X0012946Y0048613D01*
G01X0012792Y0048690D01*
G01X0012628Y0048732D01*
G01X0012457Y0048740D01*
G01X0012423Y0048736D01*
G01X0012442Y0048900D01*
G01X0012423Y0049069D01*
G01X0012373Y0049232D01*
G01X0012292Y0049382D01*
G01X0012180Y0049509D01*
G01X0012155Y0049528D01*
G01X0014044Y0049528D01*
G01X0013961Y0049448D01*
G01X0013863Y0049307D01*
G01X0013796Y0049152D01*
G01X0013761Y0048986D01*
G01X0013761Y0048813D01*
G01X0013796Y0048648D01*
G01X0013863Y0048492D01*
G01X0013961Y0048352D01*
G01X0013978Y0048336D01*
G01X0013967Y0048328D01*
G01X0013942Y0048302D01*
G01X0013917Y0048276D01*
G01X0013896Y0048246D01*
G01X0013830Y0048148D01*
G01X0013809Y0048115D01*
G01X0013794Y0048082D01*
G01X0013778Y0048046D01*
G01X0013757Y0047973D01*
G01X0013736Y0047859D01*
G01X0013728Y0047788D01*
G01X0013728Y0047752D01*
G01X0013736Y0047680D01*
G01X0013757Y0047565D01*
G01X0013778Y0047494D01*
G01X0013794Y0047457D01*
G01X0013809Y0047423D01*
G01X0013830Y0047392D01*
G01X0013855Y0047352D01*
G37*
G36*
G01X0022055Y0047352D02*
G01X0021538Y0047869D01*
G01X0021542Y0047900D01*
G01X0021523Y0048069D01*
G01X0021473Y0048232D01*
G01X0021392Y0048382D01*
G01X0021280Y0048509D01*
G01X0021146Y0048613D01*
G01X0020992Y0048690D01*
G01X0020828Y0048732D01*
G01X0020657Y0048740D01*
G01X0020623Y0048736D01*
G01X0020642Y0048900D01*
G01X0020623Y0049069D01*
G01X0020573Y0049232D01*
G01X0020492Y0049382D01*
G01X0020380Y0049509D01*
G01X0020371Y0049515D01*
G01X0020371Y0050800D01*
G01X0020352Y0050928D01*
G01X0022063Y0050928D01*
G01X0023328Y0049663D01*
G01X0023328Y0049550D01*
G01X0023246Y0049613D01*
G01X0023092Y0049690D01*
G01X0022928Y0049732D01*
G01X0022757Y0049740D01*
G01X0022588Y0049715D01*
G01X0022430Y0049655D01*
G01X0022284Y0049565D01*
G01X0022161Y0049448D01*
G01X0022063Y0049307D01*
G01X0021996Y0049152D01*
G01X0021961Y0048986D01*
G01X0021961Y0048813D01*
G01X0021996Y0048648D01*
G01X0022063Y0048492D01*
G01X0022161Y0048352D01*
G01X0022178Y0048336D01*
G01X0022167Y0048328D01*
G01X0022142Y0048302D01*
G01X0022117Y0048276D01*
G01X0022096Y0048246D01*
G01X0022030Y0048148D01*
G01X0022009Y0048115D01*
G01X0021994Y0048082D01*
G01X0021978Y0048046D01*
G01X0021957Y0047973D01*
G01X0021936Y0047859D01*
G01X0021928Y0047788D01*
G01X0021928Y0047752D01*
G01X0021936Y0047680D01*
G01X0021957Y0047565D01*
G01X0021978Y0047494D01*
G01X0021994Y0047457D01*
G01X0022009Y0047423D01*
G01X0022030Y0047392D01*
G01X0022055Y0047352D01*
G37*
G36*
G01X0003684Y0047467D02*
G01X0003676Y0047473D01*
G01X0003578Y0047540D01*
G01X0003546Y0047559D01*
G01X0003511Y0047576D01*
G01X0003476Y0047592D01*
G01X0003403Y0047611D01*
G01X0003290Y0047634D01*
G01X0003217Y0047642D01*
G01X0002982Y0047642D01*
G01X0002971Y0047640D01*
G01X0002703Y0047817D01*
G01X0002792Y0047917D01*
G01X0002873Y0048067D01*
G01X0002923Y0048230D01*
G01X0002942Y0048400D01*
G01X0002923Y0048569D01*
G01X0002873Y0048732D01*
G01X0002792Y0048882D01*
G01X0002680Y0049009D01*
G01X0002546Y0049113D01*
G01X0002471Y0049150D01*
G01X0002471Y0052323D01*
G01X0002496Y0052296D01*
G01X0005728Y0049063D01*
G01X0005728Y0049011D01*
G01X0005701Y0048986D01*
G01X0005680Y0049009D01*
G01X0005546Y0049113D01*
G01X0005392Y0049190D01*
G01X0005228Y0049232D01*
G01X0005057Y0049240D01*
G01X0004888Y0049215D01*
G01X0004730Y0049155D01*
G01X0004584Y0049065D01*
G01X0004461Y0048948D01*
G01X0004363Y0048807D01*
G01X0004296Y0048652D01*
G01X0004261Y0048486D01*
G01X0004261Y0048313D01*
G01X0004296Y0048148D01*
G01X0004363Y0047992D01*
G01X0004461Y0047852D01*
G01X0004528Y0047788D01*
G01X0004528Y0047705D01*
G01X0004428Y0047732D01*
G01X0004257Y0047740D01*
G01X0004088Y0047715D01*
G01X0003930Y0047655D01*
G01X0003784Y0047565D01*
G01X0003684Y0047467D01*
G37*
G54D10*
G01X0009900Y0053800D02*
G01X0034900Y0053800D01*
G01X0034900Y0053800D02*
G01X0034900Y0039069D01*
G01X0036400Y0053700D02*
G01X0036400Y0052400D01*
G01X0036400Y0052400D02*
G01X0037300Y0051500D01*
G01X0037300Y0051500D02*
G01X0037300Y0035600D01*
G01X0037300Y0035600D02*
G01X0029900Y0035600D01*
G01X0029900Y0035600D02*
G01X0029900Y0034800D01*
G01X0029900Y0031800D02*
G01X0030800Y0031800D01*
G01X0030800Y0031800D02*
G01X0030800Y0034900D01*
G01X0030800Y0034900D02*
G01X0038200Y0034900D01*
G01X0038200Y0034900D02*
G01X0038200Y0051800D01*
G01X0038200Y0051800D02*
G01X0037400Y0052600D01*
G01X0037400Y0052600D02*
G01X0037400Y0053700D01*
G54D11*
G01X0001500Y0040730D02*
G01X0001200Y0040500D01*
G01X0001200Y0040500D02*
G01X0001200Y0028800D01*
G01X0001200Y0028800D02*
G01X0015500Y0028800D01*
G01X0015500Y0028800D02*
G01X0017119Y0030040D01*
G01X0003100Y0044830D02*
G01X0002500Y0045000D01*
G01X0002500Y0045000D02*
G01X0000500Y0045000D01*
G01X0000500Y0045000D02*
G01X0000500Y0028103D01*
G01X0000500Y0028103D02*
G01X0022200Y0028100D01*
G01X0022200Y0028100D02*
G01X0024700Y0028100D01*
G54D10*
G01X0017000Y0032000D02*
G01X0017000Y0032000D01*
G01X0017000Y0032000D02*
G01X0024700Y0032000D01*
G01X0024700Y0032000D02*
G01X0024700Y0030500D01*
G01X0024700Y0030500D02*
G01X0025700Y0029500D01*
G01X0025700Y0029500D02*
G01X0033605Y0029500D01*
G01X0033605Y0029500D02*
G01X0033609Y0030230D01*
G01X0001500Y0043900D02*
G01X0001500Y0042769D01*
G54D11*
G01X0004300Y0030800D02*
G01X0004300Y0028800D01*
G54D10*
G01X0023600Y0032800D02*
G01X0016300Y0032800D01*
G01X0016300Y0032800D02*
G01X0014300Y0030800D01*
G01X0011300Y0036800D02*
G01X0011300Y0037500D01*
G01X0011300Y0037500D02*
G01X0012800Y0039000D01*
G01X0012800Y0039000D02*
G01X0016800Y0039000D01*
G01X0016800Y0039000D02*
G01X0018500Y0039900D01*
G01X0012300Y0036800D02*
G01X0012300Y0037400D01*
G01X0012300Y0037400D02*
G01X0013200Y0038300D01*
G01X0013200Y0038300D02*
G01X0019900Y0038300D01*
G01X0019900Y0038300D02*
G01X0022500Y0039900D01*
G01X0013300Y0036800D02*
G01X0013300Y0037000D01*
G01X0013300Y0037000D02*
G01X0013900Y0037600D01*
G01X0013900Y0037600D02*
G01X0023200Y0037600D01*
G01X0023200Y0037600D02*
G01X0026500Y0039900D01*
G01X0014300Y0036800D02*
G01X0026900Y0036800D01*
G01X0026900Y0036800D02*
G01X0030500Y0039900D01*
G01X0000900Y0048400D02*
G01X0000900Y0047600D01*
G01X0000900Y0047600D02*
G01X0002000Y0047600D01*
G01X0002000Y0047600D02*
G01X0003100Y0046869D01*
G54D12*
G01X0019700Y0034400D02*
G01X0019700Y0033400D01*
G01X0019700Y0033400D02*
G01X0022100Y0033400D01*
G01X0022100Y0033400D02*
G01X0022300Y0033600D01*
G01X0022300Y0033600D02*
G01X0024700Y0033600D01*
G01X0024700Y0033600D02*
G01X0024700Y0031900D01*
G54D11*
G01X0028200Y0030200D02*
G01X0027100Y0030200D01*
G01X0027100Y0030200D02*
G01X0026100Y0030200D01*
G01X0026100Y0030200D02*
G01X0025600Y0030700D01*
G01X0025600Y0030700D02*
G01X0025600Y0034400D01*
G01X0025600Y0034400D02*
G01X0020700Y0034400D01*
G54D10*
G01X0012300Y0030800D02*
G01X0012300Y0031300D01*
G01X0012300Y0031300D02*
G01X0016200Y0035200D01*
G01X0016200Y0035200D02*
G01X0028100Y0035200D01*
G01X0028100Y0035200D02*
G01X0029200Y0036300D01*
G01X0029200Y0036300D02*
G01X0036300Y0036300D01*
G01X0036300Y0036300D02*
G01X0036300Y0040200D01*
G54D12*
G01X0013300Y0030800D02*
G01X0013300Y0031000D01*
G01X0013300Y0031000D02*
G01X0015700Y0033400D01*
G01X0015700Y0033400D02*
G01X0018400Y0033400D01*
G01X0018400Y0033400D02*
G01X0018800Y0033800D01*
G01X0018800Y0033800D02*
G01X0018800Y0034400D01*
G54D10*
G01X0004300Y0040730D02*
G01X0007500Y0040730D01*
G01X0004300Y0042769D02*
G01X0004300Y0043900D01*
G01X0003100Y0044830D02*
G01X0005900Y0044830D01*
G01X0003100Y0045850D02*
G01X0001500Y0046900D01*
G01X0005900Y0045850D02*
G01X0004300Y0046900D01*
G01X0007500Y0042769D02*
G01X0007500Y0043900D01*
G01X0009200Y0045850D02*
G01X0007500Y0046900D01*
G01X0005900Y0044830D02*
G01X0009200Y0044830D01*
G01X0007500Y0040730D02*
G01X0011600Y0040700D01*
G01X0011600Y0040700D02*
G01X0012500Y0041630D01*
G01X0012500Y0043669D02*
G01X0012500Y0044900D01*
G01X0009200Y0044830D02*
G01X0011000Y0045700D01*
G01X0011000Y0045700D02*
G01X0014600Y0045730D01*
G01X0014600Y0046750D02*
G01X0013650Y0046750D01*
G01X0013650Y0046750D02*
G01X0012500Y0047900D01*
G01X0014600Y0047769D02*
G01X0014600Y0048900D01*
G01X0012500Y0041630D02*
G01X0016500Y0041630D01*
G01X0016500Y0043669D02*
G01X0016500Y0044900D01*
G01X0014600Y0045730D02*
G01X0018700Y0045730D01*
G01X0018700Y0046750D02*
G01X0017650Y0046750D01*
G01X0017650Y0046750D02*
G01X0016500Y0047900D01*
G01X0018700Y0047769D02*
G01X0018700Y0048900D01*
G01X0016500Y0042650D02*
G01X0017450Y0042650D01*
G01X0017450Y0042650D02*
G01X0018500Y0042900D01*
G01X0016500Y0041630D02*
G01X0020700Y0041630D01*
G01X0020700Y0043669D02*
G01X0020700Y0044900D01*
G01X0020700Y0042650D02*
G01X0021250Y0042650D01*
G01X0021250Y0042650D02*
G01X0022500Y0042900D01*
G01X0020700Y0041630D02*
G01X0024700Y0041630D01*
G01X0022800Y0046750D02*
G01X0021850Y0046750D01*
G01X0021850Y0046750D02*
G01X0020700Y0047900D01*
G01X0022800Y0047769D02*
G01X0022800Y0048900D01*
G01X0018700Y0045730D02*
G01X0022800Y0045730D01*
G01X0022800Y0045730D02*
G01X0026900Y0045730D01*
G01X0026900Y0046750D02*
G01X0025850Y0046750D01*
G01X0025850Y0046750D02*
G01X0024700Y0047900D01*
G01X0026900Y0047769D02*
G01X0026900Y0048900D01*
G01X0024700Y0042650D02*
G01X0025250Y0042650D01*
G01X0025250Y0042650D02*
G01X0026500Y0042900D01*
G01X0024700Y0044900D02*
G01X0024700Y0043669D01*
G01X0024700Y0041630D02*
G01X0028900Y0041630D01*
G01X0028900Y0043669D02*
G01X0028900Y0044900D01*
G01X0026900Y0045730D02*
G01X0031100Y0045730D01*
G01X0031100Y0046750D02*
G01X0030050Y0046750D01*
G01X0030050Y0046750D02*
G01X0028900Y0047900D01*
G01X0031100Y0047769D02*
G01X0031100Y0048900D01*
G01X0011300Y0030800D02*
G01X0011300Y0031600D01*
G01X0011300Y0031600D02*
G01X0015700Y0036000D01*
G01X0015700Y0036000D02*
G01X0027700Y0036000D01*
G01X0027700Y0036000D02*
G01X0029700Y0038000D01*
G01X0029700Y0038000D02*
G01X0030600Y0038000D01*
G01X0032900Y0046750D02*
G01X0033450Y0046750D01*
G01X0033450Y0046750D02*
G01X0034000Y0046200D01*
G01X0034000Y0046200D02*
G01X0034000Y0040900D01*
G01X0034000Y0040900D02*
G01X0033300Y0040200D01*
G01X0000900Y0051400D02*
G01X0000900Y0053800D01*
G01X0032900Y0047769D02*
G01X0032900Y0050900D01*
G01X0032900Y0050900D02*
G01X0030800Y0053000D01*
G01X0030800Y0053000D02*
G01X0009100Y0053000D01*
G01X0009100Y0053000D02*
G01X0008900Y0053200D01*
G01X0008900Y0053200D02*
G01X0008900Y0053800D01*
G01X0028100Y0048900D02*
G01X0028100Y0050400D01*
G01X0028100Y0050400D02*
G01X0026200Y0052300D01*
G01X0026200Y0052300D02*
G01X0008600Y0052300D01*
G01X0008600Y0052300D02*
G01X0007900Y0053000D01*
G01X0007900Y0053000D02*
G01X0007900Y0053800D01*
G01X0023900Y0048900D02*
G01X0023900Y0049900D01*
G01X0023900Y0049900D02*
G01X0022300Y0051500D01*
G01X0022300Y0051500D02*
G01X0008400Y0051500D01*
G01X0008400Y0051500D02*
G01X0006900Y0053000D01*
G01X0006900Y0053000D02*
G01X0006900Y0053800D01*
G01X0019800Y0048900D02*
G01X0019800Y0050800D01*
G01X0019800Y0050800D02*
G01X0008100Y0050800D01*
G01X0008100Y0050800D02*
G01X0005900Y0053000D01*
G01X0005900Y0053000D02*
G01X0005900Y0053800D01*
G01X0015700Y0048900D02*
G01X0015700Y0049100D01*
G01X0015700Y0049100D02*
G01X0015200Y0050100D01*
G01X0015200Y0050100D02*
G01X0007700Y0050100D01*
G01X0007700Y0050100D02*
G01X0004900Y0052900D01*
G01X0004900Y0052900D02*
G01X0004900Y0053800D01*
G01X0010300Y0036800D02*
G01X0010300Y0037500D01*
G01X0010300Y0037500D02*
G01X0012700Y0039900D01*
G01X0012700Y0039900D02*
G01X0014500Y0039900D01*
G01X0001500Y0041750D02*
G01X0002900Y0041800D01*
G01X0001500Y0040730D02*
G01X0004300Y0040730D01*
G01X0012500Y0042650D02*
G01X0014150Y0042650D01*
G01X0014150Y0042650D02*
G01X0014500Y0042900D01*
G01X0003900Y0053800D02*
G01X0003900Y0052800D01*
G01X0003900Y0052800D02*
G01X0007200Y0049500D01*
G01X0007200Y0049500D02*
G01X0011000Y0049500D01*
G01X0011000Y0049500D02*
G01X0011600Y0048900D01*
G01X0002900Y0053800D02*
G01X0002900Y0052700D01*
G01X0002900Y0052700D02*
G01X0006300Y0049300D01*
G01X0006300Y0049300D02*
G01X0006300Y0048400D01*
G01X0001900Y0053800D02*
G01X0001900Y0048600D01*
G01X0001900Y0048600D02*
G01X0002100Y0048400D01*
G01X0005100Y0048400D02*
G01X0005100Y0047669D01*
G01X0005100Y0047669D02*
G01X0005900Y0046869D01*
G01X0009300Y0048400D02*
G01X0009300Y0046969D01*
G01X0009300Y0046969D02*
G01X0009200Y0046869D01*
G01X0004300Y0041750D02*
G01X0005750Y0041750D01*
G01X0005750Y0041750D02*
G01X0005800Y0041800D01*
G01X0007500Y0041750D02*
G01X0009250Y0041750D01*
G01X0009250Y0041750D02*
G01X0009300Y0041800D01*
G01X0009300Y0038800D02*
G01X0009300Y0036800D01*
G01X0005800Y0038800D02*
G01X0007200Y0038800D01*
G01X0007200Y0038800D02*
G01X0008300Y0037700D01*
G01X0008300Y0037700D02*
G01X0008300Y0036800D01*
G01X0002900Y0038800D02*
G01X0003800Y0038800D01*
G01X0003800Y0038800D02*
G01X0004700Y0037900D01*
G01X0004700Y0037900D02*
G01X0006800Y0037900D01*
G01X0006800Y0037900D02*
G01X0007300Y0037400D01*
G01X0007300Y0037400D02*
G01X0007300Y0036800D01*
G01X0033600Y0038000D02*
G01X0034850Y0038000D01*
G01X0034850Y0038000D02*
G01X0034900Y0038050D01*
G01X0006300Y0030800D02*
G01X0006300Y0030200D01*
G01X0006300Y0030200D02*
G01X0007000Y0029500D01*
G01X0007000Y0029500D02*
G01X0014500Y0029500D01*
G01X0014500Y0029500D02*
G01X0016950Y0031950D01*
G01X0016950Y0031950D02*
G01X0017000Y0032000D01*
G54D11*
G01X0017296Y0030432D02*
G01X0017830Y0031300D01*
G01X0017830Y0031300D02*
G01X0023600Y0031300D01*
G01X0023600Y0031300D02*
G01X0023600Y0031100D01*
G01X0033600Y0032200D02*
G01X0033600Y0030240D01*
G01X0033600Y0030240D02*
G01X0033609Y0030230D01*
G54D10*
G01X0029900Y0031800D02*
G01X0031700Y0031800D01*
G01X0031700Y0031800D02*
G01X0031700Y0031000D01*
G54D11*
G01X0028200Y0030200D02*
G01X0032500Y0030200D01*
G01X0032500Y0030200D02*
G01X0032600Y0030300D01*
G01X0032600Y0030300D02*
G01X0032600Y0032700D01*
G01X0032600Y0032700D02*
G01X0033200Y0033300D01*
G01X0033200Y0033300D02*
G01X0034400Y0033300D01*
G01X0034400Y0033300D02*
G01X0034600Y0033100D01*
G01X0034600Y0033100D02*
G01X0034600Y0032200D01*
G01X0034600Y0032200D02*
G01X0034600Y0030240D01*
G01X0034600Y0030240D02*
G01X0034610Y0030230D01*
G01X0034610Y0030230D02*
G01X0037500Y0030200D01*
G01X0037500Y0030200D02*
G01X0037469Y0033009D01*
G54D10*
G01X0028200Y0034269D02*
G01X0029369Y0034269D01*
G01X0029369Y0034269D02*
G01X0029900Y0034800D01*
G01X0028200Y0033250D02*
G01X0027050Y0033250D01*
G01X0027050Y0033250D02*
G01X0026600Y0032800D01*
G01X0026600Y0031100D02*
G01X0026600Y0032800D01*
G01X0023600Y0031100D02*
G01X0023600Y0030600D01*
G01X0023600Y0030600D02*
G01X0025400Y0028800D01*
G01X0025400Y0028800D02*
G01X0034400Y0028800D01*
G01X0034400Y0028800D02*
G01X0034600Y0029000D01*
G01X0034600Y0029000D02*
G01X0034600Y0030219D01*
G01X0034600Y0030219D02*
G01X0034610Y0030230D01*
G01X0028200Y0030200D02*
G01X0028200Y0032230D01*
G01X0028900Y0041630D02*
G01X0031530Y0041630D01*
G01X0031530Y0041630D02*
G01X0032900Y0043000D01*
G01X0032900Y0043000D02*
G01X0032900Y0045730D01*
G01X0031500Y0041630D02*
G01X0031500Y0039700D01*
G01X0031500Y0039700D02*
G01X0032000Y0039200D01*
G01X0032000Y0039200D02*
G01X0032000Y0038000D01*
G01X0032000Y0038000D02*
G01X0033000Y0037000D01*
G01X0033000Y0037000D02*
G01X0034869Y0037000D01*
G01X0034869Y0037000D02*
G01X0034900Y0037030D01*
G01X0028900Y0042650D02*
G01X0029450Y0042650D01*
G01X0029450Y0042650D02*
G01X0029700Y0042900D01*
G01X0029700Y0042900D02*
G01X0030500Y0042900D01*
G54D11*
G01X0024000Y0028900D02*
G01X0024700Y0028100D01*
G01X0024700Y0028100D02*
G01X0037700Y0028100D01*
G01X0037700Y0028100D02*
G01X0038300Y0028700D01*
G01X0038300Y0028700D02*
G01X0038300Y0034000D01*
G01X0038300Y0034000D02*
G01X0037580Y0034000D01*
G01X0037580Y0034000D02*
G01X0037469Y0034009D01*
G01X0035600Y0032200D02*
G01X0035600Y0033300D01*
G01X0035600Y0033300D02*
G01X0036300Y0034000D01*
G01X0036300Y0034000D02*
G01X0037469Y0034009D01*
G01X0037469Y0034009D02*
G01X0037569Y0034009D01*
G01X0031700Y0034000D02*
G01X0034900Y0034000D01*
G01X0034900Y0034000D02*
G01X0035600Y0033300D01*
G01X0021000Y0028900D02*
G01X0020232Y0028900D01*
G01X0020232Y0028900D02*
G01X0019092Y0030040D01*
G54D13*
G01X0019590Y0028842D02*
G01X0019561Y0028857D01*
G01X0019561Y0028857D02*
G01X0019518Y0028900D01*
G01X0019518Y0028900D02*
G01X0019518Y0028599D01*
G01X0019409Y0028828D02*
G01X0019409Y0028842D01*
G01X0019409Y0028842D02*
G01X0019395Y0028871D01*
G01X0019395Y0028871D02*
G01X0019381Y0028885D01*
G01X0019381Y0028885D02*
G01X0019352Y0028900D01*
G01X0019352Y0028900D02*
G01X0019295Y0028900D01*
G01X0019295Y0028900D02*
G01X0019266Y0028885D01*
G01X0019266Y0028885D02*
G01X0019252Y0028871D01*
G01X0019252Y0028871D02*
G01X0019237Y0028842D01*
G01X0019237Y0028842D02*
G01X0019237Y0028814D01*
G01X0019237Y0028814D02*
G01X0019252Y0028785D01*
G01X0019252Y0028785D02*
G01X0019280Y0028742D01*
G01X0019280Y0028742D02*
G01X0019423Y0028599D01*
G01X0019423Y0028599D02*
G01X0019223Y0028599D01*
G01X0019129Y0028900D02*
G01X0019014Y0028599D01*
G01X0018900Y0028900D02*
G01X0019014Y0028599D01*
G01X0017289Y0028828D02*
G01X0017304Y0028857D01*
G01X0017304Y0028857D02*
G01X0017332Y0028885D01*
G01X0017332Y0028885D02*
G01X0017361Y0028900D01*
G01X0017361Y0028900D02*
G01X0017418Y0028900D01*
G01X0017418Y0028900D02*
G01X0017447Y0028885D01*
G01X0017447Y0028885D02*
G01X0017475Y0028857D01*
G01X0017475Y0028857D02*
G01X0017490Y0028828D01*
G01X0017490Y0028828D02*
G01X0017504Y0028785D01*
G01X0017504Y0028785D02*
G01X0017504Y0028713D01*
G01X0017504Y0028713D02*
G01X0017490Y0028670D01*
G01X0017490Y0028670D02*
G01X0017475Y0028642D01*
G01X0017475Y0028642D02*
G01X0017447Y0028613D01*
G01X0017447Y0028613D02*
G01X0017418Y0028599D01*
G01X0017418Y0028599D02*
G01X0017361Y0028599D01*
G01X0017361Y0028599D02*
G01X0017332Y0028613D01*
G01X0017332Y0028613D02*
G01X0017304Y0028642D01*
G01X0017304Y0028642D02*
G01X0017289Y0028670D01*
G01X0017289Y0028670D02*
G01X0017289Y0028713D01*
G01X0017361Y0028713D02*
G01X0017289Y0028713D01*
G01X0017195Y0028900D02*
G01X0017195Y0028599D01*
G01X0017195Y0028900D02*
G01X0016994Y0028599D01*
G01X0016994Y0028900D02*
G01X0016994Y0028599D01*
G01X0016900Y0028900D02*
G01X0016900Y0028599D01*
G01X0016900Y0028900D02*
G01X0016800Y0028900D01*
G01X0016800Y0028900D02*
G01X0016757Y0028885D01*
G01X0016757Y0028885D02*
G01X0016728Y0028857D01*
G01X0016728Y0028857D02*
G01X0016714Y0028828D01*
G01X0016714Y0028828D02*
G01X0016700Y0028785D01*
G01X0016700Y0028785D02*
G01X0016700Y0028713D01*
G01X0016700Y0028713D02*
G01X0016714Y0028670D01*
G01X0016714Y0028670D02*
G01X0016728Y0028642D01*
G01X0016728Y0028642D02*
G01X0016757Y0028613D01*
G01X0016757Y0028613D02*
G01X0016800Y0028599D01*
G01X0016800Y0028599D02*
G01X0016900Y0028599D01*
G36*
G01X0018300Y0030800D02*
G01X0019900Y0030800D01*
G01X0019900Y0029200D01*
G01X0018300Y0029200D01*
G01X0018300Y0030800D01*
G37*
G36*
G01X0016300Y0030800D02*
G01X0017900Y0030800D01*
G01X0017900Y0029200D01*
G01X0016300Y0029200D01*
G01X0016300Y0030800D01*
G37*
G54D14*
G01X0019092Y0030040D03*
G01X0017119Y0030040D03*
G54D15*
G01X0021000Y0028900D03*
G01X0024000Y0028900D03*
G54D16*
G01X0018800Y0034400D03*
G01X0019800Y0034400D03*
G01X0020800Y0034400D03*
G54D17*
G01X0035600Y0032200D03*
G54D18*
G01X0022500Y0039900D03*
G01X0022500Y0042900D03*
G01X0020700Y0044900D03*
G01X0020700Y0047900D03*
G01X0019800Y0048900D03*
G01X0022800Y0048900D03*
G01X0036300Y0040200D03*
G01X0033300Y0040200D03*
G01X0030600Y0038000D03*
G01X0033600Y0038000D03*
G54D19*
G01X0000900Y0053800D03*
G01X0001900Y0053800D03*
G01X0002900Y0053800D03*
G01X0003900Y0053800D03*
G01X0004900Y0053800D03*
G01X0005900Y0053800D03*
G01X0006900Y0053800D03*
G01X0007900Y0053800D03*
G01X0008900Y0053800D03*
G54D20*
G01X0009900Y0053800D03*
G54D18*
G01X0018500Y0039900D03*
G01X0018500Y0042900D03*
G01X0016500Y0044900D03*
G01X0016500Y0047900D03*
G01X0015700Y0048900D03*
G01X0018700Y0048900D03*
G01X0014500Y0039900D03*
G01X0014500Y0042900D03*
G01X0012500Y0044900D03*
G01X0012500Y0047900D03*
G01X0011600Y0048900D03*
G01X0014600Y0048900D03*
G01X0009300Y0038800D03*
G01X0009300Y0041800D03*
G01X0007500Y0043900D03*
G01X0007500Y0046900D03*
G01X0006300Y0048400D03*
G01X0009300Y0048400D03*
G01X0005800Y0038800D03*
G01X0005800Y0041800D03*
G01X0004300Y0043900D03*
G01X0004300Y0046900D03*
G01X0002100Y0048400D03*
G01X0005100Y0048400D03*
G01X0002900Y0038800D03*
G01X0002900Y0041800D03*
G01X0001500Y0043900D03*
G01X0001500Y0046900D03*
G01X0000900Y0051400D03*
G01X0000900Y0048400D03*
G01X0030500Y0039900D03*
G01X0030500Y0042900D03*
G01X0028900Y0044900D03*
G01X0028900Y0047900D03*
G01X0028100Y0048900D03*
G01X0031100Y0048900D03*
G01X0026500Y0039900D03*
G01X0026500Y0042900D03*
G01X0024700Y0044900D03*
G01X0024700Y0047900D03*
G01X0023900Y0048900D03*
G01X0026900Y0048900D03*
G01X0023600Y0032800D03*
G01X0026600Y0032800D03*
G01X0023600Y0031100D03*
G01X0026600Y0031100D03*
G54D16*
G01X0037400Y0053700D03*
G01X0036400Y0053700D03*
G54D15*
G01X0029900Y0034800D03*
G01X0029900Y0031800D03*
G54D18*
G01X0031700Y0031000D03*
G01X0031700Y0034000D03*
G54D21*
G01X0034610Y0030230D03*
G01X0033609Y0030230D03*
G01X0037469Y0034009D03*
G01X0037469Y0033009D03*
G54D18*
G01X0003300Y0030800D03*
G01X0004300Y0030800D03*
G01X0005300Y0030800D03*
G01X0006300Y0030800D03*
G01X0007300Y0030800D03*
G01X0008300Y0030800D03*
G01X0009300Y0030800D03*
G01X0010300Y0030800D03*
G01X0011300Y0030800D03*
G01X0012300Y0030800D03*
G01X0013300Y0030800D03*
G01X0014300Y0030800D03*
G01X0014300Y0036800D03*
G01X0013300Y0036800D03*
G01X0012300Y0036800D03*
G01X0011300Y0036800D03*
G01X0010300Y0036800D03*
G01X0009300Y0036800D03*
G01X0008300Y0036800D03*
G01X0007300Y0036800D03*
G01X0006300Y0036800D03*
G01X0005300Y0036800D03*
G01X0004300Y0036800D03*
G01X0003300Y0036800D03*
G01X0002300Y0031300D03*
G01X0002300Y0032300D03*
G01X0002300Y0033300D03*
G01X0002300Y0034300D03*
G01X0002300Y0035300D03*
G01X0002300Y0036300D03*
G54D14*
G01X0019092Y0030040D03*
G01X0017119Y0030040D03*
G54D15*
G01X0021000Y0028900D03*
G01X0024000Y0028900D03*
G54D16*
G01X0018800Y0034400D03*
G01X0019800Y0034400D03*
G01X0020800Y0034400D03*
G54D17*
G01X0035600Y0032200D03*
G54D18*
G01X0022500Y0039900D03*
G01X0022500Y0042900D03*
G01X0020700Y0044900D03*
G01X0020700Y0047900D03*
G01X0019800Y0048900D03*
G01X0022800Y0048900D03*
G01X0036300Y0040200D03*
G01X0033300Y0040200D03*
G01X0030600Y0038000D03*
G01X0033600Y0038000D03*
G54D19*
G01X0000900Y0053800D03*
G01X0001900Y0053800D03*
G01X0002900Y0053800D03*
G01X0003900Y0053800D03*
G01X0004900Y0053800D03*
G01X0005900Y0053800D03*
G01X0006900Y0053800D03*
G01X0007900Y0053800D03*
G01X0008900Y0053800D03*
G54D20*
G01X0009900Y0053800D03*
G54D18*
G01X0018500Y0039900D03*
G01X0018500Y0042900D03*
G01X0016500Y0044900D03*
G01X0016500Y0047900D03*
G01X0015700Y0048900D03*
G01X0018700Y0048900D03*
G01X0014500Y0039900D03*
G01X0014500Y0042900D03*
G01X0012500Y0044900D03*
G01X0012500Y0047900D03*
G01X0011600Y0048900D03*
G01X0014600Y0048900D03*
G01X0009300Y0038800D03*
G01X0009300Y0041800D03*
G01X0007500Y0043900D03*
G01X0007500Y0046900D03*
G01X0006300Y0048400D03*
G01X0009300Y0048400D03*
G01X0005800Y0038800D03*
G01X0005800Y0041800D03*
G01X0004300Y0043900D03*
G01X0004300Y0046900D03*
G01X0002100Y0048400D03*
G01X0005100Y0048400D03*
G01X0002900Y0038800D03*
G01X0002900Y0041800D03*
G01X0001500Y0043900D03*
G01X0001500Y0046900D03*
G01X0000900Y0051400D03*
G01X0000900Y0048400D03*
G01X0030500Y0039900D03*
G01X0030500Y0042900D03*
G01X0028900Y0044900D03*
G01X0028900Y0047900D03*
G01X0028100Y0048900D03*
G01X0031100Y0048900D03*
G01X0026500Y0039900D03*
G01X0026500Y0042900D03*
G01X0024700Y0044900D03*
G01X0024700Y0047900D03*
G01X0023900Y0048900D03*
G01X0026900Y0048900D03*
G01X0023600Y0032800D03*
G01X0026600Y0032800D03*
G01X0023600Y0031100D03*
G01X0026600Y0031100D03*
G54D16*
G01X0037400Y0053700D03*
G01X0036400Y0053700D03*
G54D15*
G01X0029900Y0034800D03*
G01X0029900Y0031800D03*
G54D18*
G01X0031700Y0031000D03*
G01X0031700Y0034000D03*
G54D21*
G01X0034610Y0030230D03*
G01X0033609Y0030230D03*
G01X0037469Y0034009D03*
G01X0037469Y0033009D03*
G54D18*
G01X0003300Y0030800D03*
G01X0004300Y0030800D03*
G01X0005300Y0030800D03*
G01X0006300Y0030800D03*
G01X0007300Y0030800D03*
G01X0008300Y0030800D03*
G01X0009300Y0030800D03*
G01X0010300Y0030800D03*
G01X0011300Y0030800D03*
G01X0012300Y0030800D03*
G01X0013300Y0030800D03*
G01X0014300Y0030800D03*
G01X0014300Y0036800D03*
G01X0013300Y0036800D03*
G01X0012300Y0036800D03*
G01X0011300Y0036800D03*
G01X0010300Y0036800D03*
G01X0009300Y0036800D03*
G01X0008300Y0036800D03*
G01X0007300Y0036800D03*
G01X0006300Y0036800D03*
G01X0005300Y0036800D03*
G01X0004300Y0036800D03*
G01X0003300Y0036800D03*
G01X0002300Y0031300D03*
G01X0002300Y0032300D03*
G01X0002300Y0033300D03*
G01X0002300Y0034300D03*
G01X0002300Y0035300D03*
G01X0002300Y0036300D03*
G54D22*
G01X0033600Y0032101D02*
G01X0033600Y0032298D01*
G01X0034600Y0032101D02*
G01X0034600Y0032298D01*
G54D23*
G01X0020600Y0043669D02*
G01X0020800Y0043669D01*
G01X0020600Y0041630D02*
G01X0020800Y0041630D01*
G01X0020600Y0042650D02*
G01X0020800Y0042650D01*
G01X0022900Y0045730D02*
G01X0022700Y0045730D01*
G01X0022900Y0047769D02*
G01X0022700Y0047769D01*
G01X0022900Y0046750D02*
G01X0022700Y0046750D01*
G01X0032800Y0047769D02*
G01X0033000Y0047769D01*
G01X0032800Y0045730D02*
G01X0033000Y0045730D01*
G01X0032800Y0046750D02*
G01X0033000Y0046750D01*
G01X0034800Y0039069D02*
G01X0035000Y0039069D01*
G01X0034800Y0037030D02*
G01X0035000Y0037030D01*
G01X0034800Y0038050D02*
G01X0035000Y0038050D01*
G01X0016400Y0043669D02*
G01X0016600Y0043669D01*
G01X0016400Y0041630D02*
G01X0016600Y0041630D01*
G01X0016400Y0042650D02*
G01X0016600Y0042650D01*
G01X0018800Y0045730D02*
G01X0018600Y0045730D01*
G01X0018800Y0047769D02*
G01X0018600Y0047769D01*
G01X0018800Y0046750D02*
G01X0018600Y0046750D01*
G01X0012400Y0043669D02*
G01X0012600Y0043669D01*
G01X0012400Y0041630D02*
G01X0012600Y0041630D01*
G01X0012400Y0042650D02*
G01X0012600Y0042650D01*
G01X0014700Y0045730D02*
G01X0014500Y0045730D01*
G01X0014700Y0047769D02*
G01X0014500Y0047769D01*
G01X0014700Y0046750D02*
G01X0014500Y0046750D01*
G01X0007400Y0042769D02*
G01X0007600Y0042769D01*
G01X0007400Y0040730D02*
G01X0007600Y0040730D01*
G01X0007400Y0041750D02*
G01X0007600Y0041750D01*
G01X0009300Y0044830D02*
G01X0009100Y0044830D01*
G01X0009300Y0046869D02*
G01X0009100Y0046869D01*
G01X0009300Y0045850D02*
G01X0009100Y0045850D01*
G01X0004200Y0042769D02*
G01X0004400Y0042769D01*
G01X0004200Y0040730D02*
G01X0004400Y0040730D01*
G01X0004200Y0041750D02*
G01X0004400Y0041750D01*
G01X0006000Y0044830D02*
G01X0005800Y0044830D01*
G01X0006000Y0046869D02*
G01X0005800Y0046869D01*
G01X0006000Y0045850D02*
G01X0005800Y0045850D01*
G01X0001400Y0042769D02*
G01X0001600Y0042769D01*
G01X0001400Y0040730D02*
G01X0001600Y0040730D01*
G01X0001400Y0041750D02*
G01X0001600Y0041750D01*
G01X0003200Y0044830D02*
G01X0003000Y0044830D01*
G01X0003200Y0046869D02*
G01X0003000Y0046869D01*
G01X0003200Y0045850D02*
G01X0003000Y0045850D01*
G01X0028800Y0043669D02*
G01X0029000Y0043669D01*
G01X0028800Y0041630D02*
G01X0029000Y0041630D01*
G01X0028800Y0042650D02*
G01X0029000Y0042650D01*
G01X0031200Y0045730D02*
G01X0031000Y0045730D01*
G01X0031200Y0047769D02*
G01X0031000Y0047769D01*
G01X0031200Y0046750D02*
G01X0031000Y0046750D01*
G01X0024600Y0043669D02*
G01X0024800Y0043669D01*
G01X0024600Y0041630D02*
G01X0024800Y0041630D01*
G01X0024600Y0042650D02*
G01X0024800Y0042650D01*
G01X0027000Y0045730D02*
G01X0026800Y0045730D01*
G01X0027000Y0047769D02*
G01X0026800Y0047769D01*
G01X0027000Y0046750D02*
G01X0026800Y0046750D01*
G01X0028100Y0034269D02*
G01X0028300Y0034269D01*
G01X0028100Y0032230D02*
G01X0028300Y0032230D01*
G01X0028100Y0033250D02*
G01X0028300Y0033250D01*
M02*
