G04 ---------------------------- Layer name :TOP SILK LAYER*
G04 easyEDA 0.1*
G04 Scale: 100 percent, Rotated: No, Reflected: No *
G04 Dimensions in inches *
G04 leading zeros omitted , absolute positions ,2 integer and 4 * 
%FSLAX24Y24*%
%MOIN*%
G90*
G70D02*

%ADD10C,0.010000*%
%ADD11C,0.009000*%
%ADD12C,0.008000*%
%ADD13C,0.007992*%
%ADD14C,0.007900*%
%ADD15C,0.015748*%
%ADD16C,0.007000*%

%LPD*%
G54D10*
G01X20166Y28072D02*
G01X16033Y28072D01*
G01X20166Y28072D02*
G01X20166Y32127D01*
G01X20166Y32127D02*
G01X16033Y32127D01*
G01X16033Y28072D02*
G01X16033Y32127D01*
G01X20166Y29119D02*
G01X16033Y29119D01*
G01X20166Y31907D02*
G01X16033Y31907D01*
G01X20166Y31659D02*
G01X16033Y31659D01*
G01X17447Y28100D02*
G01X17447Y28313D01*
G01X16845Y28313D01*
G01X16845Y28100D01*
G01X19344Y28088D02*
G01X19344Y28301D01*
G01X18742Y28301D01*
G01X18742Y28088D01*
G54D11*
G01X21500Y29350D02*
G01X23500Y29350D01*
G01X23500Y28450D01*
G01X21500Y28450D01*
G01X21500Y29350D01*
G01X23250Y29350D02*
G01X23250Y28450D01*
G54D12*
G01X20550Y33900D02*
G01X21300Y33900D01*
G01X21300Y34900D01*
G01X18300Y34900D01*
G01X18300Y33900D01*
G54D13*
G01X18300Y33900D02*
G01X20550Y33900D01*
G54D10*
G01X36686Y31097D02*
G01X32513Y31097D01*
G01X32513Y32987D01*
G01X36686Y32987D01*
G01X36686Y31097D01*
G01X32513Y31294D02*
G01X36686Y31294D01*
G54D14*
G01X20173Y43411D02*
G01X20173Y41888D01*
G54D10*
G01X22200Y40400D02*
G01X22200Y42400D01*
G01X22200Y42400D02*
G01X22500Y42400D01*
G01X22500Y42400D02*
G01X22800Y42400D01*
G01X22800Y42400D02*
G01X22800Y40400D01*
G01X22800Y40400D02*
G01X22500Y40400D01*
G01X22500Y40400D02*
G01X22200Y40400D01*
G01X22500Y42400D02*
G01X22500Y42500D01*
G01X22500Y40400D02*
G01X22500Y40300D01*
G01X20400Y45400D02*
G01X20400Y47400D01*
G01X20400Y47400D02*
G01X20700Y47400D01*
G01X20700Y47400D02*
G01X21000Y47400D01*
G01X21000Y47400D02*
G01X21000Y45400D01*
G01X21000Y45400D02*
G01X20700Y45400D01*
G01X20700Y45400D02*
G01X20400Y45400D01*
G01X20700Y47400D02*
G01X20700Y47500D01*
G01X20700Y45400D02*
G01X20700Y45300D01*
G54D14*
G01X23326Y45988D02*
G01X23326Y47511D01*
G54D10*
G01X20300Y49200D02*
G01X22300Y49200D01*
G01X22300Y49200D02*
G01X22300Y48900D01*
G01X22300Y48900D02*
G01X22300Y48600D01*
G01X22300Y48600D02*
G01X20300Y48600D01*
G01X20300Y48600D02*
G01X20300Y48900D01*
G01X20300Y48900D02*
G01X20300Y49200D01*
G01X22300Y48900D02*
G01X22400Y48900D01*
G01X20300Y48900D02*
G01X20200Y48900D01*
G54D14*
G01X32373Y47511D02*
G01X32373Y45988D01*
G54D10*
G01X35800Y39900D02*
G01X33800Y39900D01*
G01X33800Y39900D02*
G01X33800Y40200D01*
G01X33800Y40200D02*
G01X33800Y40500D01*
G01X33800Y40500D02*
G01X35800Y40500D01*
G01X35800Y40500D02*
G01X35800Y40200D01*
G01X35800Y40200D02*
G01X35800Y39900D01*
G01X33800Y40200D02*
G01X33700Y40200D01*
G01X35800Y40200D02*
G01X35900Y40200D01*
G54D14*
G01X34373Y38811D02*
G01X34373Y37288D01*
G54D10*
G01X31100Y38300D02*
G01X33100Y38300D01*
G01X33100Y38300D02*
G01X33100Y38000D01*
G01X33100Y38000D02*
G01X33100Y37700D01*
G01X33100Y37700D02*
G01X31100Y37700D01*
G01X31100Y37700D02*
G01X31100Y38000D01*
G01X31100Y38000D02*
G01X31100Y38300D01*
G01X33100Y38000D02*
G01X33200Y38000D01*
G01X31100Y38000D02*
G01X31000Y38000D01*
G54D12*
G01X9650Y53300D02*
G01X10400Y53300D01*
G01X10400Y54300D01*
G01X400Y54300D01*
G01X400Y53300D01*
G54D13*
G01X400Y53300D02*
G01X9650Y53300D01*
G54D14*
G01X15973Y43411D02*
G01X15973Y41888D01*
G54D10*
G01X18200Y40400D02*
G01X18200Y42400D01*
G01X18200Y42400D02*
G01X18500Y42400D01*
G01X18500Y42400D02*
G01X18800Y42400D01*
G01X18800Y42400D02*
G01X18800Y40400D01*
G01X18800Y40400D02*
G01X18500Y40400D01*
G01X18500Y40400D02*
G01X18200Y40400D01*
G01X18500Y42400D02*
G01X18500Y42500D01*
G01X18500Y40400D02*
G01X18500Y40300D01*
G01X16200Y45400D02*
G01X16200Y47400D01*
G01X16200Y47400D02*
G01X16500Y47400D01*
G01X16500Y47400D02*
G01X16800Y47400D01*
G01X16800Y47400D02*
G01X16800Y45400D01*
G01X16800Y45400D02*
G01X16500Y45400D01*
G01X16500Y45400D02*
G01X16200Y45400D01*
G01X16500Y47400D02*
G01X16500Y47500D01*
G01X16500Y45400D02*
G01X16500Y45300D01*
G54D14*
G01X19226Y45988D02*
G01X19226Y47511D01*
G54D10*
G01X16200Y49200D02*
G01X18200Y49200D01*
G01X18200Y49200D02*
G01X18200Y48900D01*
G01X18200Y48900D02*
G01X18200Y48600D01*
G01X18200Y48600D02*
G01X16200Y48600D01*
G01X16200Y48600D02*
G01X16200Y48900D01*
G01X16200Y48900D02*
G01X16200Y49200D01*
G01X18200Y48900D02*
G01X18300Y48900D01*
G01X16200Y48900D02*
G01X16100Y48900D01*
G54D14*
G01X11973Y43411D02*
G01X11973Y41888D01*
G54D10*
G01X14200Y40400D02*
G01X14200Y42400D01*
G01X14200Y42400D02*
G01X14500Y42400D01*
G01X14500Y42400D02*
G01X14800Y42400D01*
G01X14800Y42400D02*
G01X14800Y40400D01*
G01X14800Y40400D02*
G01X14500Y40400D01*
G01X14500Y40400D02*
G01X14200Y40400D01*
G01X14500Y42400D02*
G01X14500Y42500D01*
G01X14500Y40400D02*
G01X14500Y40300D01*
G01X12200Y45400D02*
G01X12200Y47400D01*
G01X12200Y47400D02*
G01X12500Y47400D01*
G01X12500Y47400D02*
G01X12800Y47400D01*
G01X12800Y47400D02*
G01X12800Y45400D01*
G01X12800Y45400D02*
G01X12500Y45400D01*
G01X12500Y45400D02*
G01X12200Y45400D01*
G01X12500Y47400D02*
G01X12500Y47500D01*
G01X12500Y45400D02*
G01X12500Y45300D01*
G54D14*
G01X15126Y45988D02*
G01X15126Y47511D01*
G54D10*
G01X12100Y49200D02*
G01X14100Y49200D01*
G01X14100Y49200D02*
G01X14100Y48900D01*
G01X14100Y48900D02*
G01X14100Y48600D01*
G01X14100Y48600D02*
G01X12100Y48600D01*
G01X12100Y48600D02*
G01X12100Y48900D01*
G01X12100Y48900D02*
G01X12100Y49200D01*
G01X14100Y48900D02*
G01X14200Y48900D01*
G01X12100Y48900D02*
G01X12000Y48900D01*
G54D14*
G01X6973Y42511D02*
G01X6973Y40988D01*
G54D10*
G01X9000Y39300D02*
G01X9000Y41300D01*
G01X9000Y41300D02*
G01X9300Y41300D01*
G01X9300Y41300D02*
G01X9600Y41300D01*
G01X9600Y41300D02*
G01X9600Y39300D01*
G01X9600Y39300D02*
G01X9300Y39300D01*
G01X9300Y39300D02*
G01X9000Y39300D01*
G01X9300Y41300D02*
G01X9300Y41400D01*
G01X9300Y39300D02*
G01X9300Y39200D01*
G01X7200Y44400D02*
G01X7200Y46400D01*
G01X7200Y46400D02*
G01X7500Y46400D01*
G01X7500Y46400D02*
G01X7800Y46400D01*
G01X7800Y46400D02*
G01X7800Y44400D01*
G01X7800Y44400D02*
G01X7500Y44400D01*
G01X7500Y44400D02*
G01X7200Y44400D01*
G01X7500Y46400D02*
G01X7500Y46500D01*
G01X7500Y44400D02*
G01X7500Y44300D01*
G54D14*
G01X9726Y45088D02*
G01X9726Y46611D01*
G54D10*
G01X6800Y48700D02*
G01X8800Y48700D01*
G01X8800Y48700D02*
G01X8800Y48400D01*
G01X8800Y48400D02*
G01X8800Y48100D01*
G01X8800Y48100D02*
G01X6800Y48100D01*
G01X6800Y48100D02*
G01X6800Y48400D01*
G01X6800Y48400D02*
G01X6800Y48700D01*
G01X8800Y48400D02*
G01X8900Y48400D01*
G01X6800Y48400D02*
G01X6700Y48400D01*
G54D14*
G01X3773Y42511D02*
G01X3773Y40988D01*
G54D10*
G01X5500Y39300D02*
G01X5500Y41300D01*
G01X5500Y41300D02*
G01X5800Y41300D01*
G01X5800Y41300D02*
G01X6100Y41300D01*
G01X6100Y41300D02*
G01X6100Y39300D01*
G01X6100Y39300D02*
G01X5800Y39300D01*
G01X5800Y39300D02*
G01X5500Y39300D01*
G01X5800Y41300D02*
G01X5800Y41400D01*
G01X5800Y39300D02*
G01X5800Y39200D01*
G01X4000Y44400D02*
G01X4000Y46400D01*
G01X4000Y46400D02*
G01X4300Y46400D01*
G01X4300Y46400D02*
G01X4600Y46400D01*
G01X4600Y46400D02*
G01X4600Y44400D01*
G01X4600Y44400D02*
G01X4300Y44400D01*
G01X4300Y44400D02*
G01X4000Y44400D01*
G01X4300Y46400D02*
G01X4300Y46500D01*
G01X4300Y44400D02*
G01X4300Y44300D01*
G54D14*
G01X6426Y45088D02*
G01X6426Y46611D01*
G54D10*
G01X2600Y48700D02*
G01X4600Y48700D01*
G01X4600Y48700D02*
G01X4600Y48400D01*
G01X4600Y48400D02*
G01X4600Y48100D01*
G01X4600Y48100D02*
G01X2600Y48100D01*
G01X2600Y48100D02*
G01X2600Y48400D01*
G01X2600Y48400D02*
G01X2600Y48700D01*
G01X4600Y48400D02*
G01X4700Y48400D01*
G01X2600Y48400D02*
G01X2500Y48400D01*
G54D14*
G01X973Y42511D02*
G01X973Y40988D01*
G54D10*
G01X2600Y39300D02*
G01X2600Y41300D01*
G01X2600Y41300D02*
G01X2900Y41300D01*
G01X2900Y41300D02*
G01X3200Y41300D01*
G01X3200Y41300D02*
G01X3200Y39300D01*
G01X3200Y39300D02*
G01X2900Y39300D01*
G01X2900Y39300D02*
G01X2600Y39300D01*
G01X2900Y41300D02*
G01X2900Y41400D01*
G01X2900Y39300D02*
G01X2900Y39200D01*
G01X1200Y44400D02*
G01X1200Y46400D01*
G01X1200Y46400D02*
G01X1500Y46400D01*
G01X1500Y46400D02*
G01X1800Y46400D01*
G01X1800Y46400D02*
G01X1800Y44400D01*
G01X1800Y44400D02*
G01X1500Y44400D01*
G01X1500Y44400D02*
G01X1200Y44400D01*
G01X1500Y46400D02*
G01X1500Y46500D01*
G01X1500Y44400D02*
G01X1500Y44300D01*
G54D14*
G01X3626Y45088D02*
G01X3626Y46611D01*
G54D10*
G01X1200Y50900D02*
G01X1200Y48900D01*
G01X1200Y48900D02*
G01X900Y48900D01*
G01X900Y48900D02*
G01X600Y48900D01*
G01X600Y48900D02*
G01X600Y50900D01*
G01X600Y50900D02*
G01X900Y50900D01*
G01X900Y50900D02*
G01X1200Y50900D01*
G01X900Y48900D02*
G01X900Y48800D01*
G01X900Y50900D02*
G01X900Y51000D01*
G54D14*
G01X28373Y43411D02*
G01X28373Y41888D01*
G54D10*
G01X30200Y40400D02*
G01X30200Y42400D01*
G01X30200Y42400D02*
G01X30500Y42400D01*
G01X30500Y42400D02*
G01X30800Y42400D01*
G01X30800Y42400D02*
G01X30800Y40400D01*
G01X30800Y40400D02*
G01X30500Y40400D01*
G01X30500Y40400D02*
G01X30200Y40400D01*
G01X30500Y42400D02*
G01X30500Y42500D01*
G01X30500Y40400D02*
G01X30500Y40300D01*
G01X28600Y45400D02*
G01X28600Y47400D01*
G01X28600Y47400D02*
G01X28900Y47400D01*
G01X28900Y47400D02*
G01X29200Y47400D01*
G01X29200Y47400D02*
G01X29200Y45400D01*
G01X29200Y45400D02*
G01X28900Y45400D01*
G01X28900Y45400D02*
G01X28600Y45400D01*
G01X28900Y47400D02*
G01X28900Y47500D01*
G01X28900Y45400D02*
G01X28900Y45300D01*
G54D14*
G01X31626Y45988D02*
G01X31626Y47511D01*
G54D10*
G01X28600Y49200D02*
G01X30600Y49200D01*
G01X30600Y49200D02*
G01X30600Y48900D01*
G01X30600Y48900D02*
G01X30600Y48600D01*
G01X30600Y48600D02*
G01X28600Y48600D01*
G01X28600Y48600D02*
G01X28600Y48900D01*
G01X28600Y48900D02*
G01X28600Y49200D01*
G01X30600Y48900D02*
G01X30700Y48900D01*
G01X28600Y48900D02*
G01X28500Y48900D01*
G54D14*
G01X24173Y43411D02*
G01X24173Y41888D01*
G54D10*
G01X26200Y40400D02*
G01X26200Y42400D01*
G01X26200Y42400D02*
G01X26500Y42400D01*
G01X26500Y42400D02*
G01X26800Y42400D01*
G01X26800Y42400D02*
G01X26800Y40400D01*
G01X26800Y40400D02*
G01X26500Y40400D01*
G01X26500Y40400D02*
G01X26200Y40400D01*
G01X26500Y42400D02*
G01X26500Y42500D01*
G01X26500Y40400D02*
G01X26500Y40300D01*
G01X24400Y45400D02*
G01X24400Y47400D01*
G01X24400Y47400D02*
G01X24700Y47400D01*
G01X24700Y47400D02*
G01X25000Y47400D01*
G01X25000Y47400D02*
G01X25000Y45400D01*
G01X25000Y45400D02*
G01X24700Y45400D01*
G01X24700Y45400D02*
G01X24400Y45400D01*
G01X24700Y47400D02*
G01X24700Y47500D01*
G01X24700Y45400D02*
G01X24700Y45300D01*
G54D14*
G01X27426Y45988D02*
G01X27426Y47511D01*
G54D10*
G01X24400Y49200D02*
G01X26400Y49200D01*
G01X26400Y49200D02*
G01X26400Y48900D01*
G01X26400Y48900D02*
G01X26400Y48600D01*
G01X26400Y48600D02*
G01X24400Y48600D01*
G01X24400Y48600D02*
G01X24400Y48900D01*
G01X24400Y48900D02*
G01X24400Y49200D01*
G01X26400Y48900D02*
G01X26500Y48900D01*
G01X24400Y48900D02*
G01X24300Y48900D01*
G01X24100Y33100D02*
G01X26100Y33100D01*
G01X26100Y33100D02*
G01X26100Y32800D01*
G01X26100Y32800D02*
G01X26100Y32500D01*
G01X26100Y32500D02*
G01X24100Y32500D01*
G01X24100Y32500D02*
G01X24100Y32800D01*
G01X24100Y32800D02*
G01X24100Y33100D01*
G01X26100Y32800D02*
G01X26200Y32800D01*
G01X24100Y32800D02*
G01X24000Y32800D01*
G54D14*
G01X27673Y34011D02*
G01X27673Y32488D01*
G54D10*
G01X24100Y31400D02*
G01X26100Y31400D01*
G01X26100Y31400D02*
G01X26100Y31100D01*
G01X26100Y31100D02*
G01X26100Y30800D01*
G01X26100Y30800D02*
G01X24100Y30800D01*
G01X24100Y30800D02*
G01X24100Y31100D01*
G01X24100Y31100D02*
G01X24100Y31400D01*
G01X26100Y31100D02*
G01X26200Y31100D01*
G01X24100Y31100D02*
G01X24000Y31100D01*
G54D12*
G01X35900Y53200D02*
G01X35900Y54200D01*
G01X37900Y54200D01*
G01X37900Y53200D01*
G01X37150Y53200D01*
G54D13*
G01X35900Y53200D02*
G01X37150Y53200D01*
G54D11*
G01X30350Y34300D02*
G01X30350Y32300D01*
G01X29450Y32300D01*
G01X29450Y34300D01*
G01X30350Y34300D01*
G01X30350Y32550D02*
G01X29450Y32550D01*
G54D10*
G01X31400Y31500D02*
G01X31400Y33500D01*
G01X31400Y33500D02*
G01X31700Y33500D01*
G01X31700Y33500D02*
G01X32000Y33500D01*
G01X32000Y33500D02*
G01X32000Y31500D01*
G01X32000Y31500D02*
G01X31700Y31500D01*
G01X31700Y31500D02*
G01X31400Y31500D01*
G01X31700Y33500D02*
G01X31700Y33600D01*
G01X31700Y31500D02*
G01X31700Y31400D01*
G54D14*
G01X33111Y29730D02*
G01X35110Y29730D01*
G01X35110Y30730D01*
G01X33111Y30730D01*
G01X33111Y29730D01*
G01X37968Y32511D02*
G01X37968Y34511D01*
G01X36968Y34511D01*
G01X36968Y32511D01*
G01X37968Y32511D01*
G54D10*
G01X0Y56400D02*
G01X38900Y56400D01*
G01X500Y56100D02*
G01X0Y56400D01*
G01X500Y56700D01*
G01X38400Y56100D02*
G01X38900Y56400D01*
G01X38400Y56700D01*
G01X19840Y57127D02*
G01X19794Y56990D01*
G01X19705Y56900D01*
G01X19567Y56855D01*
G01X19523Y56855D01*
G01X19386Y56900D01*
G01X19294Y56990D01*
G01X19250Y57127D01*
G01X19250Y57173D01*
G01X19294Y57309D01*
G01X19386Y57400D01*
G01X19523Y57444D01*
G01X19567Y57444D01*
G01X19705Y57400D01*
G01X19794Y57309D01*
G01X19840Y57127D01*
G01X19840Y56900D01*
G01X19794Y56673D01*
G01X19705Y56536D01*
G01X19567Y56490D01*
G01X19477Y56490D01*
G01X19340Y56536D01*
G01X19294Y56627D01*
G01X20367Y57444D02*
G01X20232Y57400D01*
G01X20186Y57309D01*
G01X20186Y57217D01*
G01X20232Y57127D01*
G01X20323Y57082D01*
G01X20505Y57036D01*
G01X20640Y56990D01*
G01X20732Y56900D01*
G01X20777Y56809D01*
G01X20777Y56673D01*
G01X20732Y56582D01*
G01X20686Y56536D01*
G01X20550Y56490D01*
G01X20367Y56490D01*
G01X20232Y56536D01*
G01X20186Y56582D01*
G01X20140Y56673D01*
G01X20140Y56809D01*
G01X20186Y56900D01*
G01X20277Y56990D01*
G01X20413Y57036D01*
G01X20594Y57082D01*
G01X20686Y57127D01*
G01X20732Y57217D01*
G01X20732Y57309D01*
G01X20686Y57400D01*
G01X20550Y57444D01*
G01X20367Y57444D01*
G01X21123Y56717D02*
G01X21077Y56673D01*
G01X21123Y56627D01*
G01X21167Y56673D01*
G01X21123Y56717D01*
G01X21694Y57444D02*
G01X21559Y57400D01*
G01X21513Y57309D01*
G01X21513Y57217D01*
G01X21559Y57127D01*
G01X21650Y57082D01*
G01X21832Y57036D01*
G01X21967Y56990D01*
G01X22059Y56900D01*
G01X22105Y56809D01*
G01X22105Y56673D01*
G01X22059Y56582D01*
G01X22013Y56536D01*
G01X21877Y56490D01*
G01X21694Y56490D01*
G01X21559Y56536D01*
G01X21513Y56582D01*
G01X21467Y56673D01*
G01X21467Y56809D01*
G01X21513Y56900D01*
G01X21605Y56990D01*
G01X21740Y57036D01*
G01X21923Y57082D01*
G01X22013Y57127D01*
G01X22059Y57217D01*
G01X22059Y57309D01*
G01X22013Y57400D01*
G01X21877Y57444D01*
G01X21694Y57444D01*
G01X22405Y57263D02*
G01X22494Y57309D01*
G01X22632Y57444D01*
G01X22632Y56490D01*
G01X22932Y57127D02*
G01X22932Y56490D01*
G01X22932Y56944D02*
G01X23067Y57082D01*
G01X23159Y57127D01*
G01X23294Y57127D01*
G01X23386Y57082D01*
G01X23432Y56944D01*
G01X23432Y56490D01*
G01X23432Y56944D02*
G01X23567Y57082D01*
G01X23659Y57127D01*
G01X23794Y57127D01*
G01X23886Y57082D01*
G01X23932Y56944D01*
G01X23932Y56490D01*
G01X24232Y57127D02*
G01X24232Y56490D01*
G01X24232Y56944D02*
G01X24367Y57082D01*
G01X24459Y57127D01*
G01X24594Y57127D01*
G01X24686Y57082D01*
G01X24732Y56944D01*
G01X24732Y56490D01*
G01X24732Y56944D02*
G01X24867Y57082D01*
G01X24959Y57127D01*
G01X25094Y57127D01*
G01X25186Y57082D01*
G01X25232Y56944D01*
G01X25232Y56490D01*
G01X-2000Y55400D02*
G01X-2000Y27800D01*
G01X-1700Y54900D02*
G01X-2000Y55400D01*
G01X-2300Y54900D01*
G01X-1700Y28300D02*
G01X-2000Y27800D01*
G01X-2300Y28300D01*
G01X-2155Y39763D02*
G01X-3109Y40217D01*
G01X-2155Y40400D02*
G01X-2155Y39763D01*
G01X-2155Y39190D02*
G01X-2200Y39327D01*
G01X-2336Y39417D01*
G01X-2563Y39463D01*
G01X-2700Y39463D01*
G01X-2926Y39417D01*
G01X-3063Y39327D01*
G01X-3109Y39190D01*
G01X-3109Y39100D01*
G01X-3063Y38963D01*
G01X-2926Y38873D01*
G01X-2700Y38827D01*
G01X-2563Y38827D01*
G01X-2336Y38873D01*
G01X-2200Y38963D01*
G01X-2155Y39100D01*
G01X-2155Y39190D01*
G01X-2882Y38482D02*
G01X-2926Y38527D01*
G01X-2973Y38482D01*
G01X-2926Y38436D01*
G01X-2882Y38482D01*
G01X-2336Y38136D02*
G01X-2290Y38044D01*
G01X-2155Y37909D01*
G01X-3109Y37909D01*
G01X-2473Y37609D02*
G01X-3109Y37609D01*
G01X-2655Y37609D02*
G01X-2517Y37473D01*
G01X-2473Y37382D01*
G01X-2473Y37244D01*
G01X-2517Y37155D01*
G01X-2655Y37109D01*
G01X-3109Y37109D01*
G01X-2655Y37109D02*
G01X-2517Y36973D01*
G01X-2473Y36882D01*
G01X-2473Y36744D01*
G01X-2517Y36655D01*
G01X-2655Y36609D01*
G01X-3109Y36609D01*
G01X-2473Y36309D02*
G01X-3109Y36309D01*
G01X-2655Y36309D02*
G01X-2517Y36173D01*
G01X-2473Y36082D01*
G01X-2473Y35944D01*
G01X-2517Y35855D01*
G01X-2655Y35809D01*
G01X-3109Y35809D01*
G01X-2655Y35809D02*
G01X-2517Y35673D01*
G01X-2473Y35582D01*
G01X-2473Y35444D01*
G01X-2517Y35355D01*
G01X-2655Y35309D01*
G01X-3109Y35309D01*
G54D16*
G01X20500Y30599D02*
G01X20500Y30170D01*
G01X20500Y30599D02*
G01X20684Y30599D01*
G01X20744Y30579D01*
G01X20765Y30558D01*
G01X20786Y30517D01*
G01X20786Y30456D01*
G01X20765Y30415D01*
G01X20744Y30395D01*
G01X20684Y30374D01*
G01X20500Y30374D01*
G01X20921Y30517D02*
G01X20961Y30538D01*
G01X21023Y30599D01*
G01X21023Y30170D01*
G01X22180Y29065D02*
G01X22180Y28636D01*
G01X22180Y29065D02*
G01X22323Y29065D01*
G01X22384Y29044D01*
G01X22425Y29003D01*
G01X22446Y28963D01*
G01X22465Y28902D01*
G01X22465Y28800D01*
G01X22446Y28738D01*
G01X22425Y28696D01*
G01X22384Y28655D01*
G01X22323Y28636D01*
G01X22180Y28636D01*
G01X22621Y28963D02*
G01X22621Y28984D01*
G01X22642Y29025D01*
G01X22663Y29044D01*
G01X22703Y29065D01*
G01X22784Y29065D01*
G01X22826Y29044D01*
G01X22846Y29025D01*
G01X22867Y28984D01*
G01X22867Y28942D01*
G01X22846Y28902D01*
G01X22805Y28840D01*
G01X22601Y28636D01*
G01X22888Y28636D01*
G01X19905Y35548D02*
G01X19905Y35119D01*
G01X19905Y35548D02*
G01X20088Y35548D01*
G01X20150Y35528D01*
G01X20171Y35507D01*
G01X20190Y35467D01*
G01X20190Y35426D01*
G01X20171Y35384D01*
G01X20150Y35363D01*
G01X20088Y35344D01*
G01X19905Y35344D01*
G01X20048Y35344D02*
G01X20190Y35119D01*
G01X20326Y35548D02*
G01X20326Y35119D01*
G01X20326Y35548D02*
G01X20592Y35548D01*
G01X20326Y35344D02*
G01X20490Y35344D01*
G01X20932Y35548D02*
G01X20727Y35261D01*
G01X21034Y35261D01*
G01X20932Y35548D02*
G01X20932Y35119D01*
G01X21209Y35548D02*
G01X21434Y35548D01*
G01X21311Y35384D01*
G01X21373Y35384D01*
G01X21415Y35363D01*
G01X21434Y35344D01*
G01X21455Y35282D01*
G01X21455Y35242D01*
G01X21434Y35180D01*
G01X21394Y35138D01*
G01X21332Y35119D01*
G01X21271Y35119D01*
G01X21209Y35138D01*
G01X21190Y35159D01*
G01X21169Y35201D01*
G01X21630Y35548D02*
G01X21855Y35548D01*
G01X21734Y35384D01*
G01X21794Y35384D01*
G01X21836Y35363D01*
G01X21855Y35344D01*
G01X21877Y35282D01*
G01X21877Y35242D01*
G01X21855Y35180D01*
G01X21815Y35138D01*
G01X21753Y35119D01*
G01X21692Y35119D01*
G01X21630Y35138D01*
G01X21611Y35159D01*
G01X21590Y35201D01*
G01X34051Y34429D02*
G01X34086Y34450D01*
G01X34155Y34511D01*
G01X34155Y34082D01*
G01X34305Y34409D02*
G01X34305Y34429D01*
G01X34330Y34469D01*
G01X34351Y34490D01*
G01X34386Y34511D01*
G01X34472Y34511D01*
G01X34511Y34490D01*
G01X34530Y34469D01*
G01X34555Y34429D01*
G01X34555Y34388D01*
G01X34530Y34346D01*
G01X34493Y34286D01*
G01X34286Y34082D01*
G01X34576Y34082D01*
G01X34709Y34511D02*
G01X34876Y34082D01*
G01X35034Y34511D02*
G01X34876Y34082D01*
G01X35311Y34511D02*
G01X35311Y34082D01*
G01X35172Y34511D02*
G01X35455Y34511D01*
G01X35711Y34511D02*
G01X35676Y34490D01*
G01X35634Y34450D01*
G01X35611Y34409D01*
G01X35593Y34346D01*
G01X35593Y34244D01*
G01X35611Y34184D01*
G01X35634Y34142D01*
G01X35676Y34104D01*
G01X35711Y34082D01*
G01X35797Y34082D01*
G01X35836Y34104D01*
G01X35880Y34142D01*
G01X35901Y34184D01*
G01X35922Y34244D01*
G01X35922Y34346D01*
G01X35901Y34409D01*
G01X35880Y34450D01*
G01X35836Y34490D01*
G01X35797Y34511D01*
G01X35711Y34511D01*
G01X36301Y34511D02*
G01X36097Y34511D01*
G01X36076Y34329D01*
G01X36097Y34346D01*
G01X36155Y34367D01*
G01X36222Y34367D01*
G01X36280Y34346D01*
G01X36322Y34307D01*
G01X36336Y34244D01*
G01X36336Y34204D01*
G01X36322Y34142D01*
G01X36280Y34104D01*
G01X36222Y34082D01*
G01X36155Y34082D01*
G01X36097Y34104D01*
G01X36076Y34121D01*
G01X36055Y34163D01*
G01X36476Y34511D02*
G01X36636Y34082D01*
G01X36805Y34511D02*
G01X36636Y34082D01*
G01X19719Y42436D02*
G01X19732Y42409D01*
G01X19759Y42380D01*
G01X19788Y42367D01*
G01X19828Y42354D01*
G01X19896Y42354D01*
G01X19938Y42367D01*
G01X19965Y42380D01*
G01X19992Y42409D01*
G01X20005Y42436D01*
G01X20005Y42490D01*
G01X19992Y42517D01*
G01X19965Y42544D01*
G01X19938Y42559D01*
G01X19896Y42571D01*
G01X19828Y42571D01*
G01X19788Y42559D01*
G01X19759Y42544D01*
G01X19732Y42517D01*
G01X19719Y42490D01*
G01X19719Y42436D01*
G01X19951Y42477D02*
G01X20032Y42559D01*
G01X19788Y42676D02*
G01X19773Y42676D01*
G01X19746Y42688D01*
G01X19732Y42703D01*
G01X19719Y42730D01*
G01X19719Y42784D01*
G01X19732Y42811D01*
G01X19746Y42826D01*
G01X19773Y42838D01*
G01X19801Y42838D01*
G01X19828Y42826D01*
G01X19869Y42798D01*
G01X20005Y42661D01*
G01X20005Y42853D01*
G01X22365Y41123D02*
G01X22652Y41123D01*
G01X22365Y41123D02*
G01X22365Y41246D01*
G01X22378Y41288D01*
G01X22392Y41301D01*
G01X22419Y41315D01*
G01X22446Y41315D01*
G01X22473Y41301D01*
G01X22488Y41288D01*
G01X22502Y41246D01*
G01X22502Y41123D01*
G01X22502Y41219D02*
G01X22652Y41315D01*
G01X22365Y41540D02*
G01X22555Y41405D01*
G01X22555Y41609D01*
G01X22365Y41540D02*
G01X22652Y41540D01*
G01X20552Y46138D02*
G01X20838Y46138D01*
G01X20552Y46138D02*
G01X20552Y46261D01*
G01X20565Y46302D01*
G01X20580Y46315D01*
G01X20607Y46329D01*
G01X20634Y46329D01*
G01X20661Y46315D01*
G01X20675Y46302D01*
G01X20688Y46261D01*
G01X20688Y46138D01*
G01X20688Y46232D02*
G01X20838Y46329D01*
G01X20552Y46582D02*
G01X20552Y46446D01*
G01X20675Y46432D01*
G01X20661Y46446D01*
G01X20648Y46486D01*
G01X20648Y46528D01*
G01X20661Y46569D01*
G01X20688Y46596D01*
G01X20730Y46609D01*
G01X20757Y46609D01*
G01X20798Y46596D01*
G01X20825Y46569D01*
G01X20838Y46528D01*
G01X20838Y46486D01*
G01X20825Y46446D01*
G01X20811Y46432D01*
G01X20784Y46419D01*
G01X23463Y46530D02*
G01X23477Y46503D01*
G01X23503Y46475D01*
G01X23532Y46461D01*
G01X23571Y46448D01*
G01X23640Y46448D01*
G01X23682Y46461D01*
G01X23709Y46475D01*
G01X23736Y46503D01*
G01X23750Y46530D01*
G01X23750Y46584D01*
G01X23736Y46611D01*
G01X23709Y46638D01*
G01X23682Y46653D01*
G01X23640Y46665D01*
G01X23571Y46665D01*
G01X23532Y46653D01*
G01X23503Y46638D01*
G01X23477Y46611D01*
G01X23463Y46584D01*
G01X23463Y46530D01*
G01X23694Y46571D02*
G01X23777Y46653D01*
G01X23463Y46782D02*
G01X23463Y46932D01*
G01X23571Y46852D01*
G01X23571Y46892D01*
G01X23586Y46919D01*
G01X23600Y46932D01*
G01X23640Y46946D01*
G01X23667Y46946D01*
G01X23709Y46932D01*
G01X23736Y46905D01*
G01X23750Y46865D01*
G01X23750Y46823D01*
G01X23736Y46782D01*
G01X23721Y46769D01*
G01X23694Y46755D01*
G01X21155Y49034D02*
G01X21155Y48746D01*
G01X21155Y49034D02*
G01X21278Y49034D01*
G01X21319Y49019D01*
G01X21332Y49005D01*
G01X21346Y48979D01*
G01X21346Y48952D01*
G01X21332Y48925D01*
G01X21319Y48911D01*
G01X21278Y48896D01*
G01X21155Y48896D01*
G01X21250Y48896D02*
G01X21346Y48746D01*
G01X21600Y48992D02*
G01X21586Y49019D01*
G01X21544Y49034D01*
G01X21517Y49034D01*
G01X21477Y49019D01*
G01X21450Y48979D01*
G01X21436Y48911D01*
G01X21436Y48842D01*
G01X21450Y48788D01*
G01X21477Y48761D01*
G01X21517Y48746D01*
G01X21530Y48746D01*
G01X21571Y48761D01*
G01X21600Y48788D01*
G01X21613Y48829D01*
G01X21613Y48842D01*
G01X21600Y48884D01*
G01X21571Y48911D01*
G01X21530Y48925D01*
G01X21517Y48925D01*
G01X21477Y48911D01*
G01X21450Y48884D01*
G01X21436Y48842D01*
G01X32355Y48717D02*
G01X32328Y48704D01*
G01X32300Y48677D01*
G01X32286Y48648D01*
G01X32273Y48609D01*
G01X32273Y48540D01*
G01X32286Y48498D01*
G01X32300Y48471D01*
G01X32328Y48444D01*
G01X32355Y48430D01*
G01X32409Y48430D01*
G01X32436Y48444D01*
G01X32463Y48471D01*
G01X32478Y48498D01*
G01X32490Y48540D01*
G01X32490Y48609D01*
G01X32478Y48648D01*
G01X32463Y48677D01*
G01X32436Y48704D01*
G01X32409Y48717D01*
G01X32355Y48717D01*
G01X32396Y48486D02*
G01X32478Y48404D01*
G01X32717Y48717D02*
G01X32580Y48527D01*
G01X32786Y48527D01*
G01X32717Y48717D02*
G01X32717Y48430D01*
G01X34565Y40361D02*
G01X34565Y40075D01*
G01X34565Y40361D02*
G01X34689Y40361D01*
G01X34730Y40348D01*
G01X34743Y40334D01*
G01X34756Y40307D01*
G01X34756Y40280D01*
G01X34743Y40253D01*
G01X34730Y40238D01*
G01X34689Y40225D01*
G01X34565Y40225D01*
G01X34660Y40225D02*
G01X34756Y40075D01*
G01X35038Y40361D02*
G01X34901Y40075D01*
G01X34847Y40361D02*
G01X35038Y40361D01*
G01X33819Y38959D02*
G01X33793Y38946D01*
G01X33764Y38919D01*
G01X33752Y38890D01*
G01X33738Y38851D01*
G01X33738Y38782D01*
G01X33752Y38740D01*
G01X33764Y38713D01*
G01X33793Y38686D01*
G01X33819Y38673D01*
G01X33873Y38673D01*
G01X33902Y38686D01*
G01X33929Y38713D01*
G01X33943Y38740D01*
G01X33956Y38782D01*
G01X33956Y38851D01*
G01X33943Y38890D01*
G01X33929Y38919D01*
G01X33902Y38946D01*
G01X33873Y38959D01*
G01X33819Y38959D01*
G01X33860Y38728D02*
G01X33943Y38646D01*
G01X34210Y38959D02*
G01X34072Y38959D01*
G01X34060Y38836D01*
G01X34072Y38851D01*
G01X34114Y38863D01*
G01X34155Y38863D01*
G01X34196Y38851D01*
G01X34222Y38823D01*
G01X34236Y38782D01*
G01X34236Y38755D01*
G01X34222Y38713D01*
G01X34196Y38686D01*
G01X34155Y38673D01*
G01X34114Y38673D01*
G01X34072Y38686D01*
G01X34060Y38701D01*
G01X34046Y38728D01*
G01X32332Y38167D02*
G01X32332Y37880D01*
G01X32332Y38167D02*
G01X32455Y38167D01*
G01X32496Y38153D01*
G01X32509Y38138D01*
G01X32523Y38111D01*
G01X32523Y38084D01*
G01X32509Y38057D01*
G01X32496Y38044D01*
G01X32455Y38030D01*
G01X32332Y38030D01*
G01X32427Y38030D02*
G01X32523Y37880D01*
G01X32680Y38167D02*
G01X32640Y38153D01*
G01X32627Y38126D01*
G01X32627Y38098D01*
G01X32640Y38071D01*
G01X32667Y38057D01*
G01X32721Y38044D01*
G01X32763Y38030D01*
G01X32790Y38003D01*
G01X32804Y37976D01*
G01X32804Y37934D01*
G01X32790Y37907D01*
G01X32777Y37894D01*
G01X32736Y37880D01*
G01X32680Y37880D01*
G01X32640Y37894D01*
G01X32627Y37907D01*
G01X32613Y37934D01*
G01X32613Y37976D01*
G01X32627Y38003D01*
G01X32653Y38030D01*
G01X32694Y38044D01*
G01X32748Y38057D01*
G01X32777Y38071D01*
G01X32790Y38098D01*
G01X32790Y38126D01*
G01X32777Y38153D01*
G01X32736Y38167D01*
G01X32680Y38167D01*
G01X2869Y55067D02*
G01X2869Y54638D01*
G01X2869Y55067D02*
G01X3013Y55067D01*
G01X3075Y55046D01*
G01X3115Y55005D01*
G01X3136Y54965D01*
G01X3155Y54904D01*
G01X3155Y54802D01*
G01X3136Y54740D01*
G01X3115Y54698D01*
G01X3075Y54657D01*
G01X3013Y54638D01*
G01X2869Y54638D01*
G01X3290Y55067D02*
G01X3290Y54638D01*
G01X3713Y55005D02*
G01X3671Y55046D01*
G01X3609Y55067D01*
G01X3528Y55067D01*
G01X3467Y55046D01*
G01X3426Y55005D01*
G01X3426Y54965D01*
G01X3446Y54923D01*
G01X3467Y54904D01*
G01X3507Y54882D01*
G01X3630Y54842D01*
G01X3671Y54821D01*
G01X3692Y54802D01*
G01X3713Y54761D01*
G01X3713Y54698D01*
G01X3671Y54657D01*
G01X3609Y54638D01*
G01X3528Y54638D01*
G01X3467Y54657D01*
G01X3426Y54698D01*
G01X3848Y55067D02*
G01X3848Y54638D01*
G01X3848Y55067D02*
G01X4032Y55067D01*
G01X4092Y55046D01*
G01X4113Y55027D01*
G01X4134Y54986D01*
G01X4134Y54923D01*
G01X4113Y54882D01*
G01X4092Y54863D01*
G01X4032Y54842D01*
G01X3848Y54842D01*
G01X4269Y55067D02*
G01X4269Y54638D01*
G01X4269Y54638D02*
G01X4515Y54638D01*
G01X4813Y55067D02*
G01X4650Y54638D01*
G01X4813Y55067D02*
G01X4976Y54638D01*
G01X4711Y54780D02*
G01X4915Y54780D01*
G01X5111Y55067D02*
G01X5275Y54863D01*
G01X5275Y54638D01*
G01X5438Y55067D02*
G01X5275Y54863D01*
G01X5573Y54494D02*
G01X5942Y54494D01*
G01X6200Y55067D02*
G01X6159Y55046D01*
G01X6117Y55005D01*
G01X6098Y54965D01*
G01X6076Y54904D01*
G01X6076Y54802D01*
G01X6098Y54740D01*
G01X6117Y54698D01*
G01X6159Y54657D01*
G01X6200Y54638D01*
G01X6282Y54638D01*
G01X6323Y54657D01*
G01X6363Y54698D01*
G01X6384Y54740D01*
G01X6405Y54802D01*
G01X6405Y54904D01*
G01X6384Y54965D01*
G01X6363Y55005D01*
G01X6323Y55046D01*
G01X6282Y55067D01*
G01X6200Y55067D01*
G01X6540Y55067D02*
G01X6540Y54761D01*
G01X6559Y54698D01*
G01X6601Y54657D01*
G01X6661Y54638D01*
G01X6703Y54638D01*
G01X6765Y54657D01*
G01X6805Y54698D01*
G01X6826Y54761D01*
G01X6826Y55067D01*
G01X7103Y55067D02*
G01X7103Y54638D01*
G01X6961Y55067D02*
G01X7246Y55067D01*
G01X7382Y55067D02*
G01X7382Y54638D01*
G01X7382Y55067D02*
G01X7565Y55067D01*
G01X7628Y55046D01*
G01X7648Y55027D01*
G01X7669Y54986D01*
G01X7669Y54923D01*
G01X7648Y54882D01*
G01X7628Y54863D01*
G01X7565Y54842D01*
G01X7382Y54842D01*
G01X7803Y55067D02*
G01X7803Y54761D01*
G01X7823Y54698D01*
G01X7865Y54657D01*
G01X7926Y54638D01*
G01X7967Y54638D01*
G01X8028Y54657D01*
G01X8069Y54698D01*
G01X8090Y54761D01*
G01X8090Y55067D01*
G01X8367Y55067D02*
G01X8367Y54638D01*
G01X8225Y55067D02*
G01X8511Y55067D01*
G01X15530Y42369D02*
G01X15544Y42342D01*
G01X15571Y42313D01*
G01X15600Y42301D01*
G01X15638Y42286D01*
G01X15709Y42286D01*
G01X15750Y42301D01*
G01X15776Y42313D01*
G01X15803Y42342D01*
G01X15817Y42369D01*
G01X15817Y42423D01*
G01X15803Y42451D01*
G01X15776Y42478D01*
G01X15750Y42492D01*
G01X15709Y42505D01*
G01X15638Y42505D01*
G01X15600Y42492D01*
G01X15571Y42478D01*
G01X15544Y42451D01*
G01X15530Y42423D01*
G01X15530Y42369D01*
G01X15761Y42409D02*
G01X15844Y42492D01*
G01X15530Y42663D02*
G01X15544Y42621D01*
G01X15571Y42609D01*
G01X15600Y42609D01*
G01X15626Y42621D01*
G01X15638Y42650D01*
G01X15653Y42704D01*
G01X15667Y42744D01*
G01X15694Y42771D01*
G01X15721Y42786D01*
G01X15761Y42786D01*
G01X15788Y42771D01*
G01X15803Y42759D01*
G01X15817Y42717D01*
G01X15817Y42663D01*
G01X15803Y42621D01*
G01X15788Y42609D01*
G01X15761Y42594D01*
G01X15721Y42594D01*
G01X15694Y42609D01*
G01X15667Y42636D01*
G01X15653Y42677D01*
G01X15638Y42732D01*
G01X15626Y42759D01*
G01X15600Y42771D01*
G01X15571Y42771D01*
G01X15544Y42759D01*
G01X15530Y42717D01*
G01X15530Y42663D01*
G01X18361Y41044D02*
G01X18648Y41044D01*
G01X18361Y41044D02*
G01X18361Y41167D01*
G01X18375Y41207D01*
G01X18388Y41221D01*
G01X18415Y41234D01*
G01X18442Y41234D01*
G01X18469Y41221D01*
G01X18484Y41207D01*
G01X18498Y41167D01*
G01X18498Y41044D01*
G01X18498Y41138D02*
G01X18648Y41234D01*
G01X18415Y41325D02*
G01X18402Y41352D01*
G01X18361Y41392D01*
G01X18648Y41392D01*
G01X18430Y41496D02*
G01X18415Y41496D01*
G01X18388Y41509D01*
G01X18375Y41523D01*
G01X18361Y41551D01*
G01X18361Y41605D01*
G01X18375Y41632D01*
G01X18388Y41646D01*
G01X18415Y41659D01*
G01X18442Y41659D01*
G01X18469Y41646D01*
G01X18511Y41619D01*
G01X18648Y41482D01*
G01X18648Y41673D01*
G01X16388Y46059D02*
G01X16675Y46059D01*
G01X16388Y46059D02*
G01X16388Y46182D01*
G01X16402Y46223D01*
G01X16415Y46236D01*
G01X16442Y46251D01*
G01X16469Y46251D01*
G01X16496Y46236D01*
G01X16511Y46223D01*
G01X16525Y46182D01*
G01X16525Y46059D01*
G01X16525Y46155D02*
G01X16675Y46251D01*
G01X16442Y46340D02*
G01X16428Y46367D01*
G01X16388Y46409D01*
G01X16675Y46409D01*
G01X16388Y46526D02*
G01X16388Y46676D01*
G01X16496Y46594D01*
G01X16496Y46634D01*
G01X16511Y46663D01*
G01X16525Y46676D01*
G01X16565Y46690D01*
G01X16592Y46690D01*
G01X16634Y46676D01*
G01X16661Y46648D01*
G01X16675Y46607D01*
G01X16675Y46567D01*
G01X16661Y46526D01*
G01X16646Y46513D01*
G01X16619Y46498D01*
G01X19378Y46621D02*
G01X19392Y46594D01*
G01X19419Y46567D01*
G01X19448Y46554D01*
G01X19488Y46540D01*
G01X19557Y46540D01*
G01X19598Y46554D01*
G01X19625Y46567D01*
G01X19652Y46594D01*
G01X19665Y46621D01*
G01X19665Y46676D01*
G01X19652Y46704D01*
G01X19625Y46730D01*
G01X19598Y46744D01*
G01X19557Y46757D01*
G01X19488Y46757D01*
G01X19448Y46744D01*
G01X19419Y46730D01*
G01X19392Y46704D01*
G01X19378Y46676D01*
G01X19378Y46621D01*
G01X19611Y46663D02*
G01X19692Y46744D01*
G01X19475Y47025D02*
G01X19515Y47011D01*
G01X19542Y46984D01*
G01X19557Y46944D01*
G01X19557Y46930D01*
G01X19542Y46888D01*
G01X19515Y46861D01*
G01X19475Y46848D01*
G01X19461Y46848D01*
G01X19419Y46861D01*
G01X19392Y46888D01*
G01X19378Y46930D01*
G01X19378Y46944D01*
G01X19392Y46984D01*
G01X19419Y47011D01*
G01X19475Y47025D01*
G01X19542Y47025D01*
G01X19611Y47011D01*
G01X19652Y46984D01*
G01X19665Y46944D01*
G01X19665Y46915D01*
G01X19652Y46875D01*
G01X19625Y46861D01*
G01X16946Y49040D02*
G01X16946Y48753D01*
G01X16946Y49040D02*
G01X17069Y49040D01*
G01X17109Y49026D01*
G01X17123Y49011D01*
G01X17136Y48984D01*
G01X17136Y48957D01*
G01X17123Y48930D01*
G01X17109Y48917D01*
G01X17069Y48903D01*
G01X16946Y48903D01*
G01X17040Y48903D02*
G01X17136Y48753D01*
G01X17227Y48984D02*
G01X17253Y48998D01*
G01X17294Y49040D01*
G01X17294Y48753D01*
G01X17521Y49040D02*
G01X17384Y48848D01*
G01X17590Y48848D01*
G01X17521Y49040D02*
G01X17521Y48753D01*
G01X11567Y42526D02*
G01X11580Y42498D01*
G01X11607Y42471D01*
G01X11636Y42457D01*
G01X11676Y42444D01*
G01X11744Y42444D01*
G01X11786Y42457D01*
G01X11813Y42471D01*
G01X11840Y42498D01*
G01X11853Y42526D01*
G01X11853Y42580D01*
G01X11840Y42607D01*
G01X11813Y42634D01*
G01X11786Y42648D01*
G01X11744Y42661D01*
G01X11676Y42661D01*
G01X11636Y42648D01*
G01X11607Y42634D01*
G01X11580Y42607D01*
G01X11567Y42580D01*
G01X11567Y42526D01*
G01X11798Y42567D02*
G01X11880Y42648D01*
G01X11607Y42915D02*
G01X11580Y42902D01*
G01X11567Y42861D01*
G01X11567Y42834D01*
G01X11580Y42792D01*
G01X11621Y42765D01*
G01X11690Y42752D01*
G01X11757Y42752D01*
G01X11813Y42765D01*
G01X11840Y42792D01*
G01X11853Y42834D01*
G01X11853Y42848D01*
G01X11840Y42888D01*
G01X11813Y42915D01*
G01X11771Y42929D01*
G01X11757Y42929D01*
G01X11717Y42915D01*
G01X11690Y42888D01*
G01X11676Y42848D01*
G01X11676Y42834D01*
G01X11690Y42792D01*
G01X11717Y42765D01*
G01X11757Y42752D01*
G01X14344Y41021D02*
G01X14630Y41021D01*
G01X14344Y41021D02*
G01X14344Y41144D01*
G01X14357Y41186D01*
G01X14371Y41198D01*
G01X14398Y41213D01*
G01X14426Y41213D01*
G01X14453Y41198D01*
G01X14467Y41186D01*
G01X14480Y41144D01*
G01X14480Y41021D01*
G01X14480Y41117D02*
G01X14630Y41213D01*
G01X14398Y41303D02*
G01X14384Y41330D01*
G01X14344Y41371D01*
G01X14630Y41371D01*
G01X14344Y41542D02*
G01X14357Y41502D01*
G01X14398Y41475D01*
G01X14467Y41461D01*
G01X14507Y41461D01*
G01X14576Y41475D01*
G01X14617Y41502D01*
G01X14630Y41542D01*
G01X14630Y41569D01*
G01X14617Y41611D01*
G01X14576Y41638D01*
G01X14507Y41652D01*
G01X14467Y41652D01*
G01X14398Y41638D01*
G01X14357Y41611D01*
G01X14344Y41569D01*
G01X14344Y41542D01*
G01X12369Y46111D02*
G01X12655Y46111D01*
G01X12369Y46111D02*
G01X12369Y46234D01*
G01X12382Y46276D01*
G01X12396Y46288D01*
G01X12423Y46303D01*
G01X12451Y46303D01*
G01X12478Y46288D01*
G01X12492Y46276D01*
G01X12505Y46234D01*
G01X12505Y46111D01*
G01X12505Y46207D02*
G01X12655Y46303D01*
G01X12423Y46392D02*
G01X12409Y46419D01*
G01X12369Y46461D01*
G01X12655Y46461D01*
G01X12423Y46551D02*
G01X12409Y46578D01*
G01X12369Y46619D01*
G01X12655Y46619D01*
G01X15290Y46546D02*
G01X15305Y46519D01*
G01X15332Y46492D01*
G01X15359Y46479D01*
G01X15400Y46465D01*
G01X15469Y46465D01*
G01X15509Y46479D01*
G01X15536Y46492D01*
G01X15563Y46519D01*
G01X15578Y46546D01*
G01X15578Y46601D01*
G01X15563Y46629D01*
G01X15536Y46655D01*
G01X15509Y46669D01*
G01X15469Y46682D01*
G01X15400Y46682D01*
G01X15359Y46669D01*
G01X15332Y46655D01*
G01X15305Y46629D01*
G01X15290Y46601D01*
G01X15290Y46546D01*
G01X15523Y46588D02*
G01X15605Y46669D01*
G01X15290Y46963D02*
G01X15578Y46828D01*
G01X15290Y46773D02*
G01X15290Y46963D01*
G01X12861Y49036D02*
G01X12861Y48748D01*
G01X12861Y49036D02*
G01X12984Y49036D01*
G01X13025Y49021D01*
G01X13038Y49007D01*
G01X13051Y48980D01*
G01X13051Y48954D01*
G01X13038Y48927D01*
G01X13025Y48913D01*
G01X12984Y48898D01*
G01X12861Y48898D01*
G01X12955Y48898D02*
G01X13051Y48748D01*
G01X13142Y48980D02*
G01X13169Y48994D01*
G01X13209Y49036D01*
G01X13209Y48748D01*
G01X13463Y49036D02*
G01X13326Y49036D01*
G01X13313Y48913D01*
G01X13326Y48927D01*
G01X13367Y48940D01*
G01X13409Y48940D01*
G01X13450Y48927D01*
G01X13476Y48898D01*
G01X13490Y48857D01*
G01X13490Y48830D01*
G01X13476Y48790D01*
G01X13450Y48763D01*
G01X13409Y48748D01*
G01X13367Y48748D01*
G01X13326Y48763D01*
G01X13313Y48777D01*
G01X13300Y48804D01*
G01X6542Y41530D02*
G01X6555Y41503D01*
G01X6582Y41475D01*
G01X6611Y41463D01*
G01X6651Y41448D01*
G01X6719Y41448D01*
G01X6761Y41463D01*
G01X6788Y41475D01*
G01X6815Y41503D01*
G01X6828Y41530D01*
G01X6828Y41584D01*
G01X6815Y41613D01*
G01X6788Y41640D01*
G01X6761Y41653D01*
G01X6719Y41667D01*
G01X6651Y41667D01*
G01X6611Y41653D01*
G01X6582Y41640D01*
G01X6555Y41613D01*
G01X6542Y41584D01*
G01X6542Y41530D01*
G01X6773Y41571D02*
G01X6855Y41653D01*
G01X6596Y41757D02*
G01X6582Y41784D01*
G01X6542Y41823D01*
G01X6828Y41823D01*
G01X6542Y41996D02*
G01X6555Y41955D01*
G01X6596Y41928D01*
G01X6665Y41915D01*
G01X6705Y41915D01*
G01X6773Y41928D01*
G01X6815Y41955D01*
G01X6828Y41996D01*
G01X6828Y42023D01*
G01X6815Y42065D01*
G01X6773Y42092D01*
G01X6705Y42105D01*
G01X6665Y42105D01*
G01X6596Y42092D01*
G01X6555Y42065D01*
G01X6542Y42023D01*
G01X6542Y41996D01*
G01X9171Y40001D02*
G01X9457Y40001D01*
G01X9171Y40001D02*
G01X9171Y40123D01*
G01X9184Y40165D01*
G01X9198Y40178D01*
G01X9226Y40192D01*
G01X9253Y40192D01*
G01X9280Y40178D01*
G01X9294Y40165D01*
G01X9307Y40123D01*
G01X9307Y40001D01*
G01X9307Y40096D02*
G01X9457Y40192D01*
G01X9267Y40459D02*
G01X9307Y40446D01*
G01X9334Y40417D01*
G01X9348Y40377D01*
G01X9348Y40363D01*
G01X9334Y40323D01*
G01X9307Y40296D01*
G01X9267Y40282D01*
G01X9253Y40282D01*
G01X9211Y40296D01*
G01X9184Y40323D01*
G01X9171Y40363D01*
G01X9171Y40377D01*
G01X9184Y40417D01*
G01X9211Y40446D01*
G01X9267Y40459D01*
G01X9334Y40459D01*
G01X9403Y40446D01*
G01X9444Y40417D01*
G01X9457Y40377D01*
G01X9457Y40350D01*
G01X9444Y40309D01*
G01X9417Y40296D01*
G01X7340Y45071D02*
G01X7628Y45071D01*
G01X7340Y45071D02*
G01X7340Y45194D01*
G01X7355Y45236D01*
G01X7369Y45248D01*
G01X7396Y45263D01*
G01X7423Y45263D01*
G01X7450Y45248D01*
G01X7463Y45236D01*
G01X7478Y45194D01*
G01X7478Y45071D01*
G01X7478Y45167D02*
G01X7628Y45263D01*
G01X7396Y45353D02*
G01X7382Y45380D01*
G01X7340Y45421D01*
G01X7628Y45421D01*
G01X7382Y45675D02*
G01X7355Y45661D01*
G01X7340Y45619D01*
G01X7340Y45592D01*
G01X7355Y45552D01*
G01X7396Y45525D01*
G01X7463Y45511D01*
G01X7532Y45511D01*
G01X7586Y45525D01*
G01X7613Y45552D01*
G01X7628Y45592D01*
G01X7628Y45607D01*
G01X7613Y45646D01*
G01X7586Y45675D01*
G01X7546Y45688D01*
G01X7532Y45688D01*
G01X7490Y45675D01*
G01X7463Y45646D01*
G01X7450Y45607D01*
G01X7450Y45592D01*
G01X7463Y45552D01*
G01X7490Y45525D01*
G01X7532Y45511D01*
G01X9886Y45530D02*
G01X9901Y45503D01*
G01X9928Y45475D01*
G01X9955Y45461D01*
G01X9996Y45448D01*
G01X10065Y45448D01*
G01X10105Y45461D01*
G01X10132Y45475D01*
G01X10159Y45503D01*
G01X10173Y45530D01*
G01X10173Y45584D01*
G01X10159Y45611D01*
G01X10132Y45638D01*
G01X10105Y45653D01*
G01X10065Y45665D01*
G01X9996Y45665D01*
G01X9955Y45653D01*
G01X9928Y45638D01*
G01X9901Y45611D01*
G01X9886Y45584D01*
G01X9886Y45530D01*
G01X10119Y45571D02*
G01X10201Y45653D01*
G01X9942Y45755D02*
G01X9928Y45782D01*
G01X9886Y45823D01*
G01X10173Y45823D01*
G01X9942Y45913D02*
G01X9928Y45942D01*
G01X9886Y45982D01*
G01X10173Y45982D01*
G01X7478Y48536D02*
G01X7478Y48248D01*
G01X7478Y48536D02*
G01X7601Y48536D01*
G01X7642Y48521D01*
G01X7655Y48507D01*
G01X7669Y48480D01*
G01X7669Y48454D01*
G01X7655Y48427D01*
G01X7642Y48413D01*
G01X7601Y48398D01*
G01X7478Y48398D01*
G01X7573Y48398D02*
G01X7669Y48248D01*
G01X7759Y48480D02*
G01X7786Y48494D01*
G01X7826Y48536D01*
G01X7826Y48248D01*
G01X8107Y48536D02*
G01X7971Y48248D01*
G01X7917Y48536D02*
G01X8107Y48536D01*
G01X5063Y41990D02*
G01X5050Y42015D01*
G01X5023Y42044D01*
G01X4994Y42059D01*
G01X4953Y42071D01*
G01X4884Y42071D01*
G01X4844Y42059D01*
G01X4817Y42044D01*
G01X4790Y42015D01*
G01X4776Y41990D01*
G01X4776Y41936D01*
G01X4790Y41909D01*
G01X4817Y41882D01*
G01X4844Y41865D01*
G01X4884Y41855D01*
G01X4953Y41855D01*
G01X4994Y41865D01*
G01X5023Y41882D01*
G01X5050Y41909D01*
G01X5063Y41936D01*
G01X5063Y41990D01*
G01X4830Y41948D02*
G01X4750Y41865D01*
G01X5007Y41763D02*
G01X5023Y41738D01*
G01X5063Y41694D01*
G01X4776Y41694D01*
G01X4994Y41590D02*
G01X5007Y41590D01*
G01X5034Y41578D01*
G01X5050Y41565D01*
G01X5063Y41538D01*
G01X5063Y41484D01*
G01X5050Y41457D01*
G01X5034Y41440D01*
G01X5007Y41428D01*
G01X4980Y41428D01*
G01X4953Y41440D01*
G01X4913Y41467D01*
G01X4776Y41607D01*
G01X4776Y41415D01*
G01X5630Y39982D02*
G01X5917Y39982D01*
G01X5630Y39982D02*
G01X5630Y40105D01*
G01X5644Y40146D01*
G01X5659Y40159D01*
G01X5686Y40173D01*
G01X5713Y40173D01*
G01X5740Y40159D01*
G01X5753Y40146D01*
G01X5767Y40105D01*
G01X5767Y39982D01*
G01X5767Y40077D02*
G01X5917Y40173D01*
G01X5686Y40263D02*
G01X5671Y40290D01*
G01X5630Y40330D01*
G01X5917Y40330D01*
G01X5630Y40488D02*
G01X5644Y40448D01*
G01X5671Y40434D01*
G01X5700Y40434D01*
G01X5726Y40448D01*
G01X5740Y40476D01*
G01X5753Y40530D01*
G01X5767Y40571D01*
G01X5794Y40598D01*
G01X5821Y40611D01*
G01X5863Y40611D01*
G01X5890Y40598D01*
G01X5903Y40584D01*
G01X5917Y40544D01*
G01X5917Y40488D01*
G01X5903Y40448D01*
G01X5890Y40434D01*
G01X5863Y40421D01*
G01X5821Y40421D01*
G01X5794Y40434D01*
G01X5767Y40461D01*
G01X5753Y40503D01*
G01X5740Y40557D01*
G01X5726Y40584D01*
G01X5700Y40598D01*
G01X5671Y40598D01*
G01X5644Y40584D01*
G01X5630Y40544D01*
G01X5630Y40488D01*
G01X4173Y45063D02*
G01X4461Y45063D01*
G01X4173Y45063D02*
G01X4173Y45186D01*
G01X4188Y45227D01*
G01X4201Y45240D01*
G01X4228Y45254D01*
G01X4255Y45254D01*
G01X4282Y45240D01*
G01X4296Y45227D01*
G01X4311Y45186D01*
G01X4311Y45063D01*
G01X4311Y45157D02*
G01X4461Y45254D01*
G01X4228Y45344D02*
G01X4215Y45371D01*
G01X4173Y45411D01*
G01X4461Y45411D01*
G01X4269Y45679D02*
G01X4311Y45665D01*
G01X4338Y45638D01*
G01X4351Y45598D01*
G01X4351Y45584D01*
G01X4338Y45542D01*
G01X4311Y45515D01*
G01X4269Y45502D01*
G01X4255Y45502D01*
G01X4215Y45515D01*
G01X4188Y45542D01*
G01X4173Y45584D01*
G01X4173Y45598D01*
G01X4188Y45638D01*
G01X4215Y45665D01*
G01X4269Y45679D01*
G01X4338Y45679D01*
G01X4405Y45665D01*
G01X4446Y45638D01*
G01X4461Y45598D01*
G01X4461Y45569D01*
G01X4446Y45529D01*
G01X4419Y45515D01*
G01X6573Y45536D02*
G01X6588Y45509D01*
G01X6615Y45482D01*
G01X6642Y45469D01*
G01X6684Y45455D01*
G01X6753Y45455D01*
G01X6792Y45469D01*
G01X6819Y45482D01*
G01X6846Y45509D01*
G01X6861Y45536D01*
G01X6861Y45592D01*
G01X6846Y45619D01*
G01X6819Y45646D01*
G01X6792Y45659D01*
G01X6753Y45673D01*
G01X6684Y45673D01*
G01X6642Y45659D01*
G01X6615Y45646D01*
G01X6588Y45619D01*
G01X6573Y45592D01*
G01X6573Y45536D01*
G01X6807Y45579D02*
G01X6888Y45659D01*
G01X6630Y45763D02*
G01X6615Y45790D01*
G01X6573Y45830D01*
G01X6861Y45830D01*
G01X6573Y45950D02*
G01X6573Y46100D01*
G01X6684Y46017D01*
G01X6684Y46057D01*
G01X6696Y46084D01*
G01X6711Y46100D01*
G01X6753Y46111D01*
G01X6780Y46111D01*
G01X6819Y46100D01*
G01X6846Y46071D01*
G01X6861Y46030D01*
G01X6861Y45990D01*
G01X6846Y45950D01*
G01X6834Y45934D01*
G01X6807Y45921D01*
G01X3280Y48546D02*
G01X3280Y48259D01*
G01X3280Y48546D02*
G01X3403Y48546D01*
G01X3444Y48532D01*
G01X3457Y48517D01*
G01X3471Y48490D01*
G01X3471Y48463D01*
G01X3457Y48436D01*
G01X3444Y48423D01*
G01X3403Y48409D01*
G01X3280Y48409D01*
G01X3376Y48409D02*
G01X3471Y48259D01*
G01X3576Y48477D02*
G01X3576Y48490D01*
G01X3588Y48517D01*
G01X3603Y48532D01*
G01X3630Y48546D01*
G01X3684Y48546D01*
G01X3711Y48532D01*
G01X3726Y48517D01*
G01X3738Y48490D01*
G01X3738Y48463D01*
G01X3726Y48436D01*
G01X3698Y48396D01*
G01X3561Y48259D01*
G01X3753Y48259D01*
G01X3925Y48546D02*
G01X3884Y48532D01*
G01X3855Y48490D01*
G01X3842Y48423D01*
G01X3842Y48382D01*
G01X3855Y48313D01*
G01X3884Y48273D01*
G01X3925Y48259D01*
G01X3951Y48259D01*
G01X3992Y48273D01*
G01X4019Y48313D01*
G01X4034Y48382D01*
G01X4034Y48423D01*
G01X4019Y48490D01*
G01X3992Y48532D01*
G01X3951Y48546D01*
G01X3925Y48546D01*
G01X436Y41594D02*
G01X450Y41565D01*
G01X476Y41538D01*
G01X503Y41527D01*
G01X544Y41511D01*
G01X613Y41511D01*
G01X653Y41527D01*
G01X680Y41538D01*
G01X709Y41565D01*
G01X721Y41594D01*
G01X721Y41648D01*
G01X709Y41677D01*
G01X680Y41704D01*
G01X653Y41715D01*
G01X613Y41730D01*
G01X544Y41730D01*
G01X503Y41715D01*
G01X476Y41704D01*
G01X450Y41677D01*
G01X436Y41648D01*
G01X436Y41594D01*
G01X667Y41634D02*
G01X750Y41715D01*
G01X490Y41821D02*
G01X476Y41848D01*
G01X436Y41886D01*
G01X721Y41886D01*
G01X436Y42113D02*
G01X626Y41979D01*
G01X626Y42182D01*
G01X436Y42113D02*
G01X721Y42113D01*
G01X2757Y39977D02*
G01X3044Y39977D01*
G01X2757Y39977D02*
G01X2757Y40100D01*
G01X2771Y40140D01*
G01X2784Y40154D01*
G01X2811Y40167D01*
G01X2838Y40167D01*
G01X2865Y40154D01*
G01X2880Y40140D01*
G01X2894Y40100D01*
G01X2894Y39977D01*
G01X2894Y40071D02*
G01X3044Y40167D01*
G01X2826Y40271D02*
G01X2811Y40271D01*
G01X2784Y40284D01*
G01X2771Y40298D01*
G01X2757Y40326D01*
G01X2757Y40380D01*
G01X2771Y40407D01*
G01X2784Y40421D01*
G01X2811Y40434D01*
G01X2838Y40434D01*
G01X2865Y40421D01*
G01X2907Y40394D01*
G01X3044Y40257D01*
G01X3044Y40448D01*
G01X2811Y40538D02*
G01X2798Y40565D01*
G01X2757Y40607D01*
G01X3044Y40607D01*
G01X1346Y45003D02*
G01X1634Y45003D01*
G01X1346Y45003D02*
G01X1346Y45126D01*
G01X1361Y45167D01*
G01X1375Y45180D01*
G01X1401Y45194D01*
G01X1428Y45194D01*
G01X1455Y45180D01*
G01X1469Y45167D01*
G01X1484Y45126D01*
G01X1484Y45003D01*
G01X1484Y45098D02*
G01X1634Y45194D01*
G01X1415Y45298D02*
G01X1401Y45298D01*
G01X1375Y45311D01*
G01X1361Y45325D01*
G01X1346Y45352D01*
G01X1346Y45407D01*
G01X1361Y45434D01*
G01X1375Y45448D01*
G01X1401Y45461D01*
G01X1428Y45461D01*
G01X1455Y45448D01*
G01X1496Y45419D01*
G01X1634Y45284D01*
G01X1634Y45475D01*
G01X1415Y45578D02*
G01X1401Y45578D01*
G01X1375Y45592D01*
G01X1361Y45605D01*
G01X1346Y45632D01*
G01X1346Y45688D01*
G01X1361Y45715D01*
G01X1375Y45728D01*
G01X1401Y45742D01*
G01X1428Y45742D01*
G01X1455Y45728D01*
G01X1496Y45701D01*
G01X1634Y45565D01*
G01X1634Y45755D01*
G01X2311Y45607D02*
G01X2321Y45580D01*
G01X2348Y45552D01*
G01X2380Y45538D01*
G01X2417Y45526D01*
G01X2488Y45526D01*
G01X2530Y45538D01*
G01X2557Y45552D01*
G01X2584Y45580D01*
G01X2594Y45607D01*
G01X2594Y45661D01*
G01X2584Y45688D01*
G01X2557Y45717D01*
G01X2530Y45730D01*
G01X2488Y45744D01*
G01X2417Y45744D01*
G01X2380Y45730D01*
G01X2348Y45717D01*
G01X2321Y45688D01*
G01X2311Y45661D01*
G01X2311Y45607D01*
G01X2540Y45648D02*
G01X2621Y45730D01*
G01X2365Y45832D02*
G01X2348Y45859D01*
G01X2311Y45902D01*
G01X2594Y45902D01*
G01X2311Y46155D02*
G01X2311Y46019D01*
G01X2434Y46005D01*
G01X2417Y46019D01*
G01X2407Y46059D01*
G01X2407Y46101D01*
G01X2417Y46142D01*
G01X2444Y46169D01*
G01X2488Y46182D01*
G01X2515Y46182D01*
G01X2557Y46169D01*
G01X2584Y46142D01*
G01X2594Y46101D01*
G01X2594Y46059D01*
G01X2584Y46019D01*
G01X2567Y46005D01*
G01X2540Y45992D01*
G01X763Y49490D02*
G01X1051Y49490D01*
G01X763Y49490D02*
G01X763Y49613D01*
G01X778Y49654D01*
G01X792Y49667D01*
G01X819Y49680D01*
G01X846Y49680D01*
G01X873Y49667D01*
G01X886Y49654D01*
G01X901Y49613D01*
G01X901Y49490D01*
G01X901Y49584D02*
G01X1051Y49680D01*
G01X832Y49784D02*
G01X819Y49784D01*
G01X792Y49798D01*
G01X778Y49811D01*
G01X763Y49838D01*
G01X763Y49894D01*
G01X778Y49921D01*
G01X792Y49934D01*
G01X819Y49948D01*
G01X846Y49948D01*
G01X873Y49934D01*
G01X913Y49907D01*
G01X1051Y49771D01*
G01X1051Y49961D01*
G01X763Y50079D02*
G01X763Y50229D01*
G01X873Y50146D01*
G01X873Y50188D01*
G01X886Y50215D01*
G01X901Y50229D01*
G01X942Y50242D01*
G01X969Y50242D01*
G01X1009Y50229D01*
G01X1036Y50202D01*
G01X1051Y50161D01*
G01X1051Y50119D01*
G01X1036Y50079D01*
G01X1023Y50065D01*
G01X996Y50052D01*
G01X27900Y42344D02*
G01X27913Y42317D01*
G01X27940Y42290D01*
G01X27969Y42277D01*
G01X28009Y42263D01*
G01X28078Y42263D01*
G01X28119Y42277D01*
G01X28146Y42290D01*
G01X28173Y42317D01*
G01X28186Y42344D01*
G01X28186Y42398D01*
G01X28173Y42427D01*
G01X28146Y42454D01*
G01X28119Y42467D01*
G01X28078Y42480D01*
G01X28009Y42480D01*
G01X27969Y42467D01*
G01X27940Y42454D01*
G01X27913Y42427D01*
G01X27900Y42398D01*
G01X27900Y42344D01*
G01X28132Y42386D02*
G01X28213Y42467D01*
G01X27955Y42571D02*
G01X27940Y42598D01*
G01X27900Y42638D01*
G01X28186Y42638D01*
G01X27940Y42892D02*
G01X27913Y42879D01*
G01X27900Y42838D01*
G01X27900Y42811D01*
G01X27913Y42769D01*
G01X27955Y42742D01*
G01X28023Y42729D01*
G01X28090Y42729D01*
G01X28146Y42742D01*
G01X28173Y42769D01*
G01X28186Y42811D01*
G01X28186Y42825D01*
G01X28173Y42865D01*
G01X28146Y42892D01*
G01X28105Y42907D01*
G01X28090Y42907D01*
G01X28050Y42892D01*
G01X28023Y42865D01*
G01X28009Y42825D01*
G01X28009Y42811D01*
G01X28023Y42769D01*
G01X28050Y42742D01*
G01X28090Y42729D01*
G01X30346Y40936D02*
G01X30634Y40936D01*
G01X30346Y40936D02*
G01X30346Y41059D01*
G01X30361Y41101D01*
G01X30375Y41113D01*
G01X30402Y41128D01*
G01X30428Y41128D01*
G01X30455Y41113D01*
G01X30469Y41101D01*
G01X30484Y41059D01*
G01X30484Y40936D01*
G01X30484Y41032D02*
G01X30634Y41128D01*
G01X30415Y41232D02*
G01X30402Y41232D01*
G01X30375Y41244D01*
G01X30361Y41259D01*
G01X30346Y41286D01*
G01X30346Y41340D01*
G01X30361Y41367D01*
G01X30375Y41382D01*
G01X30402Y41394D01*
G01X30428Y41394D01*
G01X30455Y41382D01*
G01X30496Y41354D01*
G01X30634Y41217D01*
G01X30634Y41409D01*
G01X30346Y41634D02*
G01X30538Y41498D01*
G01X30538Y41703D01*
G01X30346Y41634D02*
G01X30634Y41634D01*
G01X28765Y46026D02*
G01X29052Y46026D01*
G01X28765Y46026D02*
G01X28765Y46148D01*
G01X28778Y46190D01*
G01X28792Y46203D01*
G01X28819Y46217D01*
G01X28846Y46217D01*
G01X28873Y46203D01*
G01X28888Y46190D01*
G01X28902Y46148D01*
G01X28902Y46026D01*
G01X28902Y46121D02*
G01X29052Y46217D01*
G01X28834Y46321D02*
G01X28819Y46321D01*
G01X28792Y46334D01*
G01X28778Y46348D01*
G01X28765Y46375D01*
G01X28765Y46430D01*
G01X28778Y46457D01*
G01X28792Y46471D01*
G01X28819Y46484D01*
G01X28846Y46484D01*
G01X28873Y46471D01*
G01X28915Y46442D01*
G01X29052Y46307D01*
G01X29052Y46498D01*
G01X28765Y46751D02*
G01X28765Y46615D01*
G01X28888Y46601D01*
G01X28873Y46615D01*
G01X28861Y46655D01*
G01X28861Y46696D01*
G01X28873Y46738D01*
G01X28902Y46765D01*
G01X28942Y46779D01*
G01X28969Y46779D01*
G01X29011Y46765D01*
G01X29038Y46738D01*
G01X29052Y46696D01*
G01X29052Y46655D01*
G01X29038Y46615D01*
G01X29023Y46601D01*
G01X28996Y46588D01*
G01X31453Y44896D02*
G01X31427Y44882D01*
G01X31398Y44855D01*
G01X31386Y44828D01*
G01X31371Y44788D01*
G01X31371Y44719D01*
G01X31386Y44678D01*
G01X31398Y44651D01*
G01X31427Y44623D01*
G01X31453Y44609D01*
G01X31507Y44609D01*
G01X31536Y44623D01*
G01X31563Y44651D01*
G01X31577Y44678D01*
G01X31590Y44719D01*
G01X31590Y44788D01*
G01X31577Y44828D01*
G01X31563Y44855D01*
G01X31536Y44882D01*
G01X31507Y44896D01*
G01X31453Y44896D01*
G01X31494Y44665D02*
G01X31577Y44582D01*
G01X31680Y44842D02*
G01X31707Y44855D01*
G01X31748Y44896D01*
G01X31748Y44609D01*
G01X32028Y44896D02*
G01X31892Y44609D01*
G01X31838Y44896D02*
G01X32028Y44896D01*
G01X29440Y49059D02*
G01X29440Y48771D01*
G01X29440Y49059D02*
G01X29563Y49059D01*
G01X29603Y49044D01*
G01X29617Y49030D01*
G01X29630Y49004D01*
G01X29630Y48977D01*
G01X29617Y48950D01*
G01X29603Y48936D01*
G01X29563Y48921D01*
G01X29440Y48921D01*
G01X29534Y48921D02*
G01X29630Y48771D01*
G01X29734Y48990D02*
G01X29734Y49004D01*
G01X29748Y49030D01*
G01X29761Y49044D01*
G01X29788Y49059D01*
G01X29844Y49059D01*
G01X29871Y49044D01*
G01X29884Y49030D01*
G01X29898Y49004D01*
G01X29898Y48977D01*
G01X29884Y48950D01*
G01X29857Y48909D01*
G01X29721Y48771D01*
G01X29911Y48771D01*
G01X30165Y49017D02*
G01X30152Y49044D01*
G01X30111Y49059D01*
G01X30084Y49059D01*
G01X30042Y49044D01*
G01X30015Y49004D01*
G01X30002Y48936D01*
G01X30002Y48867D01*
G01X30015Y48813D01*
G01X30042Y48786D01*
G01X30084Y48771D01*
G01X30096Y48771D01*
G01X30138Y48786D01*
G01X30165Y48813D01*
G01X30178Y48854D01*
G01X30178Y48867D01*
G01X30165Y48909D01*
G01X30138Y48936D01*
G01X30096Y48950D01*
G01X30084Y48950D01*
G01X30042Y48936D01*
G01X30015Y48909D01*
G01X30002Y48867D01*
G01X23713Y42436D02*
G01X23728Y42409D01*
G01X23755Y42382D01*
G01X23782Y42369D01*
G01X23823Y42355D01*
G01X23892Y42355D01*
G01X23932Y42369D01*
G01X23959Y42382D01*
G01X23986Y42409D01*
G01X24001Y42436D01*
G01X24001Y42490D01*
G01X23986Y42519D01*
G01X23959Y42546D01*
G01X23932Y42559D01*
G01X23892Y42573D01*
G01X23823Y42573D01*
G01X23782Y42559D01*
G01X23755Y42546D01*
G01X23728Y42519D01*
G01X23713Y42490D01*
G01X23713Y42436D01*
G01X23946Y42478D02*
G01X24028Y42559D01*
G01X23769Y42663D02*
G01X23755Y42690D01*
G01X23713Y42730D01*
G01X24001Y42730D01*
G01X23713Y42890D02*
G01X23728Y42848D01*
G01X23755Y42834D01*
G01X23782Y42834D01*
G01X23809Y42848D01*
G01X23823Y42876D01*
G01X23836Y42930D01*
G01X23851Y42971D01*
G01X23878Y42998D01*
G01X23905Y43011D01*
G01X23946Y43011D01*
G01X23973Y42998D01*
G01X23986Y42984D01*
G01X24001Y42944D01*
G01X24001Y42890D01*
G01X23986Y42848D01*
G01X23973Y42834D01*
G01X23946Y42821D01*
G01X23905Y42821D01*
G01X23878Y42834D01*
G01X23851Y42861D01*
G01X23836Y42903D01*
G01X23823Y42957D01*
G01X23809Y42984D01*
G01X23782Y42998D01*
G01X23755Y42998D01*
G01X23728Y42984D01*
G01X23713Y42944D01*
G01X23713Y42890D01*
G01X26375Y40901D02*
G01X26661Y40901D01*
G01X26375Y40901D02*
G01X26375Y41023D01*
G01X26388Y41065D01*
G01X26403Y41078D01*
G01X26430Y41092D01*
G01X26457Y41092D01*
G01X26484Y41078D01*
G01X26498Y41065D01*
G01X26511Y41023D01*
G01X26511Y40901D01*
G01X26511Y40996D02*
G01X26661Y41092D01*
G01X26444Y41196D02*
G01X26430Y41196D01*
G01X26403Y41209D01*
G01X26388Y41223D01*
G01X26375Y41250D01*
G01X26375Y41305D01*
G01X26388Y41332D01*
G01X26403Y41346D01*
G01X26430Y41359D01*
G01X26457Y41359D01*
G01X26484Y41346D01*
G01X26525Y41317D01*
G01X26661Y41182D01*
G01X26661Y41373D01*
G01X26375Y41654D02*
G01X26661Y41517D01*
G01X26375Y41463D02*
G01X26375Y41654D01*
G01X24555Y45990D02*
G01X24842Y45990D01*
G01X24555Y45990D02*
G01X24555Y46113D01*
G01X24569Y46155D01*
G01X24584Y46167D01*
G01X24611Y46182D01*
G01X24638Y46182D01*
G01X24665Y46167D01*
G01X24678Y46155D01*
G01X24692Y46113D01*
G01X24692Y45990D01*
G01X24692Y46086D02*
G01X24842Y46182D01*
G01X24625Y46286D02*
G01X24611Y46286D01*
G01X24584Y46298D01*
G01X24569Y46313D01*
G01X24555Y46340D01*
G01X24555Y46394D01*
G01X24569Y46421D01*
G01X24584Y46436D01*
G01X24611Y46448D01*
G01X24638Y46448D01*
G01X24665Y46436D01*
G01X24705Y46407D01*
G01X24842Y46271D01*
G01X24842Y46463D01*
G01X24555Y46621D02*
G01X24569Y46580D01*
G01X24596Y46565D01*
G01X24625Y46565D01*
G01X24652Y46580D01*
G01X24665Y46607D01*
G01X24678Y46661D01*
G01X24692Y46703D01*
G01X24719Y46730D01*
G01X24746Y46744D01*
G01X24788Y46744D01*
G01X24815Y46730D01*
G01X24828Y46715D01*
G01X24842Y46676D01*
G01X24842Y46621D01*
G01X24828Y46580D01*
G01X24815Y46565D01*
G01X24788Y46553D01*
G01X24746Y46553D01*
G01X24719Y46565D01*
G01X24692Y46594D01*
G01X24678Y46634D01*
G01X24665Y46688D01*
G01X24652Y46715D01*
G01X24625Y46730D01*
G01X24596Y46730D01*
G01X24569Y46715D01*
G01X24555Y46676D01*
G01X24555Y46621D01*
G01X27561Y46503D02*
G01X27575Y46476D01*
G01X27602Y46448D01*
G01X27630Y46434D01*
G01X27669Y46421D01*
G01X27738Y46421D01*
G01X27780Y46434D01*
G01X27807Y46448D01*
G01X27834Y46476D01*
G01X27848Y46503D01*
G01X27848Y46557D01*
G01X27834Y46584D01*
G01X27807Y46611D01*
G01X27780Y46626D01*
G01X27738Y46638D01*
G01X27669Y46638D01*
G01X27630Y46626D01*
G01X27602Y46611D01*
G01X27575Y46584D01*
G01X27561Y46557D01*
G01X27561Y46503D01*
G01X27792Y46544D02*
G01X27875Y46626D01*
G01X27615Y46729D02*
G01X27602Y46755D01*
G01X27561Y46796D01*
G01X27848Y46796D01*
G01X27657Y47065D02*
G01X27698Y47051D01*
G01X27725Y47023D01*
G01X27738Y46982D01*
G01X27738Y46969D01*
G01X27725Y46928D01*
G01X27698Y46901D01*
G01X27657Y46886D01*
G01X27642Y46886D01*
G01X27602Y46901D01*
G01X27575Y46928D01*
G01X27561Y46969D01*
G01X27561Y46982D01*
G01X27575Y47023D01*
G01X27602Y47051D01*
G01X27657Y47065D01*
G01X27725Y47065D01*
G01X27792Y47051D01*
G01X27834Y47023D01*
G01X27848Y46982D01*
G01X27848Y46955D01*
G01X27834Y46915D01*
G01X27807Y46901D01*
G01X25153Y49036D02*
G01X25153Y48748D01*
G01X25153Y49036D02*
G01X25276Y49036D01*
G01X25317Y49021D01*
G01X25330Y49007D01*
G01X25344Y48980D01*
G01X25344Y48954D01*
G01X25330Y48927D01*
G01X25317Y48913D01*
G01X25276Y48898D01*
G01X25153Y48898D01*
G01X25248Y48898D02*
G01X25344Y48748D01*
G01X25448Y48967D02*
G01X25448Y48980D01*
G01X25461Y49007D01*
G01X25475Y49021D01*
G01X25502Y49036D01*
G01X25557Y49036D01*
G01X25584Y49021D01*
G01X25598Y49007D01*
G01X25611Y48980D01*
G01X25611Y48954D01*
G01X25598Y48927D01*
G01X25569Y48886D01*
G01X25434Y48748D01*
G01X25625Y48748D01*
G01X25892Y48940D02*
G01X25878Y48898D01*
G01X25851Y48871D01*
G01X25809Y48857D01*
G01X25796Y48857D01*
G01X25755Y48871D01*
G01X25728Y48898D01*
G01X25715Y48940D01*
G01X25715Y48954D01*
G01X25728Y48994D01*
G01X25755Y49021D01*
G01X25796Y49036D01*
G01X25809Y49036D01*
G01X25851Y49021D01*
G01X25878Y48994D01*
G01X25892Y48940D01*
G01X25892Y48871D01*
G01X25878Y48804D01*
G01X25851Y48763D01*
G01X25809Y48748D01*
G01X25782Y48748D01*
G01X25742Y48763D01*
G01X25728Y48790D01*
G01X24959Y32944D02*
G01X24959Y32657D01*
G01X24959Y32944D02*
G01X25082Y32944D01*
G01X25123Y32930D01*
G01X25136Y32915D01*
G01X25151Y32888D01*
G01X25151Y32861D01*
G01X25136Y32834D01*
G01X25123Y32821D01*
G01X25082Y32807D01*
G01X24959Y32807D01*
G01X25055Y32807D02*
G01X25151Y32657D01*
G01X25240Y32888D02*
G01X25267Y32903D01*
G01X25309Y32944D01*
G01X25309Y32657D01*
G01X29028Y33373D02*
G01X29015Y33400D01*
G01X28988Y33428D01*
G01X28959Y33440D01*
G01X28919Y33455D01*
G01X28851Y33455D01*
G01X28809Y33440D01*
G01X28782Y33428D01*
G01X28755Y33400D01*
G01X28742Y33373D01*
G01X28742Y33319D01*
G01X28755Y33290D01*
G01X28782Y33263D01*
G01X28809Y33250D01*
G01X28851Y33236D01*
G01X28919Y33236D01*
G01X28959Y33250D01*
G01X28988Y33263D01*
G01X29015Y33290D01*
G01X29028Y33319D01*
G01X29028Y33373D01*
G01X28796Y33332D02*
G01X28715Y33250D01*
G01X28973Y33146D02*
G01X28988Y33119D01*
G01X29028Y33079D01*
G01X28742Y33079D01*
G01X24919Y31253D02*
G01X24919Y30967D01*
G01X24919Y31253D02*
G01X25042Y31253D01*
G01X25084Y31240D01*
G01X25096Y31226D01*
G01X25111Y31198D01*
G01X25111Y31171D01*
G01X25096Y31144D01*
G01X25084Y31130D01*
G01X25042Y31117D01*
G01X24919Y31117D01*
G01X25015Y31117D02*
G01X25111Y30967D01*
G01X25215Y31184D02*
G01X25215Y31198D01*
G01X25228Y31226D01*
G01X25242Y31240D01*
G01X25269Y31253D01*
G01X25323Y31253D01*
G01X25351Y31240D01*
G01X25365Y31226D01*
G01X25378Y31198D01*
G01X25378Y31171D01*
G01X25365Y31144D01*
G01X25336Y31103D01*
G01X25201Y30967D01*
G01X25392Y30967D01*
G01X35864Y54857D02*
G01X35822Y54898D01*
G01X35761Y54919D01*
G01X35680Y54919D01*
G01X35618Y54898D01*
G01X35577Y54857D01*
G01X35577Y54817D01*
G01X35597Y54776D01*
G01X35618Y54755D01*
G01X35660Y54734D01*
G01X35782Y54694D01*
G01X35822Y54673D01*
G01X35843Y54654D01*
G01X35864Y54613D01*
G01X35864Y54551D01*
G01X35822Y54509D01*
G01X35761Y54490D01*
G01X35680Y54490D01*
G01X35618Y54509D01*
G01X35577Y54551D01*
G01X35998Y54919D02*
G01X35998Y54490D01*
G01X35998Y54919D02*
G01X36182Y54919D01*
G01X36244Y54898D01*
G01X36264Y54879D01*
G01X36285Y54838D01*
G01X36285Y54776D01*
G01X36264Y54734D01*
G01X36244Y54715D01*
G01X36182Y54694D01*
G01X35998Y54694D01*
G01X36421Y54919D02*
G01X36421Y54490D01*
G01X36421Y54919D02*
G01X36686Y54919D01*
G01X36421Y54715D02*
G01X36584Y54715D01*
G01X36421Y54490D02*
G01X36686Y54490D01*
G01X36985Y54919D02*
G01X36822Y54490D01*
G01X36985Y54919D02*
G01X37148Y54490D01*
G01X36882Y54632D02*
G01X37088Y54632D01*
G01X37284Y54919D02*
G01X37284Y54490D01*
G01X37569Y54919D02*
G01X37284Y54632D01*
G01X37385Y54734D02*
G01X37569Y54490D01*
G01X37705Y54919D02*
G01X37705Y54490D01*
G01X37705Y54919D02*
G01X37971Y54919D01*
G01X37705Y54715D02*
G01X37868Y54715D01*
G01X37705Y54490D02*
G01X37971Y54490D01*
G01X38106Y54919D02*
G01X38106Y54490D01*
G01X38106Y54919D02*
G01X38289Y54919D01*
G01X38352Y54898D01*
G01X38372Y54879D01*
G01X38393Y54838D01*
G01X38393Y54796D01*
G01X38372Y54755D01*
G01X38352Y54734D01*
G01X38289Y54715D01*
G01X38106Y54715D01*
G01X38248Y54715D02*
G01X38393Y54490D01*
G01X30053Y33530D02*
G01X29765Y33530D01*
G01X30053Y33530D02*
G01X30053Y33434D01*
G01X30040Y33394D01*
G01X30011Y33365D01*
G01X29982Y33353D01*
G01X29944Y33338D01*
G01X29875Y33338D01*
G01X29832Y33353D01*
G01X29807Y33365D01*
G01X29778Y33394D01*
G01X29765Y33434D01*
G01X29765Y33530D01*
G01X29998Y33248D02*
G01X30011Y33221D01*
G01X30053Y33180D01*
G01X29765Y33180D01*
G01X31832Y32715D02*
G01X31546Y32715D01*
G01X31832Y32715D02*
G01X31832Y32592D01*
G01X31821Y32552D01*
G01X31803Y32538D01*
G01X31778Y32525D01*
G01X31750Y32525D01*
G01X31725Y32538D01*
G01X31711Y32552D01*
G01X31696Y32592D01*
G01X31696Y32715D01*
G01X31696Y32621D02*
G01X31546Y32525D01*
G01X31832Y32407D02*
G01X31832Y32257D01*
G01X31725Y32340D01*
G01X31725Y32298D01*
G01X31711Y32271D01*
G01X31696Y32257D01*
G01X31653Y32244D01*
G01X31628Y32244D01*
G01X31586Y32257D01*
G01X31561Y32284D01*
G01X31546Y32326D01*
G01X31546Y32367D01*
G01X31561Y32407D01*
G01X31575Y32421D01*
G01X31600Y32434D01*
G01X34160Y29444D02*
G01X34139Y29486D01*
G01X34097Y29528D01*
G01X34057Y29548D01*
G01X33976Y29548D01*
G01X33935Y29528D01*
G01X33893Y29486D01*
G01X33872Y29444D01*
G01X33852Y29386D01*
G01X33852Y29282D01*
G01X33872Y29219D01*
G01X33893Y29180D01*
G01X33935Y29140D01*
G01X33976Y29119D01*
G01X34057Y29119D01*
G01X34097Y29140D01*
G01X34139Y29180D01*
G01X34160Y29219D01*
G01X34294Y29465D02*
G01X34335Y29486D01*
G01X34397Y29548D01*
G01X34397Y29119D01*
G01X38206Y33432D02*
G01X38164Y33413D01*
G01X38127Y33373D01*
G01X38106Y33332D01*
G01X38106Y33250D01*
G01X38127Y33207D01*
G01X38164Y33167D01*
G01X38206Y33148D01*
G01X38267Y33128D01*
G01X38368Y33128D01*
G01X38431Y33148D01*
G01X38472Y33167D01*
G01X38513Y33207D01*
G01X38534Y33250D01*
G01X38534Y33332D01*
G01X38513Y33373D01*
G01X38472Y33413D01*
G01X38431Y33432D01*
G01X38206Y33588D02*
G01X38184Y33588D01*
G01X38143Y33609D01*
G01X38127Y33630D01*
G01X38106Y33671D01*
G01X38106Y33754D01*
G01X38127Y33792D01*
G01X38143Y33813D01*
G01X38184Y33834D01*
G01X38227Y33834D01*
G01X38267Y33813D01*
G01X38331Y33773D01*
G01X38534Y33567D01*
G01X38534Y33855D01*
G01X1055Y33800D02*
G01X1361Y33800D01*
G01X1423Y33819D01*
G01X1463Y33861D01*
G01X1484Y33923D01*
G01X1484Y33963D01*
G01X1463Y34025D01*
G01X1423Y34065D01*
G01X1361Y34086D01*
G01X1055Y34086D01*
G01X1136Y34221D02*
G01X1115Y34261D01*
G01X1055Y34323D01*
G01X1484Y34323D01*
G54D15*
G75*
G01X36293Y32121D02*
G03X36292Y32121I-1J78D01*
G01*
G54D14*
G75*
G01X20267Y43467D02*
G03X20175Y43411I434J-817D01*
G01*
G75*
G01X20175Y41888D02*
G03X20309Y41811I526J761D01*
G01*
G75*
G01X21090Y41811D02*
G03X21132Y43467I-391J838D01*
G01*
G75*
G01X23232Y45932D02*
G03X23325Y45988I-434J817D01*
G01*
G75*
G01X23325Y47511D02*
G03X23190Y47588I-527J-761D01*
G01*
G75*
G01X22409Y47588D02*
G03X22367Y45932I391J-838D01*
G01*
G75*
G01X32467Y47567D02*
G03X32375Y47511I434J-817D01*
G01*
G75*
G01X32375Y45988D02*
G03X32509Y45911I526J761D01*
G01*
G75*
G01X33290Y45911D02*
G03X33332Y47567I-391J838D01*
G01*
G75*
G01X34467Y38867D02*
G03X34375Y38811I434J-817D01*
G01*
G75*
G01X34375Y37288D02*
G03X34509Y37211I526J761D01*
G01*
G75*
G01X35290Y37211D02*
G03X35332Y38867I-391J838D01*
G01*
G75*
G01X16067Y43467D02*
G03X15975Y43411I434J-817D01*
G01*
G75*
G01X15975Y41888D02*
G03X16109Y41811I526J761D01*
G01*
G75*
G01X16890Y41811D02*
G03X16932Y43467I-391J838D01*
G01*
G75*
G01X19132Y45932D02*
G03X19225Y45988I-434J817D01*
G01*
G75*
G01X19225Y47511D02*
G03X19090Y47588I-527J-761D01*
G01*
G75*
G01X18309Y47588D02*
G03X18267Y45932I391J-838D01*
G01*
G75*
G01X12067Y43467D02*
G03X11975Y43411I434J-817D01*
G01*
G75*
G01X11975Y41888D02*
G03X12109Y41811I526J761D01*
G01*
G75*
G01X12890Y41811D02*
G03X12932Y43467I-391J838D01*
G01*
G75*
G01X15032Y45932D02*
G03X15125Y45988I-434J817D01*
G01*
G75*
G01X15125Y47511D02*
G03X14990Y47588I-527J-761D01*
G01*
G75*
G01X14209Y47588D02*
G03X14167Y45932I391J-838D01*
G01*
G75*
G01X7067Y42567D02*
G03X6975Y42511I434J-817D01*
G01*
G75*
G01X6975Y40988D02*
G03X7109Y40911I526J761D01*
G01*
G75*
G01X7890Y40911D02*
G03X7932Y42567I-391J838D01*
G01*
G75*
G01X9632Y45032D02*
G03X9725Y45088I-434J817D01*
G01*
G75*
G01X9725Y46611D02*
G03X9590Y46688I-527J-761D01*
G01*
G75*
G01X8809Y46688D02*
G03X8767Y45032I391J-838D01*
G01*
G75*
G01X3867Y42567D02*
G03X3775Y42511I434J-817D01*
G01*
G75*
G01X3775Y40988D02*
G03X3909Y40911I526J761D01*
G01*
G75*
G01X4690Y40911D02*
G03X4732Y42567I-391J838D01*
G01*
G75*
G01X6332Y45032D02*
G03X6425Y45088I-434J817D01*
G01*
G75*
G01X6425Y46611D02*
G03X6290Y46688I-527J-761D01*
G01*
G75*
G01X5509Y46688D02*
G03X5467Y45032I391J-838D01*
G01*
G75*
G01X1067Y42567D02*
G03X975Y42511I434J-817D01*
G01*
G75*
G01X975Y40988D02*
G03X1109Y40911I526J761D01*
G01*
G75*
G01X1890Y40911D02*
G03X1932Y42567I-391J838D01*
G01*
G75*
G01X3532Y45032D02*
G03X3625Y45088I-434J817D01*
G01*
G75*
G01X3625Y46611D02*
G03X3490Y46688I-527J-761D01*
G01*
G75*
G01X2709Y46688D02*
G03X2667Y45032I391J-838D01*
G01*
G75*
G01X28467Y43467D02*
G03X28375Y43411I434J-817D01*
G01*
G75*
G01X28375Y41888D02*
G03X28509Y41811I526J761D01*
G01*
G75*
G01X29290Y41811D02*
G03X29332Y43467I-391J838D01*
G01*
G75*
G01X31532Y45932D02*
G03X31625Y45988I-434J817D01*
G01*
G75*
G01X31625Y47511D02*
G03X31490Y47588I-527J-761D01*
G01*
G75*
G01X30709Y47588D02*
G03X30667Y45932I391J-838D01*
G01*
G75*
G01X24267Y43467D02*
G03X24175Y43411I434J-817D01*
G01*
G75*
G01X24175Y41888D02*
G03X24309Y41811I526J761D01*
G01*
G75*
G01X25090Y41811D02*
G03X25132Y43467I-391J838D01*
G01*
G75*
G01X27332Y45932D02*
G03X27425Y45988I-434J817D01*
G01*
G75*
G01X27425Y47511D02*
G03X27290Y47588I-527J-761D01*
G01*
G75*
G01X26509Y47588D02*
G03X26467Y45932I391J-838D01*
G01*
G75*
G01X27767Y34067D02*
G03X27675Y34011I434J-817D01*
G01*
G75*
G01X27675Y32488D02*
G03X27809Y32411I526J761D01*
G01*
G75*
G01X28590Y32411D02*
G03X28632Y34067I-391J838D01*
G01*

M00*
M02*